G04 #@! TF.GenerationSoftware,KiCad,Pcbnew,(5.1.9)-1*
G04 #@! TF.CreationDate,2021-04-28T19:37:10+02:00*
G04 #@! TF.ProjectId,KicadJE_Drum_PE78 - Base,4b696361-644a-4455-9f44-72756d5f5045,rev?*
G04 #@! TF.SameCoordinates,Original*
G04 #@! TF.FileFunction,Paste,Top*
G04 #@! TF.FilePolarity,Positive*
%FSLAX46Y46*%
G04 Gerber Fmt 4.6, Leading zero omitted, Abs format (unit mm)*
G04 Created by KiCad (PCBNEW (5.1.9)-1) date 2021-04-28 19:37:10*
%MOMM*%
%LPD*%
G01*
G04 APERTURE LIST*
%ADD10R,1.300000X1.700000*%
%ADD11R,1.700000X1.300000*%
%ADD12R,2.000000X0.550000*%
G04 APERTURE END LIST*
G36*
G01*
X130400000Y-51950001D02*
X130400000Y-51049999D01*
G75*
G02*
X130649999Y-50800000I249999J0D01*
G01*
X131300001Y-50800000D01*
G75*
G02*
X131550000Y-51049999I0J-249999D01*
G01*
X131550000Y-51950001D01*
G75*
G02*
X131300001Y-52200000I-249999J0D01*
G01*
X130649999Y-52200000D01*
G75*
G02*
X130400000Y-51950001I0J249999D01*
G01*
G37*
G36*
G01*
X132450000Y-51950001D02*
X132450000Y-51049999D01*
G75*
G02*
X132699999Y-50800000I249999J0D01*
G01*
X133350001Y-50800000D01*
G75*
G02*
X133600000Y-51049999I0J-249999D01*
G01*
X133600000Y-51950001D01*
G75*
G02*
X133350001Y-52200000I-249999J0D01*
G01*
X132699999Y-52200000D01*
G75*
G02*
X132450000Y-51950001I0J249999D01*
G01*
G37*
D10*
X130500000Y-65000000D03*
X134000000Y-65000000D03*
X123000000Y-65000000D03*
X126500000Y-65000000D03*
G36*
G01*
X53450001Y-91600000D02*
X52549999Y-91600000D01*
G75*
G02*
X52300000Y-91350001I0J249999D01*
G01*
X52300000Y-90699999D01*
G75*
G02*
X52549999Y-90450000I249999J0D01*
G01*
X53450001Y-90450000D01*
G75*
G02*
X53700000Y-90699999I0J-249999D01*
G01*
X53700000Y-91350001D01*
G75*
G02*
X53450001Y-91600000I-249999J0D01*
G01*
G37*
G36*
G01*
X53450001Y-89550000D02*
X52549999Y-89550000D01*
G75*
G02*
X52300000Y-89300001I0J249999D01*
G01*
X52300000Y-88649999D01*
G75*
G02*
X52549999Y-88400000I249999J0D01*
G01*
X53450001Y-88400000D01*
G75*
G02*
X53700000Y-88649999I0J-249999D01*
G01*
X53700000Y-89300001D01*
G75*
G02*
X53450001Y-89550000I-249999J0D01*
G01*
G37*
G36*
G01*
X53450001Y-99550000D02*
X52549999Y-99550000D01*
G75*
G02*
X52300000Y-99300001I0J249999D01*
G01*
X52300000Y-98649999D01*
G75*
G02*
X52549999Y-98400000I249999J0D01*
G01*
X53450001Y-98400000D01*
G75*
G02*
X53700000Y-98649999I0J-249999D01*
G01*
X53700000Y-99300001D01*
G75*
G02*
X53450001Y-99550000I-249999J0D01*
G01*
G37*
G36*
G01*
X53450001Y-101600000D02*
X52549999Y-101600000D01*
G75*
G02*
X52300000Y-101350001I0J249999D01*
G01*
X52300000Y-100699999D01*
G75*
G02*
X52549999Y-100450000I249999J0D01*
G01*
X53450001Y-100450000D01*
G75*
G02*
X53700000Y-100699999I0J-249999D01*
G01*
X53700000Y-101350001D01*
G75*
G02*
X53450001Y-101600000I-249999J0D01*
G01*
G37*
D11*
X76000000Y-77500000D03*
X76000000Y-81000000D03*
X76000000Y-125250000D03*
X76000000Y-121750000D03*
G36*
G01*
X138100000Y-51049999D02*
X138100000Y-51950001D01*
G75*
G02*
X137850001Y-52200000I-249999J0D01*
G01*
X137199999Y-52200000D01*
G75*
G02*
X136950000Y-51950001I0J249999D01*
G01*
X136950000Y-51049999D01*
G75*
G02*
X137199999Y-50800000I249999J0D01*
G01*
X137850001Y-50800000D01*
G75*
G02*
X138100000Y-51049999I0J-249999D01*
G01*
G37*
G36*
G01*
X136050000Y-51049999D02*
X136050000Y-51950001D01*
G75*
G02*
X135800001Y-52200000I-249999J0D01*
G01*
X135149999Y-52200000D01*
G75*
G02*
X134900000Y-51950001I0J249999D01*
G01*
X134900000Y-51049999D01*
G75*
G02*
X135149999Y-50800000I249999J0D01*
G01*
X135800001Y-50800000D01*
G75*
G02*
X136050000Y-51049999I0J-249999D01*
G01*
G37*
G36*
G01*
X125600000Y-59549999D02*
X125600000Y-60450001D01*
G75*
G02*
X125350001Y-60700000I-249999J0D01*
G01*
X124699999Y-60700000D01*
G75*
G02*
X124450000Y-60450001I0J249999D01*
G01*
X124450000Y-59549999D01*
G75*
G02*
X124699999Y-59300000I249999J0D01*
G01*
X125350001Y-59300000D01*
G75*
G02*
X125600000Y-59549999I0J-249999D01*
G01*
G37*
G36*
G01*
X123550000Y-59549999D02*
X123550000Y-60450001D01*
G75*
G02*
X123300001Y-60700000I-249999J0D01*
G01*
X122649999Y-60700000D01*
G75*
G02*
X122400000Y-60450001I0J249999D01*
G01*
X122400000Y-59549999D01*
G75*
G02*
X122649999Y-59300000I249999J0D01*
G01*
X123300001Y-59300000D01*
G75*
G02*
X123550000Y-59549999I0J-249999D01*
G01*
G37*
G36*
G01*
X136075000Y-59549999D02*
X136075000Y-60450001D01*
G75*
G02*
X135825001Y-60700000I-249999J0D01*
G01*
X135174999Y-60700000D01*
G75*
G02*
X134925000Y-60450001I0J249999D01*
G01*
X134925000Y-59549999D01*
G75*
G02*
X135174999Y-59300000I249999J0D01*
G01*
X135825001Y-59300000D01*
G75*
G02*
X136075000Y-59549999I0J-249999D01*
G01*
G37*
G36*
G01*
X138125000Y-59549999D02*
X138125000Y-60450001D01*
G75*
G02*
X137875001Y-60700000I-249999J0D01*
G01*
X137224999Y-60700000D01*
G75*
G02*
X136975000Y-60450001I0J249999D01*
G01*
X136975000Y-59549999D01*
G75*
G02*
X137224999Y-59300000I249999J0D01*
G01*
X137875001Y-59300000D01*
G75*
G02*
X138125000Y-59549999I0J-249999D01*
G01*
G37*
G36*
G01*
X131950000Y-60450001D02*
X131950000Y-59549999D01*
G75*
G02*
X132199999Y-59300000I249999J0D01*
G01*
X132850001Y-59300000D01*
G75*
G02*
X133100000Y-59549999I0J-249999D01*
G01*
X133100000Y-60450001D01*
G75*
G02*
X132850001Y-60700000I-249999J0D01*
G01*
X132199999Y-60700000D01*
G75*
G02*
X131950000Y-60450001I0J249999D01*
G01*
G37*
G36*
G01*
X129900000Y-60450001D02*
X129900000Y-59549999D01*
G75*
G02*
X130149999Y-59300000I249999J0D01*
G01*
X130800001Y-59300000D01*
G75*
G02*
X131050000Y-59549999I0J-249999D01*
G01*
X131050000Y-60450001D01*
G75*
G02*
X130800001Y-60700000I-249999J0D01*
G01*
X130149999Y-60700000D01*
G75*
G02*
X129900000Y-60450001I0J249999D01*
G01*
G37*
G36*
G01*
X52549999Y-84375000D02*
X53450001Y-84375000D01*
G75*
G02*
X53700000Y-84624999I0J-249999D01*
G01*
X53700000Y-85275001D01*
G75*
G02*
X53450001Y-85525000I-249999J0D01*
G01*
X52549999Y-85525000D01*
G75*
G02*
X52300000Y-85275001I0J249999D01*
G01*
X52300000Y-84624999D01*
G75*
G02*
X52549999Y-84375000I249999J0D01*
G01*
G37*
G36*
G01*
X52549999Y-86425000D02*
X53450001Y-86425000D01*
G75*
G02*
X53700000Y-86674999I0J-249999D01*
G01*
X53700000Y-87325001D01*
G75*
G02*
X53450001Y-87575000I-249999J0D01*
G01*
X52549999Y-87575000D01*
G75*
G02*
X52300000Y-87325001I0J249999D01*
G01*
X52300000Y-86674999D01*
G75*
G02*
X52549999Y-86425000I249999J0D01*
G01*
G37*
G36*
G01*
X53450001Y-103550000D02*
X52549999Y-103550000D01*
G75*
G02*
X52300000Y-103300001I0J249999D01*
G01*
X52300000Y-102649999D01*
G75*
G02*
X52549999Y-102400000I249999J0D01*
G01*
X53450001Y-102400000D01*
G75*
G02*
X53700000Y-102649999I0J-249999D01*
G01*
X53700000Y-103300001D01*
G75*
G02*
X53450001Y-103550000I-249999J0D01*
G01*
G37*
G36*
G01*
X53450001Y-105600000D02*
X52549999Y-105600000D01*
G75*
G02*
X52300000Y-105350001I0J249999D01*
G01*
X52300000Y-104699999D01*
G75*
G02*
X52549999Y-104450000I249999J0D01*
G01*
X53450001Y-104450000D01*
G75*
G02*
X53700000Y-104699999I0J-249999D01*
G01*
X53700000Y-105350001D01*
G75*
G02*
X53450001Y-105600000I-249999J0D01*
G01*
G37*
G36*
G01*
X68549999Y-86425000D02*
X69450001Y-86425000D01*
G75*
G02*
X69700000Y-86674999I0J-249999D01*
G01*
X69700000Y-87325001D01*
G75*
G02*
X69450001Y-87575000I-249999J0D01*
G01*
X68549999Y-87575000D01*
G75*
G02*
X68300000Y-87325001I0J249999D01*
G01*
X68300000Y-86674999D01*
G75*
G02*
X68549999Y-86425000I249999J0D01*
G01*
G37*
G36*
G01*
X68549999Y-84375000D02*
X69450001Y-84375000D01*
G75*
G02*
X69700000Y-84624999I0J-249999D01*
G01*
X69700000Y-85275001D01*
G75*
G02*
X69450001Y-85525000I-249999J0D01*
G01*
X68549999Y-85525000D01*
G75*
G02*
X68300000Y-85275001I0J249999D01*
G01*
X68300000Y-84624999D01*
G75*
G02*
X68549999Y-84375000I249999J0D01*
G01*
G37*
G36*
G01*
X69450001Y-105600000D02*
X68549999Y-105600000D01*
G75*
G02*
X68300000Y-105350001I0J249999D01*
G01*
X68300000Y-104699999D01*
G75*
G02*
X68549999Y-104450000I249999J0D01*
G01*
X69450001Y-104450000D01*
G75*
G02*
X69700000Y-104699999I0J-249999D01*
G01*
X69700000Y-105350001D01*
G75*
G02*
X69450001Y-105600000I-249999J0D01*
G01*
G37*
G36*
G01*
X69450001Y-103550000D02*
X68549999Y-103550000D01*
G75*
G02*
X68300000Y-103300001I0J249999D01*
G01*
X68300000Y-102649999D01*
G75*
G02*
X68549999Y-102400000I249999J0D01*
G01*
X69450001Y-102400000D01*
G75*
G02*
X69700000Y-102649999I0J-249999D01*
G01*
X69700000Y-103300001D01*
G75*
G02*
X69450001Y-103550000I-249999J0D01*
G01*
G37*
G36*
G01*
X79950001Y-69100000D02*
X79049999Y-69100000D01*
G75*
G02*
X78800000Y-68850001I0J249999D01*
G01*
X78800000Y-68199999D01*
G75*
G02*
X79049999Y-67950000I249999J0D01*
G01*
X79950001Y-67950000D01*
G75*
G02*
X80200000Y-68199999I0J-249999D01*
G01*
X80200000Y-68850001D01*
G75*
G02*
X79950001Y-69100000I-249999J0D01*
G01*
G37*
G36*
G01*
X79950001Y-67050000D02*
X79049999Y-67050000D01*
G75*
G02*
X78800000Y-66800001I0J249999D01*
G01*
X78800000Y-66149999D01*
G75*
G02*
X79049999Y-65900000I249999J0D01*
G01*
X79950001Y-65900000D01*
G75*
G02*
X80200000Y-66149999I0J-249999D01*
G01*
X80200000Y-66800001D01*
G75*
G02*
X79950001Y-67050000I-249999J0D01*
G01*
G37*
G36*
G01*
X79950001Y-73125000D02*
X79049999Y-73125000D01*
G75*
G02*
X78800000Y-72875001I0J249999D01*
G01*
X78800000Y-72224999D01*
G75*
G02*
X79049999Y-71975000I249999J0D01*
G01*
X79950001Y-71975000D01*
G75*
G02*
X80200000Y-72224999I0J-249999D01*
G01*
X80200000Y-72875001D01*
G75*
G02*
X79950001Y-73125000I-249999J0D01*
G01*
G37*
G36*
G01*
X79950001Y-71075000D02*
X79049999Y-71075000D01*
G75*
G02*
X78800000Y-70825001I0J249999D01*
G01*
X78800000Y-70174999D01*
G75*
G02*
X79049999Y-69925000I249999J0D01*
G01*
X79950001Y-69925000D01*
G75*
G02*
X80200000Y-70174999I0J-249999D01*
G01*
X80200000Y-70825001D01*
G75*
G02*
X79950001Y-71075000I-249999J0D01*
G01*
G37*
G36*
G01*
X138450001Y-80600000D02*
X137549999Y-80600000D01*
G75*
G02*
X137300000Y-80350001I0J249999D01*
G01*
X137300000Y-79699999D01*
G75*
G02*
X137549999Y-79450000I249999J0D01*
G01*
X138450001Y-79450000D01*
G75*
G02*
X138700000Y-79699999I0J-249999D01*
G01*
X138700000Y-80350001D01*
G75*
G02*
X138450001Y-80600000I-249999J0D01*
G01*
G37*
G36*
G01*
X138450001Y-78550000D02*
X137549999Y-78550000D01*
G75*
G02*
X137300000Y-78300001I0J249999D01*
G01*
X137300000Y-77649999D01*
G75*
G02*
X137549999Y-77400000I249999J0D01*
G01*
X138450001Y-77400000D01*
G75*
G02*
X138700000Y-77649999I0J-249999D01*
G01*
X138700000Y-78300001D01*
G75*
G02*
X138450001Y-78550000I-249999J0D01*
G01*
G37*
G36*
G01*
X140450001Y-78575000D02*
X139549999Y-78575000D01*
G75*
G02*
X139300000Y-78325001I0J249999D01*
G01*
X139300000Y-77674999D01*
G75*
G02*
X139549999Y-77425000I249999J0D01*
G01*
X140450001Y-77425000D01*
G75*
G02*
X140700000Y-77674999I0J-249999D01*
G01*
X140700000Y-78325001D01*
G75*
G02*
X140450001Y-78575000I-249999J0D01*
G01*
G37*
G36*
G01*
X140450001Y-80625000D02*
X139549999Y-80625000D01*
G75*
G02*
X139300000Y-80375001I0J249999D01*
G01*
X139300000Y-79724999D01*
G75*
G02*
X139549999Y-79475000I249999J0D01*
G01*
X140450001Y-79475000D01*
G75*
G02*
X140700000Y-79724999I0J-249999D01*
G01*
X140700000Y-80375001D01*
G75*
G02*
X140450001Y-80625000I-249999J0D01*
G01*
G37*
G36*
G01*
X142450001Y-80600000D02*
X141549999Y-80600000D01*
G75*
G02*
X141300000Y-80350001I0J249999D01*
G01*
X141300000Y-79699999D01*
G75*
G02*
X141549999Y-79450000I249999J0D01*
G01*
X142450001Y-79450000D01*
G75*
G02*
X142700000Y-79699999I0J-249999D01*
G01*
X142700000Y-80350001D01*
G75*
G02*
X142450001Y-80600000I-249999J0D01*
G01*
G37*
G36*
G01*
X142450001Y-78550000D02*
X141549999Y-78550000D01*
G75*
G02*
X141300000Y-78300001I0J249999D01*
G01*
X141300000Y-77649999D01*
G75*
G02*
X141549999Y-77400000I249999J0D01*
G01*
X142450001Y-77400000D01*
G75*
G02*
X142700000Y-77649999I0J-249999D01*
G01*
X142700000Y-78300001D01*
G75*
G02*
X142450001Y-78550000I-249999J0D01*
G01*
G37*
G36*
G01*
X144450001Y-78550000D02*
X143549999Y-78550000D01*
G75*
G02*
X143300000Y-78300001I0J249999D01*
G01*
X143300000Y-77649999D01*
G75*
G02*
X143549999Y-77400000I249999J0D01*
G01*
X144450001Y-77400000D01*
G75*
G02*
X144700000Y-77649999I0J-249999D01*
G01*
X144700000Y-78300001D01*
G75*
G02*
X144450001Y-78550000I-249999J0D01*
G01*
G37*
G36*
G01*
X144450001Y-80600000D02*
X143549999Y-80600000D01*
G75*
G02*
X143300000Y-80350001I0J249999D01*
G01*
X143300000Y-79699999D01*
G75*
G02*
X143549999Y-79450000I249999J0D01*
G01*
X144450001Y-79450000D01*
G75*
G02*
X144700000Y-79699999I0J-249999D01*
G01*
X144700000Y-80350001D01*
G75*
G02*
X144450001Y-80600000I-249999J0D01*
G01*
G37*
G36*
G01*
X145950001Y-90100000D02*
X145049999Y-90100000D01*
G75*
G02*
X144800000Y-89850001I0J249999D01*
G01*
X144800000Y-89199999D01*
G75*
G02*
X145049999Y-88950000I249999J0D01*
G01*
X145950001Y-88950000D01*
G75*
G02*
X146200000Y-89199999I0J-249999D01*
G01*
X146200000Y-89850001D01*
G75*
G02*
X145950001Y-90100000I-249999J0D01*
G01*
G37*
G36*
G01*
X145950001Y-88050000D02*
X145049999Y-88050000D01*
G75*
G02*
X144800000Y-87800001I0J249999D01*
G01*
X144800000Y-87149999D01*
G75*
G02*
X145049999Y-86900000I249999J0D01*
G01*
X145950001Y-86900000D01*
G75*
G02*
X146200000Y-87149999I0J-249999D01*
G01*
X146200000Y-87800001D01*
G75*
G02*
X145950001Y-88050000I-249999J0D01*
G01*
G37*
G36*
G01*
X145049999Y-90900000D02*
X145950001Y-90900000D01*
G75*
G02*
X146200000Y-91149999I0J-249999D01*
G01*
X146200000Y-91800001D01*
G75*
G02*
X145950001Y-92050000I-249999J0D01*
G01*
X145049999Y-92050000D01*
G75*
G02*
X144800000Y-91800001I0J249999D01*
G01*
X144800000Y-91149999D01*
G75*
G02*
X145049999Y-90900000I249999J0D01*
G01*
G37*
G36*
G01*
X145049999Y-92950000D02*
X145950001Y-92950000D01*
G75*
G02*
X146200000Y-93199999I0J-249999D01*
G01*
X146200000Y-93850001D01*
G75*
G02*
X145950001Y-94100000I-249999J0D01*
G01*
X145049999Y-94100000D01*
G75*
G02*
X144800000Y-93850001I0J249999D01*
G01*
X144800000Y-93199999D01*
G75*
G02*
X145049999Y-92950000I249999J0D01*
G01*
G37*
G36*
G01*
X147950001Y-88075000D02*
X147049999Y-88075000D01*
G75*
G02*
X146800000Y-87825001I0J249999D01*
G01*
X146800000Y-87174999D01*
G75*
G02*
X147049999Y-86925000I249999J0D01*
G01*
X147950001Y-86925000D01*
G75*
G02*
X148200000Y-87174999I0J-249999D01*
G01*
X148200000Y-87825001D01*
G75*
G02*
X147950001Y-88075000I-249999J0D01*
G01*
G37*
G36*
G01*
X147950001Y-90125000D02*
X147049999Y-90125000D01*
G75*
G02*
X146800000Y-89875001I0J249999D01*
G01*
X146800000Y-89224999D01*
G75*
G02*
X147049999Y-88975000I249999J0D01*
G01*
X147950001Y-88975000D01*
G75*
G02*
X148200000Y-89224999I0J-249999D01*
G01*
X148200000Y-89875001D01*
G75*
G02*
X147950001Y-90125000I-249999J0D01*
G01*
G37*
G36*
G01*
X147950001Y-92050000D02*
X147049999Y-92050000D01*
G75*
G02*
X146800000Y-91800001I0J249999D01*
G01*
X146800000Y-91149999D01*
G75*
G02*
X147049999Y-90900000I249999J0D01*
G01*
X147950001Y-90900000D01*
G75*
G02*
X148200000Y-91149999I0J-249999D01*
G01*
X148200000Y-91800001D01*
G75*
G02*
X147950001Y-92050000I-249999J0D01*
G01*
G37*
G36*
G01*
X147950001Y-94100000D02*
X147049999Y-94100000D01*
G75*
G02*
X146800000Y-93850001I0J249999D01*
G01*
X146800000Y-93199999D01*
G75*
G02*
X147049999Y-92950000I249999J0D01*
G01*
X147950001Y-92950000D01*
G75*
G02*
X148200000Y-93199999I0J-249999D01*
G01*
X148200000Y-93850001D01*
G75*
G02*
X147950001Y-94100000I-249999J0D01*
G01*
G37*
G36*
G01*
X130875000Y-89950001D02*
X130875000Y-89049999D01*
G75*
G02*
X131124999Y-88800000I249999J0D01*
G01*
X131775001Y-88800000D01*
G75*
G02*
X132025000Y-89049999I0J-249999D01*
G01*
X132025000Y-89950001D01*
G75*
G02*
X131775001Y-90200000I-249999J0D01*
G01*
X131124999Y-90200000D01*
G75*
G02*
X130875000Y-89950001I0J249999D01*
G01*
G37*
G36*
G01*
X132925000Y-89950001D02*
X132925000Y-89049999D01*
G75*
G02*
X133174999Y-88800000I249999J0D01*
G01*
X133825001Y-88800000D01*
G75*
G02*
X134075000Y-89049999I0J-249999D01*
G01*
X134075000Y-89950001D01*
G75*
G02*
X133825001Y-90200000I-249999J0D01*
G01*
X133174999Y-90200000D01*
G75*
G02*
X132925000Y-89950001I0J249999D01*
G01*
G37*
G36*
G01*
X137475000Y-86450001D02*
X137475000Y-85549999D01*
G75*
G02*
X137724999Y-85300000I249999J0D01*
G01*
X138375001Y-85300000D01*
G75*
G02*
X138625000Y-85549999I0J-249999D01*
G01*
X138625000Y-86450001D01*
G75*
G02*
X138375001Y-86700000I-249999J0D01*
G01*
X137724999Y-86700000D01*
G75*
G02*
X137475000Y-86450001I0J249999D01*
G01*
G37*
G36*
G01*
X135425000Y-86450001D02*
X135425000Y-85549999D01*
G75*
G02*
X135674999Y-85300000I249999J0D01*
G01*
X136325001Y-85300000D01*
G75*
G02*
X136575000Y-85549999I0J-249999D01*
G01*
X136575000Y-86450001D01*
G75*
G02*
X136325001Y-86700000I-249999J0D01*
G01*
X135674999Y-86700000D01*
G75*
G02*
X135425000Y-86450001I0J249999D01*
G01*
G37*
G36*
G01*
X132950000Y-91950001D02*
X132950000Y-91049999D01*
G75*
G02*
X133199999Y-90800000I249999J0D01*
G01*
X133850001Y-90800000D01*
G75*
G02*
X134100000Y-91049999I0J-249999D01*
G01*
X134100000Y-91950001D01*
G75*
G02*
X133850001Y-92200000I-249999J0D01*
G01*
X133199999Y-92200000D01*
G75*
G02*
X132950000Y-91950001I0J249999D01*
G01*
G37*
G36*
G01*
X130900000Y-91950001D02*
X130900000Y-91049999D01*
G75*
G02*
X131149999Y-90800000I249999J0D01*
G01*
X131800001Y-90800000D01*
G75*
G02*
X132050000Y-91049999I0J-249999D01*
G01*
X132050000Y-91950001D01*
G75*
G02*
X131800001Y-92200000I-249999J0D01*
G01*
X131149999Y-92200000D01*
G75*
G02*
X130900000Y-91950001I0J249999D01*
G01*
G37*
G36*
G01*
X129900000Y-62950001D02*
X129900000Y-62049999D01*
G75*
G02*
X130149999Y-61800000I249999J0D01*
G01*
X130800001Y-61800000D01*
G75*
G02*
X131050000Y-62049999I0J-249999D01*
G01*
X131050000Y-62950001D01*
G75*
G02*
X130800001Y-63200000I-249999J0D01*
G01*
X130149999Y-63200000D01*
G75*
G02*
X129900000Y-62950001I0J249999D01*
G01*
G37*
G36*
G01*
X131950000Y-62950001D02*
X131950000Y-62049999D01*
G75*
G02*
X132199999Y-61800000I249999J0D01*
G01*
X132850001Y-61800000D01*
G75*
G02*
X133100000Y-62049999I0J-249999D01*
G01*
X133100000Y-62950001D01*
G75*
G02*
X132850001Y-63200000I-249999J0D01*
G01*
X132199999Y-63200000D01*
G75*
G02*
X131950000Y-62950001I0J249999D01*
G01*
G37*
G36*
G01*
X123525000Y-62049999D02*
X123525000Y-62950001D01*
G75*
G02*
X123275001Y-63200000I-249999J0D01*
G01*
X122624999Y-63200000D01*
G75*
G02*
X122375000Y-62950001I0J249999D01*
G01*
X122375000Y-62049999D01*
G75*
G02*
X122624999Y-61800000I249999J0D01*
G01*
X123275001Y-61800000D01*
G75*
G02*
X123525000Y-62049999I0J-249999D01*
G01*
G37*
G36*
G01*
X125575000Y-62049999D02*
X125575000Y-62950001D01*
G75*
G02*
X125325001Y-63200000I-249999J0D01*
G01*
X124674999Y-63200000D01*
G75*
G02*
X124425000Y-62950001I0J249999D01*
G01*
X124425000Y-62049999D01*
G75*
G02*
X124674999Y-61800000I249999J0D01*
G01*
X125325001Y-61800000D01*
G75*
G02*
X125575000Y-62049999I0J-249999D01*
G01*
G37*
G36*
G01*
X138100000Y-62049999D02*
X138100000Y-62950001D01*
G75*
G02*
X137850001Y-63200000I-249999J0D01*
G01*
X137199999Y-63200000D01*
G75*
G02*
X136950000Y-62950001I0J249999D01*
G01*
X136950000Y-62049999D01*
G75*
G02*
X137199999Y-61800000I249999J0D01*
G01*
X137850001Y-61800000D01*
G75*
G02*
X138100000Y-62049999I0J-249999D01*
G01*
G37*
G36*
G01*
X136050000Y-62049999D02*
X136050000Y-62950001D01*
G75*
G02*
X135800001Y-63200000I-249999J0D01*
G01*
X135149999Y-63200000D01*
G75*
G02*
X134900000Y-62950001I0J249999D01*
G01*
X134900000Y-62049999D01*
G75*
G02*
X135149999Y-61800000I249999J0D01*
G01*
X135800001Y-61800000D01*
G75*
G02*
X136050000Y-62049999I0J-249999D01*
G01*
G37*
G36*
G01*
X79049999Y-79425000D02*
X79950001Y-79425000D01*
G75*
G02*
X80200000Y-79674999I0J-249999D01*
G01*
X80200000Y-80325001D01*
G75*
G02*
X79950001Y-80575000I-249999J0D01*
G01*
X79049999Y-80575000D01*
G75*
G02*
X78800000Y-80325001I0J249999D01*
G01*
X78800000Y-79674999D01*
G75*
G02*
X79049999Y-79425000I249999J0D01*
G01*
G37*
G36*
G01*
X79049999Y-77375000D02*
X79950001Y-77375000D01*
G75*
G02*
X80200000Y-77624999I0J-249999D01*
G01*
X80200000Y-78275001D01*
G75*
G02*
X79950001Y-78525000I-249999J0D01*
G01*
X79049999Y-78525000D01*
G75*
G02*
X78800000Y-78275001I0J249999D01*
G01*
X78800000Y-77624999D01*
G75*
G02*
X79049999Y-77375000I249999J0D01*
G01*
G37*
G36*
G01*
X79049999Y-122400000D02*
X79950001Y-122400000D01*
G75*
G02*
X80200000Y-122649999I0J-249999D01*
G01*
X80200000Y-123300001D01*
G75*
G02*
X79950001Y-123550000I-249999J0D01*
G01*
X79049999Y-123550000D01*
G75*
G02*
X78800000Y-123300001I0J249999D01*
G01*
X78800000Y-122649999D01*
G75*
G02*
X79049999Y-122400000I249999J0D01*
G01*
G37*
G36*
G01*
X79049999Y-124450000D02*
X79950001Y-124450000D01*
G75*
G02*
X80200000Y-124699999I0J-249999D01*
G01*
X80200000Y-125350001D01*
G75*
G02*
X79950001Y-125600000I-249999J0D01*
G01*
X79049999Y-125600000D01*
G75*
G02*
X78800000Y-125350001I0J249999D01*
G01*
X78800000Y-124699999D01*
G75*
G02*
X79049999Y-124450000I249999J0D01*
G01*
G37*
G36*
G01*
X144450001Y-84575000D02*
X143549999Y-84575000D01*
G75*
G02*
X143300000Y-84325001I0J249999D01*
G01*
X143300000Y-83674999D01*
G75*
G02*
X143549999Y-83425000I249999J0D01*
G01*
X144450001Y-83425000D01*
G75*
G02*
X144700000Y-83674999I0J-249999D01*
G01*
X144700000Y-84325001D01*
G75*
G02*
X144450001Y-84575000I-249999J0D01*
G01*
G37*
G36*
G01*
X144450001Y-82525000D02*
X143549999Y-82525000D01*
G75*
G02*
X143300000Y-82275001I0J249999D01*
G01*
X143300000Y-81624999D01*
G75*
G02*
X143549999Y-81375000I249999J0D01*
G01*
X144450001Y-81375000D01*
G75*
G02*
X144700000Y-81624999I0J-249999D01*
G01*
X144700000Y-82275001D01*
G75*
G02*
X144450001Y-82525000I-249999J0D01*
G01*
G37*
D12*
X136200000Y-91905000D03*
X136200000Y-90635000D03*
X136200000Y-89365000D03*
X136200000Y-88095000D03*
X142800000Y-88095000D03*
X142800000Y-89365000D03*
X142800000Y-90635000D03*
X142800000Y-91905000D03*
G36*
G01*
X136275001Y-94425002D02*
X136275001Y-93525000D01*
G75*
G02*
X136525000Y-93275001I249999J0D01*
G01*
X137175002Y-93275001D01*
G75*
G02*
X137425001Y-93525000I0J-249999D01*
G01*
X137425001Y-94425002D01*
G75*
G02*
X137175002Y-94675001I-249999J0D01*
G01*
X136525000Y-94675001D01*
G75*
G02*
X136275001Y-94425002I0J249999D01*
G01*
G37*
G36*
G01*
X138325001Y-94425002D02*
X138325001Y-93525000D01*
G75*
G02*
X138575000Y-93275001I249999J0D01*
G01*
X139225002Y-93275001D01*
G75*
G02*
X139475001Y-93525000I0J-249999D01*
G01*
X139475001Y-94425002D01*
G75*
G02*
X139225002Y-94675001I-249999J0D01*
G01*
X138575000Y-94675001D01*
G75*
G02*
X138325001Y-94425002I0J249999D01*
G01*
G37*
G36*
G01*
X141925000Y-86450001D02*
X141925000Y-85549999D01*
G75*
G02*
X142174999Y-85300000I249999J0D01*
G01*
X142825001Y-85300000D01*
G75*
G02*
X143075000Y-85549999I0J-249999D01*
G01*
X143075000Y-86450001D01*
G75*
G02*
X142825001Y-86700000I-249999J0D01*
G01*
X142174999Y-86700000D01*
G75*
G02*
X141925000Y-86450001I0J249999D01*
G01*
G37*
G36*
G01*
X139875000Y-86450001D02*
X139875000Y-85549999D01*
G75*
G02*
X140124999Y-85300000I249999J0D01*
G01*
X140775001Y-85300000D01*
G75*
G02*
X141025000Y-85549999I0J-249999D01*
G01*
X141025000Y-86450001D01*
G75*
G02*
X140775001Y-86700000I-249999J0D01*
G01*
X140124999Y-86700000D01*
G75*
G02*
X139875000Y-86450001I0J249999D01*
G01*
G37*
G36*
G01*
X108375000Y-66200001D02*
X108375000Y-65299999D01*
G75*
G02*
X108624999Y-65050000I249999J0D01*
G01*
X109275001Y-65050000D01*
G75*
G02*
X109525000Y-65299999I0J-249999D01*
G01*
X109525000Y-66200001D01*
G75*
G02*
X109275001Y-66450000I-249999J0D01*
G01*
X108624999Y-66450000D01*
G75*
G02*
X108375000Y-66200001I0J249999D01*
G01*
G37*
G36*
G01*
X110425000Y-66200001D02*
X110425000Y-65299999D01*
G75*
G02*
X110674999Y-65050000I249999J0D01*
G01*
X111325001Y-65050000D01*
G75*
G02*
X111575000Y-65299999I0J-249999D01*
G01*
X111575000Y-66200001D01*
G75*
G02*
X111325001Y-66450000I-249999J0D01*
G01*
X110674999Y-66450000D01*
G75*
G02*
X110425000Y-66200001I0J249999D01*
G01*
G37*
G36*
G01*
X110450000Y-79200001D02*
X110450000Y-78299999D01*
G75*
G02*
X110699999Y-78050000I249999J0D01*
G01*
X111350001Y-78050000D01*
G75*
G02*
X111600000Y-78299999I0J-249999D01*
G01*
X111600000Y-79200001D01*
G75*
G02*
X111350001Y-79450000I-249999J0D01*
G01*
X110699999Y-79450000D01*
G75*
G02*
X110450000Y-79200001I0J249999D01*
G01*
G37*
G36*
G01*
X108400000Y-79200001D02*
X108400000Y-78299999D01*
G75*
G02*
X108649999Y-78050000I249999J0D01*
G01*
X109300001Y-78050000D01*
G75*
G02*
X109550000Y-78299999I0J-249999D01*
G01*
X109550000Y-79200001D01*
G75*
G02*
X109300001Y-79450000I-249999J0D01*
G01*
X108649999Y-79450000D01*
G75*
G02*
X108400000Y-79200001I0J249999D01*
G01*
G37*
G36*
G01*
X108400000Y-105450001D02*
X108400000Y-104549999D01*
G75*
G02*
X108649999Y-104300000I249999J0D01*
G01*
X109300001Y-104300000D01*
G75*
G02*
X109550000Y-104549999I0J-249999D01*
G01*
X109550000Y-105450001D01*
G75*
G02*
X109300001Y-105700000I-249999J0D01*
G01*
X108649999Y-105700000D01*
G75*
G02*
X108400000Y-105450001I0J249999D01*
G01*
G37*
G36*
G01*
X110450000Y-105450001D02*
X110450000Y-104549999D01*
G75*
G02*
X110699999Y-104300000I249999J0D01*
G01*
X111350001Y-104300000D01*
G75*
G02*
X111600000Y-104549999I0J-249999D01*
G01*
X111600000Y-105450001D01*
G75*
G02*
X111350001Y-105700000I-249999J0D01*
G01*
X110699999Y-105700000D01*
G75*
G02*
X110450000Y-105450001I0J249999D01*
G01*
G37*
M02*
