%FSLAX45Y45*%
G04 Gerber Fmt 4.5, Leading zero omitted, Abs format (unit mm)*
G04 Created by KiCad (PCBNEW (5.1.9)-1) date 2021-04-28 19:37:26*
%MOMM*%
%LPD*%
G01*
G04 APERTURE LIST*
%TA.AperFunction,Profile*%
%ADD10C,1.000000*%
%TD*%
%TA.AperFunction,Profile*%
%ADD11C,0.050000*%
%TD*%
%ADD12C,0.200000*%
%ADD13C,0.300000*%
G04 APERTURE END LIST*
D10*
X11250000Y-6000000D02*
X11250000Y-14000000D01*
X11350000Y-6000000D02*
X11350000Y-14000000D01*
X11250000Y-14000000D02*
X11350000Y-14000000D01*
X11250000Y-6000000D02*
X11350000Y-6000000D01*
X9050000Y-6000000D02*
X9150000Y-6000000D01*
X9050000Y-14000000D02*
X9150000Y-14000000D01*
X9150000Y-6000000D02*
X9150000Y-14000000D01*
X9050000Y-6000000D02*
X9050000Y-14000000D01*
D11*
X5000000Y-15000000D02*
X5000000Y-5000000D01*
X15000000Y-15000000D02*
X5000000Y-15000000D01*
X15000000Y-5000000D02*
X15000000Y-15000000D01*
X5000000Y-5000000D02*
X15000000Y-5000000D01*
D12*
X5200000Y-13900000D02*
X5300000Y-14000000D01*
X5300000Y-13900000D02*
X5200000Y-14000000D01*
X5700000Y-13900000D02*
X5800000Y-14000000D01*
X5800000Y-13900000D02*
X5700000Y-14000000D01*
X6200000Y-13900000D02*
X6300000Y-14000000D01*
X6300000Y-13900000D02*
X6200000Y-14000000D01*
X6700000Y-13900000D02*
X6800000Y-14000000D01*
X6800000Y-13900000D02*
X6700000Y-14000000D01*
X7200000Y-13900000D02*
X7300000Y-14000000D01*
X7300000Y-13900000D02*
X7200000Y-14000000D01*
X7700000Y-13900000D02*
X7800000Y-14000000D01*
X7800000Y-13900000D02*
X7700000Y-14000000D01*
X5850000Y-7060000D02*
G75*
G03*
X5850000Y-7060000I-100000J0D01*
G01*
X5800000Y-6970000D02*
X5700000Y-6970000D01*
X5800000Y-7150000D02*
X5700000Y-7150000D01*
X5700000Y-6970000D02*
G75*
G03*
X5700000Y-7150000I0J-90000D01*
G01*
X5800000Y-7150000D02*
G75*
G03*
X5800000Y-6970000I0J90000D01*
G01*
X5850000Y-7940000D02*
G75*
G03*
X5850000Y-7940000I-100000J0D01*
G01*
X5800000Y-7850000D02*
X5700000Y-7850000D01*
X5800000Y-8030000D02*
X5700000Y-8030000D01*
X5700000Y-7850000D02*
G75*
G03*
X5700000Y-8030000I0J-90000D01*
G01*
X5800000Y-8030000D02*
G75*
G03*
X5800000Y-7850000I0J90000D01*
G01*
X13860000Y-10550000D02*
G75*
G03*
X13860000Y-10550000I-100000J0D01*
G01*
X13850000Y-10600000D02*
X13850000Y-10500000D01*
X13670000Y-10600000D02*
X13670000Y-10500000D01*
X13850000Y-10500000D02*
G75*
G03*
X13670000Y-10500000I-90000J0D01*
G01*
X13670000Y-10600000D02*
G75*
G03*
X13850000Y-10600000I90000J0D01*
G01*
X14740000Y-10550000D02*
G75*
G03*
X14740000Y-10550000I-100000J0D01*
G01*
X14730000Y-10600000D02*
X14730000Y-10500000D01*
X14550000Y-10600000D02*
X14550000Y-10500000D01*
X14730000Y-10500000D02*
G75*
G03*
X14550000Y-10500000I-90000J0D01*
G01*
X14550000Y-10600000D02*
G75*
G03*
X14730000Y-10600000I90000J0D01*
G01*
X10175000Y-6180000D02*
X10175000Y-7020000D01*
X9755000Y-6600000D02*
X10595000Y-6600000D01*
X10200000Y-7480000D02*
X10200000Y-8320000D01*
X9780000Y-7900000D02*
X10620000Y-7900000D01*
X10200000Y-8780000D02*
X10200000Y-9620000D01*
X9780000Y-9200000D02*
X10620000Y-9200000D01*
X10200000Y-10080000D02*
X10200000Y-10920000D01*
X9780000Y-10500000D02*
X10620000Y-10500000D01*
D13*
X5283928Y-15468214D02*
X5283928Y-15168214D01*
X5355357Y-15168214D01*
X5398214Y-15182500D01*
X5426786Y-15211071D01*
X5441071Y-15239643D01*
X5455357Y-15296786D01*
X5455357Y-15339643D01*
X5441071Y-15396786D01*
X5426786Y-15425357D01*
X5398214Y-15453929D01*
X5355357Y-15468214D01*
X5283928Y-15468214D01*
X5583928Y-15468214D02*
X5583928Y-15268214D01*
X5583928Y-15325357D02*
X5598214Y-15296786D01*
X5612500Y-15282500D01*
X5641071Y-15268214D01*
X5669643Y-15268214D01*
X5769643Y-15468214D02*
X5769643Y-15268214D01*
X5769643Y-15168214D02*
X5755357Y-15182500D01*
X5769643Y-15196786D01*
X5783928Y-15182500D01*
X5769643Y-15168214D01*
X5769643Y-15196786D01*
X5955357Y-15468214D02*
X5926786Y-15453929D01*
X5912500Y-15425357D01*
X5912500Y-15168214D01*
X6112500Y-15468214D02*
X6083928Y-15453929D01*
X6069643Y-15425357D01*
X6069643Y-15168214D01*
X6455357Y-15468214D02*
X6455357Y-15168214D01*
X6555357Y-15382500D01*
X6655357Y-15168214D01*
X6655357Y-15468214D01*
X6926786Y-15468214D02*
X6926786Y-15311071D01*
X6912500Y-15282500D01*
X6883928Y-15268214D01*
X6826786Y-15268214D01*
X6798214Y-15282500D01*
X6926786Y-15453929D02*
X6898214Y-15468214D01*
X6826786Y-15468214D01*
X6798214Y-15453929D01*
X6783928Y-15425357D01*
X6783928Y-15396786D01*
X6798214Y-15368214D01*
X6826786Y-15353929D01*
X6898214Y-15353929D01*
X6926786Y-15339643D01*
X7069643Y-15268214D02*
X7069643Y-15568214D01*
X7069643Y-15282500D02*
X7098214Y-15268214D01*
X7155357Y-15268214D01*
X7183928Y-15282500D01*
X7198214Y-15296786D01*
X7212500Y-15325357D01*
X7212500Y-15411071D01*
X7198214Y-15439643D01*
X7183928Y-15453929D01*
X7155357Y-15468214D01*
X7098214Y-15468214D01*
X7069643Y-15453929D01*
X7341071Y-15439643D02*
X7355357Y-15453929D01*
X7341071Y-15468214D01*
X7326786Y-15453929D01*
X7341071Y-15439643D01*
X7341071Y-15468214D01*
X7341071Y-15282500D02*
X7355357Y-15296786D01*
X7341071Y-15311071D01*
X7326786Y-15296786D01*
X7341071Y-15282500D01*
X7341071Y-15311071D01*
X4897500Y-15912500D02*
X4997500Y-16012500D01*
X4997500Y-15912500D02*
X4897500Y-16012500D01*
X5441071Y-16098214D02*
X5269643Y-16098214D01*
X5355357Y-16098214D02*
X5355357Y-15798214D01*
X5326786Y-15841071D01*
X5298214Y-15869643D01*
X5269643Y-15883929D01*
X5569643Y-16069643D02*
X5583928Y-16083929D01*
X5569643Y-16098214D01*
X5555357Y-16083929D01*
X5569643Y-16069643D01*
X5569643Y-16098214D01*
X5769643Y-15798214D02*
X5798214Y-15798214D01*
X5826786Y-15812500D01*
X5841071Y-15826786D01*
X5855357Y-15855357D01*
X5869643Y-15912500D01*
X5869643Y-15983929D01*
X5855357Y-16041071D01*
X5841071Y-16069643D01*
X5826786Y-16083929D01*
X5798214Y-16098214D01*
X5769643Y-16098214D01*
X5741071Y-16083929D01*
X5726786Y-16069643D01*
X5712500Y-16041071D01*
X5698214Y-15983929D01*
X5698214Y-15912500D01*
X5712500Y-15855357D01*
X5726786Y-15826786D01*
X5741071Y-15812500D01*
X5769643Y-15798214D01*
X6055357Y-15798214D02*
X6083928Y-15798214D01*
X6112500Y-15812500D01*
X6126786Y-15826786D01*
X6141071Y-15855357D01*
X6155357Y-15912500D01*
X6155357Y-15983929D01*
X6141071Y-16041071D01*
X6126786Y-16069643D01*
X6112500Y-16083929D01*
X6083928Y-16098214D01*
X6055357Y-16098214D01*
X6026786Y-16083929D01*
X6012500Y-16069643D01*
X5998214Y-16041071D01*
X5983928Y-15983929D01*
X5983928Y-15912500D01*
X5998214Y-15855357D01*
X6012500Y-15826786D01*
X6026786Y-15812500D01*
X6055357Y-15798214D01*
X6283928Y-16098214D02*
X6283928Y-15898214D01*
X6283928Y-15926786D02*
X6298214Y-15912500D01*
X6326786Y-15898214D01*
X6369643Y-15898214D01*
X6398214Y-15912500D01*
X6412500Y-15941071D01*
X6412500Y-16098214D01*
X6412500Y-15941071D02*
X6426786Y-15912500D01*
X6455357Y-15898214D01*
X6498214Y-15898214D01*
X6526786Y-15912500D01*
X6541071Y-15941071D01*
X6541071Y-16098214D01*
X6683928Y-16098214D02*
X6683928Y-15898214D01*
X6683928Y-15926786D02*
X6698214Y-15912500D01*
X6726786Y-15898214D01*
X6769643Y-15898214D01*
X6798214Y-15912500D01*
X6812500Y-15941071D01*
X6812500Y-16098214D01*
X6812500Y-15941071D02*
X6826786Y-15912500D01*
X6855357Y-15898214D01*
X6898214Y-15898214D01*
X6926786Y-15912500D01*
X6941071Y-15941071D01*
X6941071Y-16098214D01*
X7526786Y-15783929D02*
X7269643Y-16169643D01*
X7912500Y-15798214D02*
X7941071Y-15798214D01*
X7969643Y-15812500D01*
X7983928Y-15826786D01*
X7998214Y-15855357D01*
X8012500Y-15912500D01*
X8012500Y-15983929D01*
X7998214Y-16041071D01*
X7983928Y-16069643D01*
X7969643Y-16083929D01*
X7941071Y-16098214D01*
X7912500Y-16098214D01*
X7883928Y-16083929D01*
X7869643Y-16069643D01*
X7855357Y-16041071D01*
X7841071Y-15983929D01*
X7841071Y-15912500D01*
X7855357Y-15855357D01*
X7869643Y-15826786D01*
X7883928Y-15812500D01*
X7912500Y-15798214D01*
X8141071Y-16069643D02*
X8155357Y-16083929D01*
X8141071Y-16098214D01*
X8126786Y-16083929D01*
X8141071Y-16069643D01*
X8141071Y-16098214D01*
X8341071Y-15798214D02*
X8369643Y-15798214D01*
X8398214Y-15812500D01*
X8412500Y-15826786D01*
X8426786Y-15855357D01*
X8441071Y-15912500D01*
X8441071Y-15983929D01*
X8426786Y-16041071D01*
X8412500Y-16069643D01*
X8398214Y-16083929D01*
X8369643Y-16098214D01*
X8341071Y-16098214D01*
X8312500Y-16083929D01*
X8298214Y-16069643D01*
X8283928Y-16041071D01*
X8269643Y-15983929D01*
X8269643Y-15912500D01*
X8283928Y-15855357D01*
X8298214Y-15826786D01*
X8312500Y-15812500D01*
X8341071Y-15798214D01*
X8541071Y-15798214D02*
X8726786Y-15798214D01*
X8626786Y-15912500D01*
X8669643Y-15912500D01*
X8698214Y-15926786D01*
X8712500Y-15941071D01*
X8726786Y-15969643D01*
X8726786Y-16041071D01*
X8712500Y-16069643D01*
X8698214Y-16083929D01*
X8669643Y-16098214D01*
X8583928Y-16098214D01*
X8555357Y-16083929D01*
X8541071Y-16069643D01*
X8869643Y-16098214D02*
X8926786Y-16098214D01*
X8955357Y-16083929D01*
X8969643Y-16069643D01*
X8998214Y-16026786D01*
X9012500Y-15969643D01*
X9012500Y-15855357D01*
X8998214Y-15826786D01*
X8983928Y-15812500D01*
X8955357Y-15798214D01*
X8898214Y-15798214D01*
X8869643Y-15812500D01*
X8855357Y-15826786D01*
X8841071Y-15855357D01*
X8841071Y-15926786D01*
X8855357Y-15955357D01*
X8869643Y-15969643D01*
X8898214Y-15983929D01*
X8955357Y-15983929D01*
X8983928Y-15969643D01*
X8998214Y-15955357D01*
X9012500Y-15926786D01*
X9126786Y-15798214D02*
X9126786Y-15855357D01*
X9241071Y-15798214D02*
X9241071Y-15855357D01*
X9683928Y-16212500D02*
X9669643Y-16198214D01*
X9641071Y-16155357D01*
X9626786Y-16126786D01*
X9612500Y-16083929D01*
X9598214Y-16012500D01*
X9598214Y-15955357D01*
X9612500Y-15883929D01*
X9626786Y-15841071D01*
X9641071Y-15812500D01*
X9669643Y-15769643D01*
X9683928Y-15755357D01*
X9926786Y-15798214D02*
X9869643Y-15798214D01*
X9841071Y-15812500D01*
X9826786Y-15826786D01*
X9798214Y-15869643D01*
X9783928Y-15926786D01*
X9783928Y-16041071D01*
X9798214Y-16069643D01*
X9812500Y-16083929D01*
X9841071Y-16098214D01*
X9898214Y-16098214D01*
X9926786Y-16083929D01*
X9941071Y-16069643D01*
X9955357Y-16041071D01*
X9955357Y-15969643D01*
X9941071Y-15941071D01*
X9926786Y-15926786D01*
X9898214Y-15912500D01*
X9841071Y-15912500D01*
X9812500Y-15926786D01*
X9798214Y-15941071D01*
X9783928Y-15969643D01*
X10312500Y-16098214D02*
X10312500Y-15798214D01*
X10441071Y-16098214D02*
X10441071Y-15941071D01*
X10426786Y-15912500D01*
X10398214Y-15898214D01*
X10355357Y-15898214D01*
X10326786Y-15912500D01*
X10312500Y-15926786D01*
X10626786Y-16098214D02*
X10598214Y-16083929D01*
X10583928Y-16069643D01*
X10569643Y-16041071D01*
X10569643Y-15955357D01*
X10583928Y-15926786D01*
X10598214Y-15912500D01*
X10626786Y-15898214D01*
X10669643Y-15898214D01*
X10698214Y-15912500D01*
X10712500Y-15926786D01*
X10726786Y-15955357D01*
X10726786Y-16041071D01*
X10712500Y-16069643D01*
X10698214Y-16083929D01*
X10669643Y-16098214D01*
X10626786Y-16098214D01*
X10898214Y-16098214D02*
X10869643Y-16083929D01*
X10855357Y-16055357D01*
X10855357Y-15798214D01*
X11126786Y-16083929D02*
X11098214Y-16098214D01*
X11041071Y-16098214D01*
X11012500Y-16083929D01*
X10998214Y-16055357D01*
X10998214Y-15941071D01*
X11012500Y-15912500D01*
X11041071Y-15898214D01*
X11098214Y-15898214D01*
X11126786Y-15912500D01*
X11141071Y-15941071D01*
X11141071Y-15969643D01*
X10998214Y-15998214D01*
X11255357Y-16083929D02*
X11283928Y-16098214D01*
X11341071Y-16098214D01*
X11369643Y-16083929D01*
X11383928Y-16055357D01*
X11383928Y-16041071D01*
X11369643Y-16012500D01*
X11341071Y-15998214D01*
X11298214Y-15998214D01*
X11269643Y-15983929D01*
X11255357Y-15955357D01*
X11255357Y-15941071D01*
X11269643Y-15912500D01*
X11298214Y-15898214D01*
X11341071Y-15898214D01*
X11369643Y-15912500D01*
X11483928Y-16212500D02*
X11498214Y-16198214D01*
X11526786Y-16155357D01*
X11541071Y-16126786D01*
X11555357Y-16083929D01*
X11569643Y-16012500D01*
X11569643Y-15955357D01*
X11555357Y-15883929D01*
X11541071Y-15841071D01*
X11526786Y-15812500D01*
X11498214Y-15769643D01*
X11483928Y-15755357D01*
X12026786Y-16212500D02*
X12012500Y-16198214D01*
X11983928Y-16155357D01*
X11969643Y-16126786D01*
X11955357Y-16083929D01*
X11941071Y-16012500D01*
X11941071Y-15955357D01*
X11955357Y-15883929D01*
X11969643Y-15841071D01*
X11983928Y-15812500D01*
X12012500Y-15769643D01*
X12026786Y-15755357D01*
X12141071Y-15898214D02*
X12141071Y-16098214D01*
X12141071Y-15926786D02*
X12155357Y-15912500D01*
X12183928Y-15898214D01*
X12226786Y-15898214D01*
X12255357Y-15912500D01*
X12269643Y-15941071D01*
X12269643Y-16098214D01*
X12455357Y-16098214D02*
X12426786Y-16083929D01*
X12412500Y-16069643D01*
X12398214Y-16041071D01*
X12398214Y-15955357D01*
X12412500Y-15926786D01*
X12426786Y-15912500D01*
X12455357Y-15898214D01*
X12498214Y-15898214D01*
X12526786Y-15912500D01*
X12541071Y-15926786D01*
X12555357Y-15955357D01*
X12555357Y-16041071D01*
X12541071Y-16069643D01*
X12526786Y-16083929D01*
X12498214Y-16098214D01*
X12455357Y-16098214D01*
X12641071Y-15898214D02*
X12755357Y-15898214D01*
X12683928Y-15798214D02*
X12683928Y-16055357D01*
X12698214Y-16083929D01*
X12726786Y-16098214D01*
X12755357Y-16098214D01*
X13083928Y-15898214D02*
X13083928Y-16198214D01*
X13083928Y-15912500D02*
X13112500Y-15898214D01*
X13169643Y-15898214D01*
X13198214Y-15912500D01*
X13212500Y-15926786D01*
X13226786Y-15955357D01*
X13226786Y-16041071D01*
X13212500Y-16069643D01*
X13198214Y-16083929D01*
X13169643Y-16098214D01*
X13112500Y-16098214D01*
X13083928Y-16083929D01*
X13398214Y-16098214D02*
X13369643Y-16083929D01*
X13355357Y-16055357D01*
X13355357Y-15798214D01*
X13641071Y-16098214D02*
X13641071Y-15941071D01*
X13626786Y-15912500D01*
X13598214Y-15898214D01*
X13541071Y-15898214D01*
X13512500Y-15912500D01*
X13641071Y-16083929D02*
X13612500Y-16098214D01*
X13541071Y-16098214D01*
X13512500Y-16083929D01*
X13498214Y-16055357D01*
X13498214Y-16026786D01*
X13512500Y-15998214D01*
X13541071Y-15983929D01*
X13612500Y-15983929D01*
X13641071Y-15969643D01*
X13741071Y-15898214D02*
X13855357Y-15898214D01*
X13783928Y-15798214D02*
X13783928Y-16055357D01*
X13798214Y-16083929D01*
X13826786Y-16098214D01*
X13855357Y-16098214D01*
X14069643Y-16083929D02*
X14041071Y-16098214D01*
X13983928Y-16098214D01*
X13955357Y-16083929D01*
X13941071Y-16055357D01*
X13941071Y-15941071D01*
X13955357Y-15912500D01*
X13983928Y-15898214D01*
X14041071Y-15898214D01*
X14069643Y-15912500D01*
X14083928Y-15941071D01*
X14083928Y-15969643D01*
X13941071Y-15998214D01*
X14341071Y-16098214D02*
X14341071Y-15798214D01*
X14341071Y-16083929D02*
X14312500Y-16098214D01*
X14255357Y-16098214D01*
X14226786Y-16083929D01*
X14212500Y-16069643D01*
X14198214Y-16041071D01*
X14198214Y-15955357D01*
X14212500Y-15926786D01*
X14226786Y-15912500D01*
X14255357Y-15898214D01*
X14312500Y-15898214D01*
X14341071Y-15912500D01*
X14455357Y-16212500D02*
X14469643Y-16198214D01*
X14498214Y-16155357D01*
X14512500Y-16126786D01*
X14526786Y-16083929D01*
X14541071Y-16012500D01*
X14541071Y-15955357D01*
X14526786Y-15883929D01*
X14512500Y-15841071D01*
X14498214Y-15812500D01*
X14469643Y-15769643D01*
X14455357Y-15755357D01*
X4997500Y-16358500D02*
G75*
G03*
X4997500Y-16358500I-100000J0D01*
G01*
X5269643Y-16222786D02*
X5283928Y-16208500D01*
X5312500Y-16194214D01*
X5383928Y-16194214D01*
X5412500Y-16208500D01*
X5426786Y-16222786D01*
X5441071Y-16251357D01*
X5441071Y-16279929D01*
X5426786Y-16322786D01*
X5255357Y-16494214D01*
X5441071Y-16494214D01*
X5569643Y-16465643D02*
X5583928Y-16479929D01*
X5569643Y-16494214D01*
X5555357Y-16479929D01*
X5569643Y-16465643D01*
X5569643Y-16494214D01*
X5769643Y-16194214D02*
X5798214Y-16194214D01*
X5826786Y-16208500D01*
X5841071Y-16222786D01*
X5855357Y-16251357D01*
X5869643Y-16308500D01*
X5869643Y-16379929D01*
X5855357Y-16437071D01*
X5841071Y-16465643D01*
X5826786Y-16479929D01*
X5798214Y-16494214D01*
X5769643Y-16494214D01*
X5741071Y-16479929D01*
X5726786Y-16465643D01*
X5712500Y-16437071D01*
X5698214Y-16379929D01*
X5698214Y-16308500D01*
X5712500Y-16251357D01*
X5726786Y-16222786D01*
X5741071Y-16208500D01*
X5769643Y-16194214D01*
X6055357Y-16194214D02*
X6083928Y-16194214D01*
X6112500Y-16208500D01*
X6126786Y-16222786D01*
X6141071Y-16251357D01*
X6155357Y-16308500D01*
X6155357Y-16379929D01*
X6141071Y-16437071D01*
X6126786Y-16465643D01*
X6112500Y-16479929D01*
X6083928Y-16494214D01*
X6055357Y-16494214D01*
X6026786Y-16479929D01*
X6012500Y-16465643D01*
X5998214Y-16437071D01*
X5983928Y-16379929D01*
X5983928Y-16308500D01*
X5998214Y-16251357D01*
X6012500Y-16222786D01*
X6026786Y-16208500D01*
X6055357Y-16194214D01*
X6283928Y-16494214D02*
X6283928Y-16294214D01*
X6283928Y-16322786D02*
X6298214Y-16308500D01*
X6326786Y-16294214D01*
X6369643Y-16294214D01*
X6398214Y-16308500D01*
X6412500Y-16337071D01*
X6412500Y-16494214D01*
X6412500Y-16337071D02*
X6426786Y-16308500D01*
X6455357Y-16294214D01*
X6498214Y-16294214D01*
X6526786Y-16308500D01*
X6541071Y-16337071D01*
X6541071Y-16494214D01*
X6683928Y-16494214D02*
X6683928Y-16294214D01*
X6683928Y-16322786D02*
X6698214Y-16308500D01*
X6726786Y-16294214D01*
X6769643Y-16294214D01*
X6798214Y-16308500D01*
X6812500Y-16337071D01*
X6812500Y-16494214D01*
X6812500Y-16337071D02*
X6826786Y-16308500D01*
X6855357Y-16294214D01*
X6898214Y-16294214D01*
X6926786Y-16308500D01*
X6941071Y-16337071D01*
X6941071Y-16494214D01*
X7526786Y-16179929D02*
X7269643Y-16565643D01*
X7912500Y-16194214D02*
X7941071Y-16194214D01*
X7969643Y-16208500D01*
X7983928Y-16222786D01*
X7998214Y-16251357D01*
X8012500Y-16308500D01*
X8012500Y-16379929D01*
X7998214Y-16437071D01*
X7983928Y-16465643D01*
X7969643Y-16479929D01*
X7941071Y-16494214D01*
X7912500Y-16494214D01*
X7883928Y-16479929D01*
X7869643Y-16465643D01*
X7855357Y-16437071D01*
X7841071Y-16379929D01*
X7841071Y-16308500D01*
X7855357Y-16251357D01*
X7869643Y-16222786D01*
X7883928Y-16208500D01*
X7912500Y-16194214D01*
X8141071Y-16465643D02*
X8155357Y-16479929D01*
X8141071Y-16494214D01*
X8126786Y-16479929D01*
X8141071Y-16465643D01*
X8141071Y-16494214D01*
X8341071Y-16194214D02*
X8369643Y-16194214D01*
X8398214Y-16208500D01*
X8412500Y-16222786D01*
X8426786Y-16251357D01*
X8441071Y-16308500D01*
X8441071Y-16379929D01*
X8426786Y-16437071D01*
X8412500Y-16465643D01*
X8398214Y-16479929D01*
X8369643Y-16494214D01*
X8341071Y-16494214D01*
X8312500Y-16479929D01*
X8298214Y-16465643D01*
X8283928Y-16437071D01*
X8269643Y-16379929D01*
X8269643Y-16308500D01*
X8283928Y-16251357D01*
X8298214Y-16222786D01*
X8312500Y-16208500D01*
X8341071Y-16194214D01*
X8541071Y-16194214D02*
X8741071Y-16194214D01*
X8612500Y-16494214D01*
X8869643Y-16494214D02*
X8926786Y-16494214D01*
X8955357Y-16479929D01*
X8969643Y-16465643D01*
X8998214Y-16422786D01*
X9012500Y-16365643D01*
X9012500Y-16251357D01*
X8998214Y-16222786D01*
X8983928Y-16208500D01*
X8955357Y-16194214D01*
X8898214Y-16194214D01*
X8869643Y-16208500D01*
X8855357Y-16222786D01*
X8841071Y-16251357D01*
X8841071Y-16322786D01*
X8855357Y-16351357D01*
X8869643Y-16365643D01*
X8898214Y-16379929D01*
X8955357Y-16379929D01*
X8983928Y-16365643D01*
X8998214Y-16351357D01*
X9012500Y-16322786D01*
X9126786Y-16194214D02*
X9126786Y-16251357D01*
X9241071Y-16194214D02*
X9241071Y-16251357D01*
X9683928Y-16608500D02*
X9669643Y-16594214D01*
X9641071Y-16551357D01*
X9626786Y-16522786D01*
X9612500Y-16479929D01*
X9598214Y-16408500D01*
X9598214Y-16351357D01*
X9612500Y-16279929D01*
X9626786Y-16237071D01*
X9641071Y-16208500D01*
X9669643Y-16165643D01*
X9683928Y-16151357D01*
X9855357Y-16194214D02*
X9883928Y-16194214D01*
X9912500Y-16208500D01*
X9926786Y-16222786D01*
X9941071Y-16251357D01*
X9955357Y-16308500D01*
X9955357Y-16379929D01*
X9941071Y-16437071D01*
X9926786Y-16465643D01*
X9912500Y-16479929D01*
X9883928Y-16494214D01*
X9855357Y-16494214D01*
X9826786Y-16479929D01*
X9812500Y-16465643D01*
X9798214Y-16437071D01*
X9783928Y-16379929D01*
X9783928Y-16308500D01*
X9798214Y-16251357D01*
X9812500Y-16222786D01*
X9826786Y-16208500D01*
X9855357Y-16194214D01*
X10312500Y-16494214D02*
X10312500Y-16194214D01*
X10441071Y-16494214D02*
X10441071Y-16337071D01*
X10426786Y-16308500D01*
X10398214Y-16294214D01*
X10355357Y-16294214D01*
X10326786Y-16308500D01*
X10312500Y-16322786D01*
X10626786Y-16494214D02*
X10598214Y-16479929D01*
X10583928Y-16465643D01*
X10569643Y-16437071D01*
X10569643Y-16351357D01*
X10583928Y-16322786D01*
X10598214Y-16308500D01*
X10626786Y-16294214D01*
X10669643Y-16294214D01*
X10698214Y-16308500D01*
X10712500Y-16322786D01*
X10726786Y-16351357D01*
X10726786Y-16437071D01*
X10712500Y-16465643D01*
X10698214Y-16479929D01*
X10669643Y-16494214D01*
X10626786Y-16494214D01*
X10898214Y-16494214D02*
X10869643Y-16479929D01*
X10855357Y-16451357D01*
X10855357Y-16194214D01*
X11126786Y-16479929D02*
X11098214Y-16494214D01*
X11041071Y-16494214D01*
X11012500Y-16479929D01*
X10998214Y-16451357D01*
X10998214Y-16337071D01*
X11012500Y-16308500D01*
X11041071Y-16294214D01*
X11098214Y-16294214D01*
X11126786Y-16308500D01*
X11141071Y-16337071D01*
X11141071Y-16365643D01*
X10998214Y-16394214D01*
X11255357Y-16479929D02*
X11283928Y-16494214D01*
X11341071Y-16494214D01*
X11369643Y-16479929D01*
X11383928Y-16451357D01*
X11383928Y-16437071D01*
X11369643Y-16408500D01*
X11341071Y-16394214D01*
X11298214Y-16394214D01*
X11269643Y-16379929D01*
X11255357Y-16351357D01*
X11255357Y-16337071D01*
X11269643Y-16308500D01*
X11298214Y-16294214D01*
X11341071Y-16294214D01*
X11369643Y-16308500D01*
X11741071Y-16379929D02*
X11969643Y-16379929D01*
X11855357Y-16494214D02*
X11855357Y-16265643D01*
X12469643Y-16294214D02*
X12469643Y-16494214D01*
X12398214Y-16179929D02*
X12326786Y-16394214D01*
X12512500Y-16394214D01*
X12841071Y-16479929D02*
X12869643Y-16494214D01*
X12926786Y-16494214D01*
X12955357Y-16479929D01*
X12969643Y-16451357D01*
X12969643Y-16437071D01*
X12955357Y-16408500D01*
X12926786Y-16394214D01*
X12883928Y-16394214D01*
X12855357Y-16379929D01*
X12841071Y-16351357D01*
X12841071Y-16337071D01*
X12855357Y-16308500D01*
X12883928Y-16294214D01*
X12926786Y-16294214D01*
X12955357Y-16308500D01*
X13141071Y-16494214D02*
X13112500Y-16479929D01*
X13098214Y-16451357D01*
X13098214Y-16194214D01*
X13298214Y-16494214D02*
X13269643Y-16479929D01*
X13255357Y-16465643D01*
X13241071Y-16437071D01*
X13241071Y-16351357D01*
X13255357Y-16322786D01*
X13269643Y-16308500D01*
X13298214Y-16294214D01*
X13341071Y-16294214D01*
X13369643Y-16308500D01*
X13383928Y-16322786D01*
X13398214Y-16351357D01*
X13398214Y-16437071D01*
X13383928Y-16465643D01*
X13369643Y-16479929D01*
X13341071Y-16494214D01*
X13298214Y-16494214D01*
X13483928Y-16294214D02*
X13598214Y-16294214D01*
X13526786Y-16194214D02*
X13526786Y-16451357D01*
X13541071Y-16479929D01*
X13569643Y-16494214D01*
X13598214Y-16494214D01*
X13683928Y-16479929D02*
X13712500Y-16494214D01*
X13769643Y-16494214D01*
X13798214Y-16479929D01*
X13812500Y-16451357D01*
X13812500Y-16437071D01*
X13798214Y-16408500D01*
X13769643Y-16394214D01*
X13726786Y-16394214D01*
X13698214Y-16379929D01*
X13683928Y-16351357D01*
X13683928Y-16337071D01*
X13698214Y-16308500D01*
X13726786Y-16294214D01*
X13769643Y-16294214D01*
X13798214Y-16308500D01*
X13912500Y-16608500D02*
X13926786Y-16594214D01*
X13955357Y-16551357D01*
X13969643Y-16522786D01*
X13983928Y-16479929D01*
X13998214Y-16408500D01*
X13998214Y-16351357D01*
X13983928Y-16279929D01*
X13969643Y-16237071D01*
X13955357Y-16208500D01*
X13926786Y-16165643D01*
X13912500Y-16151357D01*
X14455357Y-16608500D02*
X14441071Y-16594214D01*
X14412500Y-16551357D01*
X14398214Y-16522786D01*
X14383928Y-16479929D01*
X14369643Y-16408500D01*
X14369643Y-16351357D01*
X14383928Y-16279929D01*
X14398214Y-16237071D01*
X14412500Y-16208500D01*
X14441071Y-16165643D01*
X14455357Y-16151357D01*
X14569643Y-16294214D02*
X14569643Y-16494214D01*
X14569643Y-16322786D02*
X14583928Y-16308500D01*
X14612500Y-16294214D01*
X14655357Y-16294214D01*
X14683928Y-16308500D01*
X14698214Y-16337071D01*
X14698214Y-16494214D01*
X14883928Y-16494214D02*
X14855357Y-16479929D01*
X14841071Y-16465643D01*
X14826786Y-16437071D01*
X14826786Y-16351357D01*
X14841071Y-16322786D01*
X14855357Y-16308500D01*
X14883928Y-16294214D01*
X14926786Y-16294214D01*
X14955357Y-16308500D01*
X14969643Y-16322786D01*
X14983928Y-16351357D01*
X14983928Y-16437071D01*
X14969643Y-16465643D01*
X14955357Y-16479929D01*
X14926786Y-16494214D01*
X14883928Y-16494214D01*
X15069643Y-16294214D02*
X15183928Y-16294214D01*
X15112500Y-16194214D02*
X15112500Y-16451357D01*
X15126786Y-16479929D01*
X15155357Y-16494214D01*
X15183928Y-16494214D01*
X15512500Y-16294214D02*
X15512500Y-16594214D01*
X15512500Y-16308500D02*
X15541071Y-16294214D01*
X15598214Y-16294214D01*
X15626786Y-16308500D01*
X15641071Y-16322786D01*
X15655357Y-16351357D01*
X15655357Y-16437071D01*
X15641071Y-16465643D01*
X15626786Y-16479929D01*
X15598214Y-16494214D01*
X15541071Y-16494214D01*
X15512500Y-16479929D01*
X15826786Y-16494214D02*
X15798214Y-16479929D01*
X15783928Y-16451357D01*
X15783928Y-16194214D01*
X16069643Y-16494214D02*
X16069643Y-16337071D01*
X16055357Y-16308500D01*
X16026786Y-16294214D01*
X15969643Y-16294214D01*
X15941071Y-16308500D01*
X16069643Y-16479929D02*
X16041071Y-16494214D01*
X15969643Y-16494214D01*
X15941071Y-16479929D01*
X15926786Y-16451357D01*
X15926786Y-16422786D01*
X15941071Y-16394214D01*
X15969643Y-16379929D01*
X16041071Y-16379929D01*
X16069643Y-16365643D01*
X16169643Y-16294214D02*
X16283928Y-16294214D01*
X16212500Y-16194214D02*
X16212500Y-16451357D01*
X16226786Y-16479929D01*
X16255357Y-16494214D01*
X16283928Y-16494214D01*
X16498214Y-16479929D02*
X16469643Y-16494214D01*
X16412500Y-16494214D01*
X16383928Y-16479929D01*
X16369643Y-16451357D01*
X16369643Y-16337071D01*
X16383928Y-16308500D01*
X16412500Y-16294214D01*
X16469643Y-16294214D01*
X16498214Y-16308500D01*
X16512500Y-16337071D01*
X16512500Y-16365643D01*
X16369643Y-16394214D01*
X16769643Y-16494214D02*
X16769643Y-16194214D01*
X16769643Y-16479929D02*
X16741071Y-16494214D01*
X16683928Y-16494214D01*
X16655357Y-16479929D01*
X16641071Y-16465643D01*
X16626786Y-16437071D01*
X16626786Y-16351357D01*
X16641071Y-16322786D01*
X16655357Y-16308500D01*
X16683928Y-16294214D01*
X16741071Y-16294214D01*
X16769643Y-16308500D01*
X16883928Y-16608500D02*
X16898214Y-16594214D01*
X16926786Y-16551357D01*
X16941071Y-16522786D01*
X16955357Y-16479929D01*
X16969643Y-16408500D01*
X16969643Y-16351357D01*
X16955357Y-16279929D01*
X16941071Y-16237071D01*
X16926786Y-16208500D01*
X16898214Y-16165643D01*
X16883928Y-16151357D01*
X4577500Y-16334500D02*
X4577500Y-17174500D01*
X4157500Y-16754500D02*
X4997500Y-16754500D01*
X5326786Y-16718786D02*
X5298214Y-16704500D01*
X5283928Y-16690214D01*
X5269643Y-16661643D01*
X5269643Y-16647357D01*
X5283928Y-16618786D01*
X5298214Y-16604500D01*
X5326786Y-16590214D01*
X5383928Y-16590214D01*
X5412500Y-16604500D01*
X5426786Y-16618786D01*
X5441071Y-16647357D01*
X5441071Y-16661643D01*
X5426786Y-16690214D01*
X5412500Y-16704500D01*
X5383928Y-16718786D01*
X5326786Y-16718786D01*
X5298214Y-16733071D01*
X5283928Y-16747357D01*
X5269643Y-16775929D01*
X5269643Y-16833072D01*
X5283928Y-16861643D01*
X5298214Y-16875929D01*
X5326786Y-16890214D01*
X5383928Y-16890214D01*
X5412500Y-16875929D01*
X5426786Y-16861643D01*
X5441071Y-16833072D01*
X5441071Y-16775929D01*
X5426786Y-16747357D01*
X5412500Y-16733071D01*
X5383928Y-16718786D01*
X5569643Y-16861643D02*
X5583928Y-16875929D01*
X5569643Y-16890214D01*
X5555357Y-16875929D01*
X5569643Y-16861643D01*
X5569643Y-16890214D01*
X5841071Y-16690214D02*
X5841071Y-16890214D01*
X5769643Y-16575929D02*
X5698214Y-16790214D01*
X5883928Y-16790214D01*
X6055357Y-16590214D02*
X6083928Y-16590214D01*
X6112500Y-16604500D01*
X6126786Y-16618786D01*
X6141071Y-16647357D01*
X6155357Y-16704500D01*
X6155357Y-16775929D01*
X6141071Y-16833072D01*
X6126786Y-16861643D01*
X6112500Y-16875929D01*
X6083928Y-16890214D01*
X6055357Y-16890214D01*
X6026786Y-16875929D01*
X6012500Y-16861643D01*
X5998214Y-16833072D01*
X5983928Y-16775929D01*
X5983928Y-16704500D01*
X5998214Y-16647357D01*
X6012500Y-16618786D01*
X6026786Y-16604500D01*
X6055357Y-16590214D01*
X6283928Y-16890214D02*
X6283928Y-16690214D01*
X6283928Y-16718786D02*
X6298214Y-16704500D01*
X6326786Y-16690214D01*
X6369643Y-16690214D01*
X6398214Y-16704500D01*
X6412500Y-16733071D01*
X6412500Y-16890214D01*
X6412500Y-16733071D02*
X6426786Y-16704500D01*
X6455357Y-16690214D01*
X6498214Y-16690214D01*
X6526786Y-16704500D01*
X6541071Y-16733071D01*
X6541071Y-16890214D01*
X6683928Y-16890214D02*
X6683928Y-16690214D01*
X6683928Y-16718786D02*
X6698214Y-16704500D01*
X6726786Y-16690214D01*
X6769643Y-16690214D01*
X6798214Y-16704500D01*
X6812500Y-16733071D01*
X6812500Y-16890214D01*
X6812500Y-16733071D02*
X6826786Y-16704500D01*
X6855357Y-16690214D01*
X6898214Y-16690214D01*
X6926786Y-16704500D01*
X6941071Y-16733071D01*
X6941071Y-16890214D01*
X7526786Y-16575929D02*
X7269643Y-16961643D01*
X7912500Y-16590214D02*
X7941071Y-16590214D01*
X7969643Y-16604500D01*
X7983928Y-16618786D01*
X7998214Y-16647357D01*
X8012500Y-16704500D01*
X8012500Y-16775929D01*
X7998214Y-16833072D01*
X7983928Y-16861643D01*
X7969643Y-16875929D01*
X7941071Y-16890214D01*
X7912500Y-16890214D01*
X7883928Y-16875929D01*
X7869643Y-16861643D01*
X7855357Y-16833072D01*
X7841071Y-16775929D01*
X7841071Y-16704500D01*
X7855357Y-16647357D01*
X7869643Y-16618786D01*
X7883928Y-16604500D01*
X7912500Y-16590214D01*
X8141071Y-16861643D02*
X8155357Y-16875929D01*
X8141071Y-16890214D01*
X8126786Y-16875929D01*
X8141071Y-16861643D01*
X8141071Y-16890214D01*
X8255357Y-16590214D02*
X8441071Y-16590214D01*
X8341071Y-16704500D01*
X8383928Y-16704500D01*
X8412500Y-16718786D01*
X8426786Y-16733071D01*
X8441071Y-16761643D01*
X8441071Y-16833072D01*
X8426786Y-16861643D01*
X8412500Y-16875929D01*
X8383928Y-16890214D01*
X8298214Y-16890214D01*
X8269643Y-16875929D01*
X8255357Y-16861643D01*
X8541071Y-16590214D02*
X8726786Y-16590214D01*
X8626786Y-16704500D01*
X8669643Y-16704500D01*
X8698214Y-16718786D01*
X8712500Y-16733071D01*
X8726786Y-16761643D01*
X8726786Y-16833072D01*
X8712500Y-16861643D01*
X8698214Y-16875929D01*
X8669643Y-16890214D01*
X8583928Y-16890214D01*
X8555357Y-16875929D01*
X8541071Y-16861643D01*
X9012500Y-16890214D02*
X8841071Y-16890214D01*
X8926786Y-16890214D02*
X8926786Y-16590214D01*
X8898214Y-16633071D01*
X8869643Y-16661643D01*
X8841071Y-16675929D01*
X9126786Y-16590214D02*
X9126786Y-16647357D01*
X9241071Y-16590214D02*
X9241071Y-16647357D01*
X9683928Y-17004500D02*
X9669643Y-16990214D01*
X9641071Y-16947357D01*
X9626786Y-16918786D01*
X9612500Y-16875929D01*
X9598214Y-16804500D01*
X9598214Y-16747357D01*
X9612500Y-16675929D01*
X9626786Y-16633071D01*
X9641071Y-16604500D01*
X9669643Y-16561643D01*
X9683928Y-16547357D01*
X9926786Y-16690214D02*
X9926786Y-16890214D01*
X9855357Y-16575929D02*
X9783928Y-16790214D01*
X9969643Y-16790214D01*
X10312500Y-16890214D02*
X10312500Y-16590214D01*
X10441071Y-16890214D02*
X10441071Y-16733071D01*
X10426786Y-16704500D01*
X10398214Y-16690214D01*
X10355357Y-16690214D01*
X10326786Y-16704500D01*
X10312500Y-16718786D01*
X10626786Y-16890214D02*
X10598214Y-16875929D01*
X10583928Y-16861643D01*
X10569643Y-16833072D01*
X10569643Y-16747357D01*
X10583928Y-16718786D01*
X10598214Y-16704500D01*
X10626786Y-16690214D01*
X10669643Y-16690214D01*
X10698214Y-16704500D01*
X10712500Y-16718786D01*
X10726786Y-16747357D01*
X10726786Y-16833072D01*
X10712500Y-16861643D01*
X10698214Y-16875929D01*
X10669643Y-16890214D01*
X10626786Y-16890214D01*
X10898214Y-16890214D02*
X10869643Y-16875929D01*
X10855357Y-16847357D01*
X10855357Y-16590214D01*
X11126786Y-16875929D02*
X11098214Y-16890214D01*
X11041071Y-16890214D01*
X11012500Y-16875929D01*
X10998214Y-16847357D01*
X10998214Y-16733071D01*
X11012500Y-16704500D01*
X11041071Y-16690214D01*
X11098214Y-16690214D01*
X11126786Y-16704500D01*
X11141071Y-16733071D01*
X11141071Y-16761643D01*
X10998214Y-16790214D01*
X11255357Y-16875929D02*
X11283928Y-16890214D01*
X11341071Y-16890214D01*
X11369643Y-16875929D01*
X11383928Y-16847357D01*
X11383928Y-16833072D01*
X11369643Y-16804500D01*
X11341071Y-16790214D01*
X11298214Y-16790214D01*
X11269643Y-16775929D01*
X11255357Y-16747357D01*
X11255357Y-16733071D01*
X11269643Y-16704500D01*
X11298214Y-16690214D01*
X11341071Y-16690214D01*
X11369643Y-16704500D01*
X11483928Y-17004500D02*
X11498214Y-16990214D01*
X11526786Y-16947357D01*
X11541071Y-16918786D01*
X11555357Y-16875929D01*
X11569643Y-16804500D01*
X11569643Y-16747357D01*
X11555357Y-16675929D01*
X11541071Y-16633071D01*
X11526786Y-16604500D01*
X11498214Y-16561643D01*
X11483928Y-16547357D01*
X12026786Y-17004500D02*
X12012500Y-16990214D01*
X11983928Y-16947357D01*
X11969643Y-16918786D01*
X11955357Y-16875929D01*
X11941071Y-16804500D01*
X11941071Y-16747357D01*
X11955357Y-16675929D01*
X11969643Y-16633071D01*
X11983928Y-16604500D01*
X12012500Y-16561643D01*
X12026786Y-16547357D01*
X12141071Y-16690214D02*
X12141071Y-16890214D01*
X12141071Y-16718786D02*
X12155357Y-16704500D01*
X12183928Y-16690214D01*
X12226786Y-16690214D01*
X12255357Y-16704500D01*
X12269643Y-16733071D01*
X12269643Y-16890214D01*
X12455357Y-16890214D02*
X12426786Y-16875929D01*
X12412500Y-16861643D01*
X12398214Y-16833072D01*
X12398214Y-16747357D01*
X12412500Y-16718786D01*
X12426786Y-16704500D01*
X12455357Y-16690214D01*
X12498214Y-16690214D01*
X12526786Y-16704500D01*
X12541071Y-16718786D01*
X12555357Y-16747357D01*
X12555357Y-16833072D01*
X12541071Y-16861643D01*
X12526786Y-16875929D01*
X12498214Y-16890214D01*
X12455357Y-16890214D01*
X12641071Y-16690214D02*
X12755357Y-16690214D01*
X12683928Y-16590214D02*
X12683928Y-16847357D01*
X12698214Y-16875929D01*
X12726786Y-16890214D01*
X12755357Y-16890214D01*
X13083928Y-16690214D02*
X13083928Y-16990214D01*
X13083928Y-16704500D02*
X13112500Y-16690214D01*
X13169643Y-16690214D01*
X13198214Y-16704500D01*
X13212500Y-16718786D01*
X13226786Y-16747357D01*
X13226786Y-16833072D01*
X13212500Y-16861643D01*
X13198214Y-16875929D01*
X13169643Y-16890214D01*
X13112500Y-16890214D01*
X13083928Y-16875929D01*
X13398214Y-16890214D02*
X13369643Y-16875929D01*
X13355357Y-16847357D01*
X13355357Y-16590214D01*
X13641071Y-16890214D02*
X13641071Y-16733071D01*
X13626786Y-16704500D01*
X13598214Y-16690214D01*
X13541071Y-16690214D01*
X13512500Y-16704500D01*
X13641071Y-16875929D02*
X13612500Y-16890214D01*
X13541071Y-16890214D01*
X13512500Y-16875929D01*
X13498214Y-16847357D01*
X13498214Y-16818786D01*
X13512500Y-16790214D01*
X13541071Y-16775929D01*
X13612500Y-16775929D01*
X13641071Y-16761643D01*
X13741071Y-16690214D02*
X13855357Y-16690214D01*
X13783928Y-16590214D02*
X13783928Y-16847357D01*
X13798214Y-16875929D01*
X13826786Y-16890214D01*
X13855357Y-16890214D01*
X14069643Y-16875929D02*
X14041071Y-16890214D01*
X13983928Y-16890214D01*
X13955357Y-16875929D01*
X13941071Y-16847357D01*
X13941071Y-16733071D01*
X13955357Y-16704500D01*
X13983928Y-16690214D01*
X14041071Y-16690214D01*
X14069643Y-16704500D01*
X14083928Y-16733071D01*
X14083928Y-16761643D01*
X13941071Y-16790214D01*
X14341071Y-16890214D02*
X14341071Y-16590214D01*
X14341071Y-16875929D02*
X14312500Y-16890214D01*
X14255357Y-16890214D01*
X14226786Y-16875929D01*
X14212500Y-16861643D01*
X14198214Y-16833072D01*
X14198214Y-16747357D01*
X14212500Y-16718786D01*
X14226786Y-16704500D01*
X14255357Y-16690214D01*
X14312500Y-16690214D01*
X14341071Y-16704500D01*
X14455357Y-17004500D02*
X14469643Y-16990214D01*
X14498214Y-16947357D01*
X14512500Y-16918786D01*
X14526786Y-16875929D01*
X14541071Y-16804500D01*
X14541071Y-16747357D01*
X14526786Y-16675929D01*
X14512500Y-16633071D01*
X14498214Y-16604500D01*
X14469643Y-16561643D01*
X14455357Y-16547357D01*
M02*
