G04 #@! TF.GenerationSoftware,KiCad,Pcbnew,(5.1.9)-1*
G04 #@! TF.CreationDate,2021-04-28T19:37:10+02:00*
G04 #@! TF.ProjectId,KicadJE_Drum_PE78 - Base,4b696361-644a-4455-9f44-72756d5f5045,rev?*
G04 #@! TF.SameCoordinates,Original*
G04 #@! TF.FileFunction,Paste,Bot*
G04 #@! TF.FilePolarity,Positive*
%FSLAX46Y46*%
G04 Gerber Fmt 4.6, Leading zero omitted, Abs format (unit mm)*
G04 Created by KiCad (PCBNEW (5.1.9)-1) date 2021-04-28 19:37:10*
%MOMM*%
%LPD*%
G01*
G04 APERTURE LIST*
%ADD10R,1.300000X1.700000*%
%ADD11R,1.900000X0.800000*%
%ADD12R,2.510000X1.000000*%
G04 APERTURE END LIST*
D10*
X116000000Y-109000000D03*
X119500000Y-109000000D03*
X120500000Y-101500000D03*
X117000000Y-101500000D03*
X117000000Y-98500000D03*
X120500000Y-98500000D03*
X121500000Y-109000000D03*
X125000000Y-109000000D03*
X128750000Y-142500000D03*
X125250000Y-142500000D03*
X128750000Y-132500000D03*
X125250000Y-132500000D03*
X125000000Y-122500000D03*
X128500000Y-122500000D03*
X128500000Y-119500000D03*
X125000000Y-119500000D03*
G36*
G01*
X142799999Y-98550000D02*
X144200001Y-98550000D01*
G75*
G02*
X144450000Y-98799999I0J-249999D01*
G01*
X144450000Y-99350001D01*
G75*
G02*
X144200001Y-99600000I-249999J0D01*
G01*
X142799999Y-99600000D01*
G75*
G02*
X142550000Y-99350001I0J249999D01*
G01*
X142550000Y-98799999D01*
G75*
G02*
X142799999Y-98550000I249999J0D01*
G01*
G37*
G36*
G01*
X142799999Y-95400000D02*
X144200001Y-95400000D01*
G75*
G02*
X144450000Y-95649999I0J-249999D01*
G01*
X144450000Y-96200001D01*
G75*
G02*
X144200001Y-96450000I-249999J0D01*
G01*
X142799999Y-96450000D01*
G75*
G02*
X142550000Y-96200001I0J249999D01*
G01*
X142550000Y-95649999D01*
G75*
G02*
X142799999Y-95400000I249999J0D01*
G01*
G37*
G36*
G01*
X139799999Y-95400000D02*
X141200001Y-95400000D01*
G75*
G02*
X141450000Y-95649999I0J-249999D01*
G01*
X141450000Y-96200001D01*
G75*
G02*
X141200001Y-96450000I-249999J0D01*
G01*
X139799999Y-96450000D01*
G75*
G02*
X139550000Y-96200001I0J249999D01*
G01*
X139550000Y-95649999D01*
G75*
G02*
X139799999Y-95400000I249999J0D01*
G01*
G37*
G36*
G01*
X139799999Y-98550000D02*
X141200001Y-98550000D01*
G75*
G02*
X141450000Y-98799999I0J-249999D01*
G01*
X141450000Y-99350001D01*
G75*
G02*
X141200001Y-99600000I-249999J0D01*
G01*
X139799999Y-99600000D01*
G75*
G02*
X139550000Y-99350001I0J249999D01*
G01*
X139550000Y-98799999D01*
G75*
G02*
X139799999Y-98550000I249999J0D01*
G01*
G37*
D11*
X128000000Y-109450000D03*
X128000000Y-107550000D03*
X131000000Y-108500000D03*
X140500000Y-122000000D03*
X143500000Y-122950000D03*
X143500000Y-121050000D03*
X143500000Y-116500000D03*
X140500000Y-115550000D03*
X140500000Y-117450000D03*
X131500000Y-93950000D03*
X131500000Y-92050000D03*
X134500000Y-93000000D03*
G36*
G01*
X128600000Y-81549999D02*
X128600000Y-82450001D01*
G75*
G02*
X128350001Y-82700000I-249999J0D01*
G01*
X127699999Y-82700000D01*
G75*
G02*
X127450000Y-82450001I0J249999D01*
G01*
X127450000Y-81549999D01*
G75*
G02*
X127699999Y-81300000I249999J0D01*
G01*
X128350001Y-81300000D01*
G75*
G02*
X128600000Y-81549999I0J-249999D01*
G01*
G37*
G36*
G01*
X126550000Y-81549999D02*
X126550000Y-82450001D01*
G75*
G02*
X126300001Y-82700000I-249999J0D01*
G01*
X125649999Y-82700000D01*
G75*
G02*
X125400000Y-82450001I0J249999D01*
G01*
X125400000Y-81549999D01*
G75*
G02*
X125649999Y-81300000I249999J0D01*
G01*
X126300001Y-81300000D01*
G75*
G02*
X126550000Y-81549999I0J-249999D01*
G01*
G37*
G36*
G01*
X120425000Y-92450001D02*
X120425000Y-91549999D01*
G75*
G02*
X120674999Y-91300000I249999J0D01*
G01*
X121325001Y-91300000D01*
G75*
G02*
X121575000Y-91549999I0J-249999D01*
G01*
X121575000Y-92450001D01*
G75*
G02*
X121325001Y-92700000I-249999J0D01*
G01*
X120674999Y-92700000D01*
G75*
G02*
X120425000Y-92450001I0J249999D01*
G01*
G37*
G36*
G01*
X118375000Y-92450001D02*
X118375000Y-91549999D01*
G75*
G02*
X118624999Y-91300000I249999J0D01*
G01*
X119275001Y-91300000D01*
G75*
G02*
X119525000Y-91549999I0J-249999D01*
G01*
X119525000Y-92450001D01*
G75*
G02*
X119275001Y-92700000I-249999J0D01*
G01*
X118624999Y-92700000D01*
G75*
G02*
X118375000Y-92450001I0J249999D01*
G01*
G37*
G36*
G01*
X118600000Y-78549999D02*
X118600000Y-79450001D01*
G75*
G02*
X118350001Y-79700000I-249999J0D01*
G01*
X117699999Y-79700000D01*
G75*
G02*
X117450000Y-79450001I0J249999D01*
G01*
X117450000Y-78549999D01*
G75*
G02*
X117699999Y-78300000I249999J0D01*
G01*
X118350001Y-78300000D01*
G75*
G02*
X118600000Y-78549999I0J-249999D01*
G01*
G37*
G36*
G01*
X116550000Y-78549999D02*
X116550000Y-79450001D01*
G75*
G02*
X116300001Y-79700000I-249999J0D01*
G01*
X115649999Y-79700000D01*
G75*
G02*
X115400000Y-79450001I0J249999D01*
G01*
X115400000Y-78549999D01*
G75*
G02*
X115649999Y-78300000I249999J0D01*
G01*
X116300001Y-78300000D01*
G75*
G02*
X116550000Y-78549999I0J-249999D01*
G01*
G37*
G36*
G01*
X119375000Y-147450001D02*
X119375000Y-146549999D01*
G75*
G02*
X119624999Y-146300000I249999J0D01*
G01*
X120275001Y-146300000D01*
G75*
G02*
X120525000Y-146549999I0J-249999D01*
G01*
X120525000Y-147450001D01*
G75*
G02*
X120275001Y-147700000I-249999J0D01*
G01*
X119624999Y-147700000D01*
G75*
G02*
X119375000Y-147450001I0J249999D01*
G01*
G37*
G36*
G01*
X121425000Y-147450001D02*
X121425000Y-146549999D01*
G75*
G02*
X121674999Y-146300000I249999J0D01*
G01*
X122325001Y-146300000D01*
G75*
G02*
X122575000Y-146549999I0J-249999D01*
G01*
X122575000Y-147450001D01*
G75*
G02*
X122325001Y-147700000I-249999J0D01*
G01*
X121674999Y-147700000D01*
G75*
G02*
X121425000Y-147450001I0J249999D01*
G01*
G37*
G36*
G01*
X121425000Y-137950001D02*
X121425000Y-137049999D01*
G75*
G02*
X121674999Y-136800000I249999J0D01*
G01*
X122325001Y-136800000D01*
G75*
G02*
X122575000Y-137049999I0J-249999D01*
G01*
X122575000Y-137950001D01*
G75*
G02*
X122325001Y-138200000I-249999J0D01*
G01*
X121674999Y-138200000D01*
G75*
G02*
X121425000Y-137950001I0J249999D01*
G01*
G37*
G36*
G01*
X119375000Y-137950001D02*
X119375000Y-137049999D01*
G75*
G02*
X119624999Y-136800000I249999J0D01*
G01*
X120275001Y-136800000D01*
G75*
G02*
X120525000Y-137049999I0J-249999D01*
G01*
X120525000Y-137950001D01*
G75*
G02*
X120275001Y-138200000I-249999J0D01*
G01*
X119624999Y-138200000D01*
G75*
G02*
X119375000Y-137950001I0J249999D01*
G01*
G37*
G36*
G01*
X121450000Y-107450001D02*
X121450000Y-106549999D01*
G75*
G02*
X121699999Y-106300000I249999J0D01*
G01*
X122350001Y-106300000D01*
G75*
G02*
X122600000Y-106549999I0J-249999D01*
G01*
X122600000Y-107450001D01*
G75*
G02*
X122350001Y-107700000I-249999J0D01*
G01*
X121699999Y-107700000D01*
G75*
G02*
X121450000Y-107450001I0J249999D01*
G01*
G37*
G36*
G01*
X119400000Y-107450001D02*
X119400000Y-106549999D01*
G75*
G02*
X119649999Y-106300000I249999J0D01*
G01*
X120300001Y-106300000D01*
G75*
G02*
X120550000Y-106549999I0J-249999D01*
G01*
X120550000Y-107450001D01*
G75*
G02*
X120300001Y-107700000I-249999J0D01*
G01*
X119649999Y-107700000D01*
G75*
G02*
X119400000Y-107450001I0J249999D01*
G01*
G37*
G36*
G01*
X121450000Y-149450001D02*
X121450000Y-148549999D01*
G75*
G02*
X121699999Y-148300000I249999J0D01*
G01*
X122350001Y-148300000D01*
G75*
G02*
X122600000Y-148549999I0J-249999D01*
G01*
X122600000Y-149450001D01*
G75*
G02*
X122350001Y-149700000I-249999J0D01*
G01*
X121699999Y-149700000D01*
G75*
G02*
X121450000Y-149450001I0J249999D01*
G01*
G37*
G36*
G01*
X119400000Y-149450001D02*
X119400000Y-148549999D01*
G75*
G02*
X119649999Y-148300000I249999J0D01*
G01*
X120300001Y-148300000D01*
G75*
G02*
X120550000Y-148549999I0J-249999D01*
G01*
X120550000Y-149450001D01*
G75*
G02*
X120300001Y-149700000I-249999J0D01*
G01*
X119649999Y-149700000D01*
G75*
G02*
X119400000Y-149450001I0J249999D01*
G01*
G37*
G36*
G01*
X119400000Y-139950001D02*
X119400000Y-139049999D01*
G75*
G02*
X119649999Y-138800000I249999J0D01*
G01*
X120300001Y-138800000D01*
G75*
G02*
X120550000Y-139049999I0J-249999D01*
G01*
X120550000Y-139950001D01*
G75*
G02*
X120300001Y-140200000I-249999J0D01*
G01*
X119649999Y-140200000D01*
G75*
G02*
X119400000Y-139950001I0J249999D01*
G01*
G37*
G36*
G01*
X121450000Y-139950001D02*
X121450000Y-139049999D01*
G75*
G02*
X121699999Y-138800000I249999J0D01*
G01*
X122350001Y-138800000D01*
G75*
G02*
X122600000Y-139049999I0J-249999D01*
G01*
X122600000Y-139950001D01*
G75*
G02*
X122350001Y-140200000I-249999J0D01*
G01*
X121699999Y-140200000D01*
G75*
G02*
X121450000Y-139950001I0J249999D01*
G01*
G37*
G36*
G01*
X122549999Y-79900000D02*
X123450001Y-79900000D01*
G75*
G02*
X123700000Y-80149999I0J-249999D01*
G01*
X123700000Y-80800001D01*
G75*
G02*
X123450001Y-81050000I-249999J0D01*
G01*
X122549999Y-81050000D01*
G75*
G02*
X122300000Y-80800001I0J249999D01*
G01*
X122300000Y-80149999D01*
G75*
G02*
X122549999Y-79900000I249999J0D01*
G01*
G37*
G36*
G01*
X122549999Y-81950000D02*
X123450001Y-81950000D01*
G75*
G02*
X123700000Y-82199999I0J-249999D01*
G01*
X123700000Y-82850001D01*
G75*
G02*
X123450001Y-83100000I-249999J0D01*
G01*
X122549999Y-83100000D01*
G75*
G02*
X122300000Y-82850001I0J249999D01*
G01*
X122300000Y-82199999D01*
G75*
G02*
X122549999Y-81950000I249999J0D01*
G01*
G37*
G36*
G01*
X123450001Y-77050000D02*
X122549999Y-77050000D01*
G75*
G02*
X122300000Y-76800001I0J249999D01*
G01*
X122300000Y-76149999D01*
G75*
G02*
X122549999Y-75900000I249999J0D01*
G01*
X123450001Y-75900000D01*
G75*
G02*
X123700000Y-76149999I0J-249999D01*
G01*
X123700000Y-76800001D01*
G75*
G02*
X123450001Y-77050000I-249999J0D01*
G01*
G37*
G36*
G01*
X123450001Y-79100000D02*
X122549999Y-79100000D01*
G75*
G02*
X122300000Y-78850001I0J249999D01*
G01*
X122300000Y-78199999D01*
G75*
G02*
X122549999Y-77950000I249999J0D01*
G01*
X123450001Y-77950000D01*
G75*
G02*
X123700000Y-78199999I0J-249999D01*
G01*
X123700000Y-78850001D01*
G75*
G02*
X123450001Y-79100000I-249999J0D01*
G01*
G37*
G36*
G01*
X120525000Y-142049999D02*
X120525000Y-142950001D01*
G75*
G02*
X120275001Y-143200000I-249999J0D01*
G01*
X119624999Y-143200000D01*
G75*
G02*
X119375000Y-142950001I0J249999D01*
G01*
X119375000Y-142049999D01*
G75*
G02*
X119624999Y-141800000I249999J0D01*
G01*
X120275001Y-141800000D01*
G75*
G02*
X120525000Y-142049999I0J-249999D01*
G01*
G37*
G36*
G01*
X122575000Y-142049999D02*
X122575000Y-142950001D01*
G75*
G02*
X122325001Y-143200000I-249999J0D01*
G01*
X121674999Y-143200000D01*
G75*
G02*
X121425000Y-142950001I0J249999D01*
G01*
X121425000Y-142049999D01*
G75*
G02*
X121674999Y-141800000I249999J0D01*
G01*
X122325001Y-141800000D01*
G75*
G02*
X122575000Y-142049999I0J-249999D01*
G01*
G37*
G36*
G01*
X120525000Y-132049999D02*
X120525000Y-132950001D01*
G75*
G02*
X120275001Y-133200000I-249999J0D01*
G01*
X119624999Y-133200000D01*
G75*
G02*
X119375000Y-132950001I0J249999D01*
G01*
X119375000Y-132049999D01*
G75*
G02*
X119624999Y-131800000I249999J0D01*
G01*
X120275001Y-131800000D01*
G75*
G02*
X120525000Y-132049999I0J-249999D01*
G01*
G37*
G36*
G01*
X122575000Y-132049999D02*
X122575000Y-132950001D01*
G75*
G02*
X122325001Y-133200000I-249999J0D01*
G01*
X121674999Y-133200000D01*
G75*
G02*
X121425000Y-132950001I0J249999D01*
G01*
X121425000Y-132049999D01*
G75*
G02*
X121674999Y-131800000I249999J0D01*
G01*
X122325001Y-131800000D01*
G75*
G02*
X122575000Y-132049999I0J-249999D01*
G01*
G37*
G36*
G01*
X123050000Y-98049999D02*
X123050000Y-98950001D01*
G75*
G02*
X122800001Y-99200000I-249999J0D01*
G01*
X122149999Y-99200000D01*
G75*
G02*
X121900000Y-98950001I0J249999D01*
G01*
X121900000Y-98049999D01*
G75*
G02*
X122149999Y-97800000I249999J0D01*
G01*
X122800001Y-97800000D01*
G75*
G02*
X123050000Y-98049999I0J-249999D01*
G01*
G37*
G36*
G01*
X125100000Y-98049999D02*
X125100000Y-98950001D01*
G75*
G02*
X124850001Y-99200000I-249999J0D01*
G01*
X124199999Y-99200000D01*
G75*
G02*
X123950000Y-98950001I0J249999D01*
G01*
X123950000Y-98049999D01*
G75*
G02*
X124199999Y-97800000I249999J0D01*
G01*
X124850001Y-97800000D01*
G75*
G02*
X125100000Y-98049999I0J-249999D01*
G01*
G37*
G36*
G01*
X121450000Y-113450001D02*
X121450000Y-112549999D01*
G75*
G02*
X121699999Y-112300000I249999J0D01*
G01*
X122350001Y-112300000D01*
G75*
G02*
X122600000Y-112549999I0J-249999D01*
G01*
X122600000Y-113450001D01*
G75*
G02*
X122350001Y-113700000I-249999J0D01*
G01*
X121699999Y-113700000D01*
G75*
G02*
X121450000Y-113450001I0J249999D01*
G01*
G37*
G36*
G01*
X119400000Y-113450001D02*
X119400000Y-112549999D01*
G75*
G02*
X119649999Y-112300000I249999J0D01*
G01*
X120300001Y-112300000D01*
G75*
G02*
X120550000Y-112549999I0J-249999D01*
G01*
X120550000Y-113450001D01*
G75*
G02*
X120300001Y-113700000I-249999J0D01*
G01*
X119649999Y-113700000D01*
G75*
G02*
X119400000Y-113450001I0J249999D01*
G01*
G37*
G36*
G01*
X129100000Y-98049999D02*
X129100000Y-98950001D01*
G75*
G02*
X128850001Y-99200000I-249999J0D01*
G01*
X128199999Y-99200000D01*
G75*
G02*
X127950000Y-98950001I0J249999D01*
G01*
X127950000Y-98049999D01*
G75*
G02*
X128199999Y-97800000I249999J0D01*
G01*
X128850001Y-97800000D01*
G75*
G02*
X129100000Y-98049999I0J-249999D01*
G01*
G37*
G36*
G01*
X127050000Y-98049999D02*
X127050000Y-98950001D01*
G75*
G02*
X126800001Y-99200000I-249999J0D01*
G01*
X126149999Y-99200000D01*
G75*
G02*
X125900000Y-98950001I0J249999D01*
G01*
X125900000Y-98049999D01*
G75*
G02*
X126149999Y-97800000I249999J0D01*
G01*
X126800001Y-97800000D01*
G75*
G02*
X127050000Y-98049999I0J-249999D01*
G01*
G37*
G36*
G01*
X131950000Y-142950001D02*
X131950000Y-142049999D01*
G75*
G02*
X132199999Y-141800000I249999J0D01*
G01*
X132850001Y-141800000D01*
G75*
G02*
X133100000Y-142049999I0J-249999D01*
G01*
X133100000Y-142950001D01*
G75*
G02*
X132850001Y-143200000I-249999J0D01*
G01*
X132199999Y-143200000D01*
G75*
G02*
X131950000Y-142950001I0J249999D01*
G01*
G37*
G36*
G01*
X129900000Y-142950001D02*
X129900000Y-142049999D01*
G75*
G02*
X130149999Y-141800000I249999J0D01*
G01*
X130800001Y-141800000D01*
G75*
G02*
X131050000Y-142049999I0J-249999D01*
G01*
X131050000Y-142950001D01*
G75*
G02*
X130800001Y-143200000I-249999J0D01*
G01*
X130149999Y-143200000D01*
G75*
G02*
X129900000Y-142950001I0J249999D01*
G01*
G37*
G36*
G01*
X129900000Y-132950001D02*
X129900000Y-132049999D01*
G75*
G02*
X130149999Y-131800000I249999J0D01*
G01*
X130800001Y-131800000D01*
G75*
G02*
X131050000Y-132049999I0J-249999D01*
G01*
X131050000Y-132950001D01*
G75*
G02*
X130800001Y-133200000I-249999J0D01*
G01*
X130149999Y-133200000D01*
G75*
G02*
X129900000Y-132950001I0J249999D01*
G01*
G37*
G36*
G01*
X131950000Y-132950001D02*
X131950000Y-132049999D01*
G75*
G02*
X132199999Y-131800000I249999J0D01*
G01*
X132850001Y-131800000D01*
G75*
G02*
X133100000Y-132049999I0J-249999D01*
G01*
X133100000Y-132950001D01*
G75*
G02*
X132850001Y-133200000I-249999J0D01*
G01*
X132199999Y-133200000D01*
G75*
G02*
X131950000Y-132950001I0J249999D01*
G01*
G37*
G36*
G01*
X122575000Y-110549999D02*
X122575000Y-111450001D01*
G75*
G02*
X122325001Y-111700000I-249999J0D01*
G01*
X121674999Y-111700000D01*
G75*
G02*
X121425000Y-111450001I0J249999D01*
G01*
X121425000Y-110549999D01*
G75*
G02*
X121674999Y-110300000I249999J0D01*
G01*
X122325001Y-110300000D01*
G75*
G02*
X122575000Y-110549999I0J-249999D01*
G01*
G37*
G36*
G01*
X120525000Y-110549999D02*
X120525000Y-111450001D01*
G75*
G02*
X120275001Y-111700000I-249999J0D01*
G01*
X119624999Y-111700000D01*
G75*
G02*
X119375000Y-111450001I0J249999D01*
G01*
X119375000Y-110549999D01*
G75*
G02*
X119624999Y-110300000I249999J0D01*
G01*
X120275001Y-110300000D01*
G75*
G02*
X120525000Y-110549999I0J-249999D01*
G01*
G37*
G36*
G01*
X146450001Y-65100000D02*
X145549999Y-65100000D01*
G75*
G02*
X145300000Y-64850001I0J249999D01*
G01*
X145300000Y-64199999D01*
G75*
G02*
X145549999Y-63950000I249999J0D01*
G01*
X146450001Y-63950000D01*
G75*
G02*
X146700000Y-64199999I0J-249999D01*
G01*
X146700000Y-64850001D01*
G75*
G02*
X146450001Y-65100000I-249999J0D01*
G01*
G37*
G36*
G01*
X146450001Y-63050000D02*
X145549999Y-63050000D01*
G75*
G02*
X145300000Y-62800001I0J249999D01*
G01*
X145300000Y-62149999D01*
G75*
G02*
X145549999Y-61900000I249999J0D01*
G01*
X146450001Y-61900000D01*
G75*
G02*
X146700000Y-62149999I0J-249999D01*
G01*
X146700000Y-62800001D01*
G75*
G02*
X146450001Y-63050000I-249999J0D01*
G01*
G37*
G36*
G01*
X144450001Y-65075000D02*
X143549999Y-65075000D01*
G75*
G02*
X143300000Y-64825001I0J249999D01*
G01*
X143300000Y-64174999D01*
G75*
G02*
X143549999Y-63925000I249999J0D01*
G01*
X144450001Y-63925000D01*
G75*
G02*
X144700000Y-64174999I0J-249999D01*
G01*
X144700000Y-64825001D01*
G75*
G02*
X144450001Y-65075000I-249999J0D01*
G01*
G37*
G36*
G01*
X144450001Y-63025000D02*
X143549999Y-63025000D01*
G75*
G02*
X143300000Y-62775001I0J249999D01*
G01*
X143300000Y-62124999D01*
G75*
G02*
X143549999Y-61875000I249999J0D01*
G01*
X144450001Y-61875000D01*
G75*
G02*
X144700000Y-62124999I0J-249999D01*
G01*
X144700000Y-62775001D01*
G75*
G02*
X144450001Y-63025000I-249999J0D01*
G01*
G37*
G36*
G01*
X146450001Y-81100000D02*
X145549999Y-81100000D01*
G75*
G02*
X145300000Y-80850001I0J249999D01*
G01*
X145300000Y-80199999D01*
G75*
G02*
X145549999Y-79950000I249999J0D01*
G01*
X146450001Y-79950000D01*
G75*
G02*
X146700000Y-80199999I0J-249999D01*
G01*
X146700000Y-80850001D01*
G75*
G02*
X146450001Y-81100000I-249999J0D01*
G01*
G37*
G36*
G01*
X146450001Y-79050000D02*
X145549999Y-79050000D01*
G75*
G02*
X145300000Y-78800001I0J249999D01*
G01*
X145300000Y-78149999D01*
G75*
G02*
X145549999Y-77900000I249999J0D01*
G01*
X146450001Y-77900000D01*
G75*
G02*
X146700000Y-78149999I0J-249999D01*
G01*
X146700000Y-78800001D01*
G75*
G02*
X146450001Y-79050000I-249999J0D01*
G01*
G37*
G36*
G01*
X144450001Y-79025000D02*
X143549999Y-79025000D01*
G75*
G02*
X143300000Y-78775001I0J249999D01*
G01*
X143300000Y-78124999D01*
G75*
G02*
X143549999Y-77875000I249999J0D01*
G01*
X144450001Y-77875000D01*
G75*
G02*
X144700000Y-78124999I0J-249999D01*
G01*
X144700000Y-78775001D01*
G75*
G02*
X144450001Y-79025000I-249999J0D01*
G01*
G37*
G36*
G01*
X144450001Y-81075000D02*
X143549999Y-81075000D01*
G75*
G02*
X143300000Y-80825001I0J249999D01*
G01*
X143300000Y-80174999D01*
G75*
G02*
X143549999Y-79925000I249999J0D01*
G01*
X144450001Y-79925000D01*
G75*
G02*
X144700000Y-80174999I0J-249999D01*
G01*
X144700000Y-80825001D01*
G75*
G02*
X144450001Y-81075000I-249999J0D01*
G01*
G37*
G36*
G01*
X128950001Y-92550000D02*
X128049999Y-92550000D01*
G75*
G02*
X127800000Y-92300001I0J249999D01*
G01*
X127800000Y-91649999D01*
G75*
G02*
X128049999Y-91400000I249999J0D01*
G01*
X128950001Y-91400000D01*
G75*
G02*
X129200000Y-91649999I0J-249999D01*
G01*
X129200000Y-92300001D01*
G75*
G02*
X128950001Y-92550000I-249999J0D01*
G01*
G37*
G36*
G01*
X128950001Y-94600000D02*
X128049999Y-94600000D01*
G75*
G02*
X127800000Y-94350001I0J249999D01*
G01*
X127800000Y-93699999D01*
G75*
G02*
X128049999Y-93450000I249999J0D01*
G01*
X128950001Y-93450000D01*
G75*
G02*
X129200000Y-93699999I0J-249999D01*
G01*
X129200000Y-94350001D01*
G75*
G02*
X128950001Y-94600000I-249999J0D01*
G01*
G37*
G36*
G01*
X146450001Y-67025000D02*
X145549999Y-67025000D01*
G75*
G02*
X145300000Y-66775001I0J249999D01*
G01*
X145300000Y-66124999D01*
G75*
G02*
X145549999Y-65875000I249999J0D01*
G01*
X146450001Y-65875000D01*
G75*
G02*
X146700000Y-66124999I0J-249999D01*
G01*
X146700000Y-66775001D01*
G75*
G02*
X146450001Y-67025000I-249999J0D01*
G01*
G37*
G36*
G01*
X146450001Y-69075000D02*
X145549999Y-69075000D01*
G75*
G02*
X145300000Y-68825001I0J249999D01*
G01*
X145300000Y-68174999D01*
G75*
G02*
X145549999Y-67925000I249999J0D01*
G01*
X146450001Y-67925000D01*
G75*
G02*
X146700000Y-68174999I0J-249999D01*
G01*
X146700000Y-68825001D01*
G75*
G02*
X146450001Y-69075000I-249999J0D01*
G01*
G37*
G36*
G01*
X144450001Y-67025000D02*
X143549999Y-67025000D01*
G75*
G02*
X143300000Y-66775001I0J249999D01*
G01*
X143300000Y-66124999D01*
G75*
G02*
X143549999Y-65875000I249999J0D01*
G01*
X144450001Y-65875000D01*
G75*
G02*
X144700000Y-66124999I0J-249999D01*
G01*
X144700000Y-66775001D01*
G75*
G02*
X144450001Y-67025000I-249999J0D01*
G01*
G37*
G36*
G01*
X144450001Y-69075000D02*
X143549999Y-69075000D01*
G75*
G02*
X143300000Y-68825001I0J249999D01*
G01*
X143300000Y-68174999D01*
G75*
G02*
X143549999Y-67925000I249999J0D01*
G01*
X144450001Y-67925000D01*
G75*
G02*
X144700000Y-68174999I0J-249999D01*
G01*
X144700000Y-68825001D01*
G75*
G02*
X144450001Y-69075000I-249999J0D01*
G01*
G37*
G36*
G01*
X146450001Y-83025000D02*
X145549999Y-83025000D01*
G75*
G02*
X145300000Y-82775001I0J249999D01*
G01*
X145300000Y-82124999D01*
G75*
G02*
X145549999Y-81875000I249999J0D01*
G01*
X146450001Y-81875000D01*
G75*
G02*
X146700000Y-82124999I0J-249999D01*
G01*
X146700000Y-82775001D01*
G75*
G02*
X146450001Y-83025000I-249999J0D01*
G01*
G37*
G36*
G01*
X146450001Y-85075000D02*
X145549999Y-85075000D01*
G75*
G02*
X145300000Y-84825001I0J249999D01*
G01*
X145300000Y-84174999D01*
G75*
G02*
X145549999Y-83925000I249999J0D01*
G01*
X146450001Y-83925000D01*
G75*
G02*
X146700000Y-84174999I0J-249999D01*
G01*
X146700000Y-84825001D01*
G75*
G02*
X146450001Y-85075000I-249999J0D01*
G01*
G37*
G36*
G01*
X144450001Y-85014999D02*
X143549999Y-85014999D01*
G75*
G02*
X143300000Y-84765000I0J249999D01*
G01*
X143300000Y-84114998D01*
G75*
G02*
X143549999Y-83864999I249999J0D01*
G01*
X144450001Y-83864999D01*
G75*
G02*
X144700000Y-84114998I0J-249999D01*
G01*
X144700000Y-84765000D01*
G75*
G02*
X144450001Y-85014999I-249999J0D01*
G01*
G37*
G36*
G01*
X144450001Y-82964999D02*
X143549999Y-82964999D01*
G75*
G02*
X143300000Y-82715000I0J249999D01*
G01*
X143300000Y-82064998D01*
G75*
G02*
X143549999Y-81814999I249999J0D01*
G01*
X144450001Y-81814999D01*
G75*
G02*
X144700000Y-82064998I0J-249999D01*
G01*
X144700000Y-82715000D01*
G75*
G02*
X144450001Y-82964999I-249999J0D01*
G01*
G37*
G36*
G01*
X137450001Y-118125000D02*
X136549999Y-118125000D01*
G75*
G02*
X136300000Y-117875001I0J249999D01*
G01*
X136300000Y-117224999D01*
G75*
G02*
X136549999Y-116975000I249999J0D01*
G01*
X137450001Y-116975000D01*
G75*
G02*
X137700000Y-117224999I0J-249999D01*
G01*
X137700000Y-117875001D01*
G75*
G02*
X137450001Y-118125000I-249999J0D01*
G01*
G37*
G36*
G01*
X137450001Y-116075000D02*
X136549999Y-116075000D01*
G75*
G02*
X136300000Y-115825001I0J249999D01*
G01*
X136300000Y-115174999D01*
G75*
G02*
X136549999Y-114925000I249999J0D01*
G01*
X137450001Y-114925000D01*
G75*
G02*
X137700000Y-115174999I0J-249999D01*
G01*
X137700000Y-115825001D01*
G75*
G02*
X137450001Y-116075000I-249999J0D01*
G01*
G37*
G36*
G01*
X147450001Y-97050000D02*
X146549999Y-97050000D01*
G75*
G02*
X146300000Y-96800001I0J249999D01*
G01*
X146300000Y-96149999D01*
G75*
G02*
X146549999Y-95900000I249999J0D01*
G01*
X147450001Y-95900000D01*
G75*
G02*
X147700000Y-96149999I0J-249999D01*
G01*
X147700000Y-96800001D01*
G75*
G02*
X147450001Y-97050000I-249999J0D01*
G01*
G37*
G36*
G01*
X147450001Y-99100000D02*
X146549999Y-99100000D01*
G75*
G02*
X146300000Y-98850001I0J249999D01*
G01*
X146300000Y-98199999D01*
G75*
G02*
X146549999Y-97950000I249999J0D01*
G01*
X147450001Y-97950000D01*
G75*
G02*
X147700000Y-98199999I0J-249999D01*
G01*
X147700000Y-98850001D01*
G75*
G02*
X147450001Y-99100000I-249999J0D01*
G01*
G37*
G36*
G01*
X137950001Y-97050000D02*
X137049999Y-97050000D01*
G75*
G02*
X136800000Y-96800001I0J249999D01*
G01*
X136800000Y-96149999D01*
G75*
G02*
X137049999Y-95900000I249999J0D01*
G01*
X137950001Y-95900000D01*
G75*
G02*
X138200000Y-96149999I0J-249999D01*
G01*
X138200000Y-96800001D01*
G75*
G02*
X137950001Y-97050000I-249999J0D01*
G01*
G37*
G36*
G01*
X137950001Y-99100000D02*
X137049999Y-99100000D01*
G75*
G02*
X136800000Y-98850001I0J249999D01*
G01*
X136800000Y-98199999D01*
G75*
G02*
X137049999Y-97950000I249999J0D01*
G01*
X137950001Y-97950000D01*
G75*
G02*
X138200000Y-98199999I0J-249999D01*
G01*
X138200000Y-98850001D01*
G75*
G02*
X137950001Y-99100000I-249999J0D01*
G01*
G37*
G36*
G01*
X141549999Y-107400000D02*
X142450001Y-107400000D01*
G75*
G02*
X142700000Y-107649999I0J-249999D01*
G01*
X142700000Y-108300001D01*
G75*
G02*
X142450001Y-108550000I-249999J0D01*
G01*
X141549999Y-108550000D01*
G75*
G02*
X141300000Y-108300001I0J249999D01*
G01*
X141300000Y-107649999D01*
G75*
G02*
X141549999Y-107400000I249999J0D01*
G01*
G37*
G36*
G01*
X141549999Y-109450000D02*
X142450001Y-109450000D01*
G75*
G02*
X142700000Y-109699999I0J-249999D01*
G01*
X142700000Y-110350001D01*
G75*
G02*
X142450001Y-110600000I-249999J0D01*
G01*
X141549999Y-110600000D01*
G75*
G02*
X141300000Y-110350001I0J249999D01*
G01*
X141300000Y-109699999D01*
G75*
G02*
X141549999Y-109450000I249999J0D01*
G01*
G37*
G36*
G01*
X121425000Y-127950001D02*
X121425000Y-127049999D01*
G75*
G02*
X121674999Y-126800000I249999J0D01*
G01*
X122325001Y-126800000D01*
G75*
G02*
X122575000Y-127049999I0J-249999D01*
G01*
X122575000Y-127950001D01*
G75*
G02*
X122325001Y-128200000I-249999J0D01*
G01*
X121674999Y-128200000D01*
G75*
G02*
X121425000Y-127950001I0J249999D01*
G01*
G37*
G36*
G01*
X119375000Y-127950001D02*
X119375000Y-127049999D01*
G75*
G02*
X119624999Y-126800000I249999J0D01*
G01*
X120275001Y-126800000D01*
G75*
G02*
X120525000Y-127049999I0J-249999D01*
G01*
X120525000Y-127950001D01*
G75*
G02*
X120275001Y-128200000I-249999J0D01*
G01*
X119624999Y-128200000D01*
G75*
G02*
X119375000Y-127950001I0J249999D01*
G01*
G37*
G36*
G01*
X121475000Y-117950001D02*
X121475000Y-117049999D01*
G75*
G02*
X121724999Y-116800000I249999J0D01*
G01*
X122375001Y-116800000D01*
G75*
G02*
X122625000Y-117049999I0J-249999D01*
G01*
X122625000Y-117950001D01*
G75*
G02*
X122375001Y-118200000I-249999J0D01*
G01*
X121724999Y-118200000D01*
G75*
G02*
X121475000Y-117950001I0J249999D01*
G01*
G37*
G36*
G01*
X119425000Y-117950001D02*
X119425000Y-117049999D01*
G75*
G02*
X119674999Y-116800000I249999J0D01*
G01*
X120325001Y-116800000D01*
G75*
G02*
X120575000Y-117049999I0J-249999D01*
G01*
X120575000Y-117950001D01*
G75*
G02*
X120325001Y-118200000I-249999J0D01*
G01*
X119674999Y-118200000D01*
G75*
G02*
X119425000Y-117950001I0J249999D01*
G01*
G37*
G36*
G01*
X119400000Y-129950001D02*
X119400000Y-129049999D01*
G75*
G02*
X119649999Y-128800000I249999J0D01*
G01*
X120300001Y-128800000D01*
G75*
G02*
X120550000Y-129049999I0J-249999D01*
G01*
X120550000Y-129950001D01*
G75*
G02*
X120300001Y-130200000I-249999J0D01*
G01*
X119649999Y-130200000D01*
G75*
G02*
X119400000Y-129950001I0J249999D01*
G01*
G37*
G36*
G01*
X121450000Y-129950001D02*
X121450000Y-129049999D01*
G75*
G02*
X121699999Y-128800000I249999J0D01*
G01*
X122350001Y-128800000D01*
G75*
G02*
X122600000Y-129049999I0J-249999D01*
G01*
X122600000Y-129950001D01*
G75*
G02*
X122350001Y-130200000I-249999J0D01*
G01*
X121699999Y-130200000D01*
G75*
G02*
X121450000Y-129950001I0J249999D01*
G01*
G37*
G36*
G01*
X119375000Y-119950001D02*
X119375000Y-119049999D01*
G75*
G02*
X119624999Y-118800000I249999J0D01*
G01*
X120275001Y-118800000D01*
G75*
G02*
X120525000Y-119049999I0J-249999D01*
G01*
X120525000Y-119950001D01*
G75*
G02*
X120275001Y-120200000I-249999J0D01*
G01*
X119624999Y-120200000D01*
G75*
G02*
X119375000Y-119950001I0J249999D01*
G01*
G37*
G36*
G01*
X121425000Y-119950001D02*
X121425000Y-119049999D01*
G75*
G02*
X121674999Y-118800000I249999J0D01*
G01*
X122325001Y-118800000D01*
G75*
G02*
X122575000Y-119049999I0J-249999D01*
G01*
X122575000Y-119950001D01*
G75*
G02*
X122325001Y-120200000I-249999J0D01*
G01*
X121674999Y-120200000D01*
G75*
G02*
X121425000Y-119950001I0J249999D01*
G01*
G37*
G36*
G01*
X120525000Y-121049999D02*
X120525000Y-121950001D01*
G75*
G02*
X120275001Y-122200000I-249999J0D01*
G01*
X119624999Y-122200000D01*
G75*
G02*
X119375000Y-121950001I0J249999D01*
G01*
X119375000Y-121049999D01*
G75*
G02*
X119624999Y-120800000I249999J0D01*
G01*
X120275001Y-120800000D01*
G75*
G02*
X120525000Y-121049999I0J-249999D01*
G01*
G37*
G36*
G01*
X122575000Y-121049999D02*
X122575000Y-121950001D01*
G75*
G02*
X122325001Y-122200000I-249999J0D01*
G01*
X121674999Y-122200000D01*
G75*
G02*
X121425000Y-121950001I0J249999D01*
G01*
X121425000Y-121049999D01*
G75*
G02*
X121674999Y-120800000I249999J0D01*
G01*
X122325001Y-120800000D01*
G75*
G02*
X122575000Y-121049999I0J-249999D01*
G01*
G37*
G36*
G01*
X122625000Y-125049999D02*
X122625000Y-125950001D01*
G75*
G02*
X122375001Y-126200000I-249999J0D01*
G01*
X121724999Y-126200000D01*
G75*
G02*
X121475000Y-125950001I0J249999D01*
G01*
X121475000Y-125049999D01*
G75*
G02*
X121724999Y-124800000I249999J0D01*
G01*
X122375001Y-124800000D01*
G75*
G02*
X122625000Y-125049999I0J-249999D01*
G01*
G37*
G36*
G01*
X120575000Y-125049999D02*
X120575000Y-125950001D01*
G75*
G02*
X120325001Y-126200000I-249999J0D01*
G01*
X119674999Y-126200000D01*
G75*
G02*
X119425000Y-125950001I0J249999D01*
G01*
X119425000Y-125049999D01*
G75*
G02*
X119674999Y-124800000I249999J0D01*
G01*
X120325001Y-124800000D01*
G75*
G02*
X120575000Y-125049999I0J-249999D01*
G01*
G37*
G36*
G01*
X129900000Y-122950001D02*
X129900000Y-122049999D01*
G75*
G02*
X130149999Y-121800000I249999J0D01*
G01*
X130800001Y-121800000D01*
G75*
G02*
X131050000Y-122049999I0J-249999D01*
G01*
X131050000Y-122950001D01*
G75*
G02*
X130800001Y-123200000I-249999J0D01*
G01*
X130149999Y-123200000D01*
G75*
G02*
X129900000Y-122950001I0J249999D01*
G01*
G37*
G36*
G01*
X131950000Y-122950001D02*
X131950000Y-122049999D01*
G75*
G02*
X132199999Y-121800000I249999J0D01*
G01*
X132850001Y-121800000D01*
G75*
G02*
X133100000Y-122049999I0J-249999D01*
G01*
X133100000Y-122950001D01*
G75*
G02*
X132850001Y-123200000I-249999J0D01*
G01*
X132199999Y-123200000D01*
G75*
G02*
X131950000Y-122950001I0J249999D01*
G01*
G37*
G36*
G01*
X129875000Y-119950001D02*
X129875000Y-119049999D01*
G75*
G02*
X130124999Y-118800000I249999J0D01*
G01*
X130775001Y-118800000D01*
G75*
G02*
X131025000Y-119049999I0J-249999D01*
G01*
X131025000Y-119950001D01*
G75*
G02*
X130775001Y-120200000I-249999J0D01*
G01*
X130124999Y-120200000D01*
G75*
G02*
X129875000Y-119950001I0J249999D01*
G01*
G37*
G36*
G01*
X131925000Y-119950001D02*
X131925000Y-119049999D01*
G75*
G02*
X132174999Y-118800000I249999J0D01*
G01*
X132825001Y-118800000D01*
G75*
G02*
X133075000Y-119049999I0J-249999D01*
G01*
X133075000Y-119950001D01*
G75*
G02*
X132825001Y-120200000I-249999J0D01*
G01*
X132174999Y-120200000D01*
G75*
G02*
X131925000Y-119950001I0J249999D01*
G01*
G37*
G36*
G01*
X146450001Y-73100000D02*
X145549999Y-73100000D01*
G75*
G02*
X145300000Y-72850001I0J249999D01*
G01*
X145300000Y-72199999D01*
G75*
G02*
X145549999Y-71950000I249999J0D01*
G01*
X146450001Y-71950000D01*
G75*
G02*
X146700000Y-72199999I0J-249999D01*
G01*
X146700000Y-72850001D01*
G75*
G02*
X146450001Y-73100000I-249999J0D01*
G01*
G37*
G36*
G01*
X146450001Y-71050000D02*
X145549999Y-71050000D01*
G75*
G02*
X145300000Y-70800001I0J249999D01*
G01*
X145300000Y-70149999D01*
G75*
G02*
X145549999Y-69900000I249999J0D01*
G01*
X146450001Y-69900000D01*
G75*
G02*
X146700000Y-70149999I0J-249999D01*
G01*
X146700000Y-70800001D01*
G75*
G02*
X146450001Y-71050000I-249999J0D01*
G01*
G37*
G36*
G01*
X144450001Y-73100000D02*
X143549999Y-73100000D01*
G75*
G02*
X143300000Y-72850001I0J249999D01*
G01*
X143300000Y-72199999D01*
G75*
G02*
X143549999Y-71950000I249999J0D01*
G01*
X144450001Y-71950000D01*
G75*
G02*
X144700000Y-72199999I0J-249999D01*
G01*
X144700000Y-72850001D01*
G75*
G02*
X144450001Y-73100000I-249999J0D01*
G01*
G37*
G36*
G01*
X144450001Y-71050000D02*
X143549999Y-71050000D01*
G75*
G02*
X143300000Y-70800001I0J249999D01*
G01*
X143300000Y-70149999D01*
G75*
G02*
X143549999Y-69900000I249999J0D01*
G01*
X144450001Y-69900000D01*
G75*
G02*
X144700000Y-70149999I0J-249999D01*
G01*
X144700000Y-70800001D01*
G75*
G02*
X144450001Y-71050000I-249999J0D01*
G01*
G37*
G36*
G01*
X133049999Y-83950000D02*
X133950001Y-83950000D01*
G75*
G02*
X134200000Y-84199999I0J-249999D01*
G01*
X134200000Y-84850001D01*
G75*
G02*
X133950001Y-85100000I-249999J0D01*
G01*
X133049999Y-85100000D01*
G75*
G02*
X132800000Y-84850001I0J249999D01*
G01*
X132800000Y-84199999D01*
G75*
G02*
X133049999Y-83950000I249999J0D01*
G01*
G37*
G36*
G01*
X133049999Y-81900000D02*
X133950001Y-81900000D01*
G75*
G02*
X134200000Y-82149999I0J-249999D01*
G01*
X134200000Y-82800001D01*
G75*
G02*
X133950001Y-83050000I-249999J0D01*
G01*
X133049999Y-83050000D01*
G75*
G02*
X132800000Y-82800001I0J249999D01*
G01*
X132800000Y-82149999D01*
G75*
G02*
X133049999Y-81900000I249999J0D01*
G01*
G37*
G36*
G01*
X135049999Y-81900000D02*
X135950001Y-81900000D01*
G75*
G02*
X136200000Y-82149999I0J-249999D01*
G01*
X136200000Y-82800001D01*
G75*
G02*
X135950001Y-83050000I-249999J0D01*
G01*
X135049999Y-83050000D01*
G75*
G02*
X134800000Y-82800001I0J249999D01*
G01*
X134800000Y-82149999D01*
G75*
G02*
X135049999Y-81900000I249999J0D01*
G01*
G37*
G36*
G01*
X135049999Y-83950000D02*
X135950001Y-83950000D01*
G75*
G02*
X136200000Y-84199999I0J-249999D01*
G01*
X136200000Y-84850001D01*
G75*
G02*
X135950001Y-85100000I-249999J0D01*
G01*
X135049999Y-85100000D01*
G75*
G02*
X134800000Y-84850001I0J249999D01*
G01*
X134800000Y-84199999D01*
G75*
G02*
X135049999Y-83950000I249999J0D01*
G01*
G37*
G36*
G01*
X146450001Y-75050000D02*
X145549999Y-75050000D01*
G75*
G02*
X145300000Y-74800001I0J249999D01*
G01*
X145300000Y-74149999D01*
G75*
G02*
X145549999Y-73900000I249999J0D01*
G01*
X146450001Y-73900000D01*
G75*
G02*
X146700000Y-74149999I0J-249999D01*
G01*
X146700000Y-74800001D01*
G75*
G02*
X146450001Y-75050000I-249999J0D01*
G01*
G37*
G36*
G01*
X146450001Y-77100000D02*
X145549999Y-77100000D01*
G75*
G02*
X145300000Y-76850001I0J249999D01*
G01*
X145300000Y-76199999D01*
G75*
G02*
X145549999Y-75950000I249999J0D01*
G01*
X146450001Y-75950000D01*
G75*
G02*
X146700000Y-76199999I0J-249999D01*
G01*
X146700000Y-76850001D01*
G75*
G02*
X146450001Y-77100000I-249999J0D01*
G01*
G37*
G36*
G01*
X144450001Y-75050000D02*
X143549999Y-75050000D01*
G75*
G02*
X143300000Y-74800001I0J249999D01*
G01*
X143300000Y-74149999D01*
G75*
G02*
X143549999Y-73900000I249999J0D01*
G01*
X144450001Y-73900000D01*
G75*
G02*
X144700000Y-74149999I0J-249999D01*
G01*
X144700000Y-74800001D01*
G75*
G02*
X144450001Y-75050000I-249999J0D01*
G01*
G37*
G36*
G01*
X144450001Y-77100000D02*
X143549999Y-77100000D01*
G75*
G02*
X143300000Y-76850001I0J249999D01*
G01*
X143300000Y-76199999D01*
G75*
G02*
X143549999Y-75950000I249999J0D01*
G01*
X144450001Y-75950000D01*
G75*
G02*
X144700000Y-76199999I0J-249999D01*
G01*
X144700000Y-76850001D01*
G75*
G02*
X144450001Y-77100000I-249999J0D01*
G01*
G37*
G36*
G01*
X133049999Y-77900000D02*
X133950001Y-77900000D01*
G75*
G02*
X134200000Y-78149999I0J-249999D01*
G01*
X134200000Y-78800001D01*
G75*
G02*
X133950001Y-79050000I-249999J0D01*
G01*
X133049999Y-79050000D01*
G75*
G02*
X132800000Y-78800001I0J249999D01*
G01*
X132800000Y-78149999D01*
G75*
G02*
X133049999Y-77900000I249999J0D01*
G01*
G37*
G36*
G01*
X133049999Y-79950000D02*
X133950001Y-79950000D01*
G75*
G02*
X134200000Y-80199999I0J-249999D01*
G01*
X134200000Y-80850001D01*
G75*
G02*
X133950001Y-81100000I-249999J0D01*
G01*
X133049999Y-81100000D01*
G75*
G02*
X132800000Y-80850001I0J249999D01*
G01*
X132800000Y-80199999D01*
G75*
G02*
X133049999Y-79950000I249999J0D01*
G01*
G37*
G36*
G01*
X135049999Y-77900000D02*
X135950001Y-77900000D01*
G75*
G02*
X136200000Y-78149999I0J-249999D01*
G01*
X136200000Y-78800001D01*
G75*
G02*
X135950001Y-79050000I-249999J0D01*
G01*
X135049999Y-79050000D01*
G75*
G02*
X134800000Y-78800001I0J249999D01*
G01*
X134800000Y-78149999D01*
G75*
G02*
X135049999Y-77900000I249999J0D01*
G01*
G37*
G36*
G01*
X135049999Y-79950000D02*
X135950001Y-79950000D01*
G75*
G02*
X136200000Y-80199999I0J-249999D01*
G01*
X136200000Y-80850001D01*
G75*
G02*
X135950001Y-81100000I-249999J0D01*
G01*
X135049999Y-81100000D01*
G75*
G02*
X134800000Y-80850001I0J249999D01*
G01*
X134800000Y-80199999D01*
G75*
G02*
X135049999Y-79950000I249999J0D01*
G01*
G37*
G36*
G01*
X124549999Y-64400000D02*
X125450001Y-64400000D01*
G75*
G02*
X125700000Y-64649999I0J-249999D01*
G01*
X125700000Y-65300001D01*
G75*
G02*
X125450001Y-65550000I-249999J0D01*
G01*
X124549999Y-65550000D01*
G75*
G02*
X124300000Y-65300001I0J249999D01*
G01*
X124300000Y-64649999D01*
G75*
G02*
X124549999Y-64400000I249999J0D01*
G01*
G37*
G36*
G01*
X124549999Y-66450000D02*
X125450001Y-66450000D01*
G75*
G02*
X125700000Y-66699999I0J-249999D01*
G01*
X125700000Y-67350001D01*
G75*
G02*
X125450001Y-67600000I-249999J0D01*
G01*
X124549999Y-67600000D01*
G75*
G02*
X124300000Y-67350001I0J249999D01*
G01*
X124300000Y-66699999D01*
G75*
G02*
X124549999Y-66450000I249999J0D01*
G01*
G37*
G36*
G01*
X124549999Y-70425000D02*
X125450001Y-70425000D01*
G75*
G02*
X125700000Y-70674999I0J-249999D01*
G01*
X125700000Y-71325001D01*
G75*
G02*
X125450001Y-71575000I-249999J0D01*
G01*
X124549999Y-71575000D01*
G75*
G02*
X124300000Y-71325001I0J249999D01*
G01*
X124300000Y-70674999D01*
G75*
G02*
X124549999Y-70425000I249999J0D01*
G01*
G37*
G36*
G01*
X124549999Y-68375000D02*
X125450001Y-68375000D01*
G75*
G02*
X125700000Y-68624999I0J-249999D01*
G01*
X125700000Y-69275001D01*
G75*
G02*
X125450001Y-69525000I-249999J0D01*
G01*
X124549999Y-69525000D01*
G75*
G02*
X124300000Y-69275001I0J249999D01*
G01*
X124300000Y-68624999D01*
G75*
G02*
X124549999Y-68375000I249999J0D01*
G01*
G37*
G36*
G01*
X129600000Y-68549999D02*
X129600000Y-69450001D01*
G75*
G02*
X129350001Y-69700000I-249999J0D01*
G01*
X128699999Y-69700000D01*
G75*
G02*
X128450000Y-69450001I0J249999D01*
G01*
X128450000Y-68549999D01*
G75*
G02*
X128699999Y-68300000I249999J0D01*
G01*
X129350001Y-68300000D01*
G75*
G02*
X129600000Y-68549999I0J-249999D01*
G01*
G37*
G36*
G01*
X127550000Y-68549999D02*
X127550000Y-69450001D01*
G75*
G02*
X127300001Y-69700000I-249999J0D01*
G01*
X126649999Y-69700000D01*
G75*
G02*
X126400000Y-69450001I0J249999D01*
G01*
X126400000Y-68549999D01*
G75*
G02*
X126649999Y-68300000I249999J0D01*
G01*
X127300001Y-68300000D01*
G75*
G02*
X127550000Y-68549999I0J-249999D01*
G01*
G37*
G36*
G01*
X137425000Y-129450001D02*
X137425000Y-128549999D01*
G75*
G02*
X137674999Y-128300000I249999J0D01*
G01*
X138325001Y-128300000D01*
G75*
G02*
X138575000Y-128549999I0J-249999D01*
G01*
X138575000Y-129450001D01*
G75*
G02*
X138325001Y-129700000I-249999J0D01*
G01*
X137674999Y-129700000D01*
G75*
G02*
X137425000Y-129450001I0J249999D01*
G01*
G37*
G36*
G01*
X135375000Y-129450001D02*
X135375000Y-128549999D01*
G75*
G02*
X135624999Y-128300000I249999J0D01*
G01*
X136275001Y-128300000D01*
G75*
G02*
X136525000Y-128549999I0J-249999D01*
G01*
X136525000Y-129450001D01*
G75*
G02*
X136275001Y-129700000I-249999J0D01*
G01*
X135624999Y-129700000D01*
G75*
G02*
X135375000Y-129450001I0J249999D01*
G01*
G37*
G36*
G01*
X139450000Y-66040000D02*
X139450000Y-66340000D01*
G75*
G02*
X139300000Y-66490000I-150000J0D01*
G01*
X137625000Y-66490000D01*
G75*
G02*
X137475000Y-66340000I0J150000D01*
G01*
X137475000Y-66040000D01*
G75*
G02*
X137625000Y-65890000I150000J0D01*
G01*
X139300000Y-65890000D01*
G75*
G02*
X139450000Y-66040000I0J-150000D01*
G01*
G37*
G36*
G01*
X139450000Y-67310000D02*
X139450000Y-67610000D01*
G75*
G02*
X139300000Y-67760000I-150000J0D01*
G01*
X137625000Y-67760000D01*
G75*
G02*
X137475000Y-67610000I0J150000D01*
G01*
X137475000Y-67310000D01*
G75*
G02*
X137625000Y-67160000I150000J0D01*
G01*
X139300000Y-67160000D01*
G75*
G02*
X139450000Y-67310000I0J-150000D01*
G01*
G37*
G36*
G01*
X139450000Y-68580000D02*
X139450000Y-68880000D01*
G75*
G02*
X139300000Y-69030000I-150000J0D01*
G01*
X137625000Y-69030000D01*
G75*
G02*
X137475000Y-68880000I0J150000D01*
G01*
X137475000Y-68580000D01*
G75*
G02*
X137625000Y-68430000I150000J0D01*
G01*
X139300000Y-68430000D01*
G75*
G02*
X139450000Y-68580000I0J-150000D01*
G01*
G37*
G36*
G01*
X139450000Y-69850000D02*
X139450000Y-70150000D01*
G75*
G02*
X139300000Y-70300000I-150000J0D01*
G01*
X137625000Y-70300000D01*
G75*
G02*
X137475000Y-70150000I0J150000D01*
G01*
X137475000Y-69850000D01*
G75*
G02*
X137625000Y-69700000I150000J0D01*
G01*
X139300000Y-69700000D01*
G75*
G02*
X139450000Y-69850000I0J-150000D01*
G01*
G37*
G36*
G01*
X139450000Y-71120000D02*
X139450000Y-71420000D01*
G75*
G02*
X139300000Y-71570000I-150000J0D01*
G01*
X137625000Y-71570000D01*
G75*
G02*
X137475000Y-71420000I0J150000D01*
G01*
X137475000Y-71120000D01*
G75*
G02*
X137625000Y-70970000I150000J0D01*
G01*
X139300000Y-70970000D01*
G75*
G02*
X139450000Y-71120000I0J-150000D01*
G01*
G37*
G36*
G01*
X139450000Y-72390000D02*
X139450000Y-72690000D01*
G75*
G02*
X139300000Y-72840000I-150000J0D01*
G01*
X137625000Y-72840000D01*
G75*
G02*
X137475000Y-72690000I0J150000D01*
G01*
X137475000Y-72390000D01*
G75*
G02*
X137625000Y-72240000I150000J0D01*
G01*
X139300000Y-72240000D01*
G75*
G02*
X139450000Y-72390000I0J-150000D01*
G01*
G37*
G36*
G01*
X139450000Y-73660000D02*
X139450000Y-73960000D01*
G75*
G02*
X139300000Y-74110000I-150000J0D01*
G01*
X137625000Y-74110000D01*
G75*
G02*
X137475000Y-73960000I0J150000D01*
G01*
X137475000Y-73660000D01*
G75*
G02*
X137625000Y-73510000I150000J0D01*
G01*
X139300000Y-73510000D01*
G75*
G02*
X139450000Y-73660000I0J-150000D01*
G01*
G37*
G36*
G01*
X132525000Y-73660000D02*
X132525000Y-73960000D01*
G75*
G02*
X132375000Y-74110000I-150000J0D01*
G01*
X130700000Y-74110000D01*
G75*
G02*
X130550000Y-73960000I0J150000D01*
G01*
X130550000Y-73660000D01*
G75*
G02*
X130700000Y-73510000I150000J0D01*
G01*
X132375000Y-73510000D01*
G75*
G02*
X132525000Y-73660000I0J-150000D01*
G01*
G37*
G36*
G01*
X132525000Y-72390000D02*
X132525000Y-72690000D01*
G75*
G02*
X132375000Y-72840000I-150000J0D01*
G01*
X130700000Y-72840000D01*
G75*
G02*
X130550000Y-72690000I0J150000D01*
G01*
X130550000Y-72390000D01*
G75*
G02*
X130700000Y-72240000I150000J0D01*
G01*
X132375000Y-72240000D01*
G75*
G02*
X132525000Y-72390000I0J-150000D01*
G01*
G37*
G36*
G01*
X132525000Y-71120000D02*
X132525000Y-71420000D01*
G75*
G02*
X132375000Y-71570000I-150000J0D01*
G01*
X130700000Y-71570000D01*
G75*
G02*
X130550000Y-71420000I0J150000D01*
G01*
X130550000Y-71120000D01*
G75*
G02*
X130700000Y-70970000I150000J0D01*
G01*
X132375000Y-70970000D01*
G75*
G02*
X132525000Y-71120000I0J-150000D01*
G01*
G37*
G36*
G01*
X132525000Y-69850000D02*
X132525000Y-70150000D01*
G75*
G02*
X132375000Y-70300000I-150000J0D01*
G01*
X130700000Y-70300000D01*
G75*
G02*
X130550000Y-70150000I0J150000D01*
G01*
X130550000Y-69850000D01*
G75*
G02*
X130700000Y-69700000I150000J0D01*
G01*
X132375000Y-69700000D01*
G75*
G02*
X132525000Y-69850000I0J-150000D01*
G01*
G37*
G36*
G01*
X132525000Y-68580000D02*
X132525000Y-68880000D01*
G75*
G02*
X132375000Y-69030000I-150000J0D01*
G01*
X130700000Y-69030000D01*
G75*
G02*
X130550000Y-68880000I0J150000D01*
G01*
X130550000Y-68580000D01*
G75*
G02*
X130700000Y-68430000I150000J0D01*
G01*
X132375000Y-68430000D01*
G75*
G02*
X132525000Y-68580000I0J-150000D01*
G01*
G37*
G36*
G01*
X132525000Y-67310000D02*
X132525000Y-67610000D01*
G75*
G02*
X132375000Y-67760000I-150000J0D01*
G01*
X130700000Y-67760000D01*
G75*
G02*
X130550000Y-67610000I0J150000D01*
G01*
X130550000Y-67310000D01*
G75*
G02*
X130700000Y-67160000I150000J0D01*
G01*
X132375000Y-67160000D01*
G75*
G02*
X132525000Y-67310000I0J-150000D01*
G01*
G37*
G36*
G01*
X132525000Y-66040000D02*
X132525000Y-66340000D01*
G75*
G02*
X132375000Y-66490000I-150000J0D01*
G01*
X130700000Y-66490000D01*
G75*
G02*
X130550000Y-66340000I0J150000D01*
G01*
X130550000Y-66040000D01*
G75*
G02*
X130700000Y-65890000I150000J0D01*
G01*
X132375000Y-65890000D01*
G75*
G02*
X132525000Y-66040000I0J-150000D01*
G01*
G37*
G36*
G01*
X122549999Y-85950000D02*
X123450001Y-85950000D01*
G75*
G02*
X123700000Y-86199999I0J-249999D01*
G01*
X123700000Y-86850001D01*
G75*
G02*
X123450001Y-87100000I-249999J0D01*
G01*
X122549999Y-87100000D01*
G75*
G02*
X122300000Y-86850001I0J249999D01*
G01*
X122300000Y-86199999D01*
G75*
G02*
X122549999Y-85950000I249999J0D01*
G01*
G37*
G36*
G01*
X122549999Y-83900000D02*
X123450001Y-83900000D01*
G75*
G02*
X123700000Y-84149999I0J-249999D01*
G01*
X123700000Y-84800001D01*
G75*
G02*
X123450001Y-85050000I-249999J0D01*
G01*
X122549999Y-85050000D01*
G75*
G02*
X122300000Y-84800001I0J249999D01*
G01*
X122300000Y-84149999D01*
G75*
G02*
X122549999Y-83900000I249999J0D01*
G01*
G37*
G36*
G01*
X117425000Y-107450001D02*
X117425000Y-106549999D01*
G75*
G02*
X117674999Y-106300000I249999J0D01*
G01*
X118325001Y-106300000D01*
G75*
G02*
X118575000Y-106549999I0J-249999D01*
G01*
X118575000Y-107450001D01*
G75*
G02*
X118325001Y-107700000I-249999J0D01*
G01*
X117674999Y-107700000D01*
G75*
G02*
X117425000Y-107450001I0J249999D01*
G01*
G37*
G36*
G01*
X115375000Y-107450001D02*
X115375000Y-106549999D01*
G75*
G02*
X115624999Y-106300000I249999J0D01*
G01*
X116275001Y-106300000D01*
G75*
G02*
X116525000Y-106549999I0J-249999D01*
G01*
X116525000Y-107450001D01*
G75*
G02*
X116275001Y-107700000I-249999J0D01*
G01*
X115624999Y-107700000D01*
G75*
G02*
X115375000Y-107450001I0J249999D01*
G01*
G37*
G36*
G01*
X120450000Y-95450001D02*
X120450000Y-94549999D01*
G75*
G02*
X120699999Y-94300000I249999J0D01*
G01*
X121350001Y-94300000D01*
G75*
G02*
X121600000Y-94549999I0J-249999D01*
G01*
X121600000Y-95450001D01*
G75*
G02*
X121350001Y-95700000I-249999J0D01*
G01*
X120699999Y-95700000D01*
G75*
G02*
X120450000Y-95450001I0J249999D01*
G01*
G37*
G36*
G01*
X118400000Y-95450001D02*
X118400000Y-94549999D01*
G75*
G02*
X118649999Y-94300000I249999J0D01*
G01*
X119300001Y-94300000D01*
G75*
G02*
X119550000Y-94549999I0J-249999D01*
G01*
X119550000Y-95450001D01*
G75*
G02*
X119300001Y-95700000I-249999J0D01*
G01*
X118649999Y-95700000D01*
G75*
G02*
X118400000Y-95450001I0J249999D01*
G01*
G37*
G36*
G01*
X116549999Y-148450000D02*
X117450001Y-148450000D01*
G75*
G02*
X117700000Y-148699999I0J-249999D01*
G01*
X117700000Y-149350001D01*
G75*
G02*
X117450001Y-149600000I-249999J0D01*
G01*
X116549999Y-149600000D01*
G75*
G02*
X116300000Y-149350001I0J249999D01*
G01*
X116300000Y-148699999D01*
G75*
G02*
X116549999Y-148450000I249999J0D01*
G01*
G37*
G36*
G01*
X116549999Y-146400000D02*
X117450001Y-146400000D01*
G75*
G02*
X117700000Y-146649999I0J-249999D01*
G01*
X117700000Y-147300001D01*
G75*
G02*
X117450001Y-147550000I-249999J0D01*
G01*
X116549999Y-147550000D01*
G75*
G02*
X116300000Y-147300001I0J249999D01*
G01*
X116300000Y-146649999D01*
G75*
G02*
X116549999Y-146400000I249999J0D01*
G01*
G37*
G36*
G01*
X116549999Y-138950000D02*
X117450001Y-138950000D01*
G75*
G02*
X117700000Y-139199999I0J-249999D01*
G01*
X117700000Y-139850001D01*
G75*
G02*
X117450001Y-140100000I-249999J0D01*
G01*
X116549999Y-140100000D01*
G75*
G02*
X116300000Y-139850001I0J249999D01*
G01*
X116300000Y-139199999D01*
G75*
G02*
X116549999Y-138950000I249999J0D01*
G01*
G37*
G36*
G01*
X116549999Y-136900000D02*
X117450001Y-136900000D01*
G75*
G02*
X117700000Y-137149999I0J-249999D01*
G01*
X117700000Y-137800001D01*
G75*
G02*
X117450001Y-138050000I-249999J0D01*
G01*
X116549999Y-138050000D01*
G75*
G02*
X116300000Y-137800001I0J249999D01*
G01*
X116300000Y-137149999D01*
G75*
G02*
X116549999Y-136900000I249999J0D01*
G01*
G37*
G36*
G01*
X123450001Y-75100000D02*
X122549999Y-75100000D01*
G75*
G02*
X122300000Y-74850001I0J249999D01*
G01*
X122300000Y-74199999D01*
G75*
G02*
X122549999Y-73950000I249999J0D01*
G01*
X123450001Y-73950000D01*
G75*
G02*
X123700000Y-74199999I0J-249999D01*
G01*
X123700000Y-74850001D01*
G75*
G02*
X123450001Y-75100000I-249999J0D01*
G01*
G37*
G36*
G01*
X123450001Y-73050000D02*
X122549999Y-73050000D01*
G75*
G02*
X122300000Y-72800001I0J249999D01*
G01*
X122300000Y-72149999D01*
G75*
G02*
X122549999Y-71900000I249999J0D01*
G01*
X123450001Y-71900000D01*
G75*
G02*
X123700000Y-72149999I0J-249999D01*
G01*
X123700000Y-72800001D01*
G75*
G02*
X123450001Y-73050000I-249999J0D01*
G01*
G37*
G36*
G01*
X123950000Y-101950001D02*
X123950000Y-101049999D01*
G75*
G02*
X124199999Y-100800000I249999J0D01*
G01*
X124850001Y-100800000D01*
G75*
G02*
X125100000Y-101049999I0J-249999D01*
G01*
X125100000Y-101950001D01*
G75*
G02*
X124850001Y-102200000I-249999J0D01*
G01*
X124199999Y-102200000D01*
G75*
G02*
X123950000Y-101950001I0J249999D01*
G01*
G37*
G36*
G01*
X121900000Y-101950001D02*
X121900000Y-101049999D01*
G75*
G02*
X122149999Y-100800000I249999J0D01*
G01*
X122800001Y-100800000D01*
G75*
G02*
X123050000Y-101049999I0J-249999D01*
G01*
X123050000Y-101950001D01*
G75*
G02*
X122800001Y-102200000I-249999J0D01*
G01*
X122149999Y-102200000D01*
G75*
G02*
X121900000Y-101950001I0J249999D01*
G01*
G37*
G36*
G01*
X119400000Y-115450001D02*
X119400000Y-114549999D01*
G75*
G02*
X119649999Y-114300000I249999J0D01*
G01*
X120300001Y-114300000D01*
G75*
G02*
X120550000Y-114549999I0J-249999D01*
G01*
X120550000Y-115450001D01*
G75*
G02*
X120300001Y-115700000I-249999J0D01*
G01*
X119649999Y-115700000D01*
G75*
G02*
X119400000Y-115450001I0J249999D01*
G01*
G37*
G36*
G01*
X121450000Y-115450001D02*
X121450000Y-114549999D01*
G75*
G02*
X121699999Y-114300000I249999J0D01*
G01*
X122350001Y-114300000D01*
G75*
G02*
X122600000Y-114549999I0J-249999D01*
G01*
X122600000Y-115450001D01*
G75*
G02*
X122350001Y-115700000I-249999J0D01*
G01*
X121699999Y-115700000D01*
G75*
G02*
X121450000Y-115450001I0J249999D01*
G01*
G37*
G36*
G01*
X148450001Y-65075000D02*
X147549999Y-65075000D01*
G75*
G02*
X147300000Y-64825001I0J249999D01*
G01*
X147300000Y-64174999D01*
G75*
G02*
X147549999Y-63925000I249999J0D01*
G01*
X148450001Y-63925000D01*
G75*
G02*
X148700000Y-64174999I0J-249999D01*
G01*
X148700000Y-64825001D01*
G75*
G02*
X148450001Y-65075000I-249999J0D01*
G01*
G37*
G36*
G01*
X148450001Y-63025000D02*
X147549999Y-63025000D01*
G75*
G02*
X147300000Y-62775001I0J249999D01*
G01*
X147300000Y-62124999D01*
G75*
G02*
X147549999Y-61875000I249999J0D01*
G01*
X148450001Y-61875000D01*
G75*
G02*
X148700000Y-62124999I0J-249999D01*
G01*
X148700000Y-62775001D01*
G75*
G02*
X148450001Y-63025000I-249999J0D01*
G01*
G37*
G36*
G01*
X148450001Y-79050000D02*
X147549999Y-79050000D01*
G75*
G02*
X147300000Y-78800001I0J249999D01*
G01*
X147300000Y-78149999D01*
G75*
G02*
X147549999Y-77900000I249999J0D01*
G01*
X148450001Y-77900000D01*
G75*
G02*
X148700000Y-78149999I0J-249999D01*
G01*
X148700000Y-78800001D01*
G75*
G02*
X148450001Y-79050000I-249999J0D01*
G01*
G37*
G36*
G01*
X148450001Y-81100000D02*
X147549999Y-81100000D01*
G75*
G02*
X147300000Y-80850001I0J249999D01*
G01*
X147300000Y-80199999D01*
G75*
G02*
X147549999Y-79950000I249999J0D01*
G01*
X148450001Y-79950000D01*
G75*
G02*
X148700000Y-80199999I0J-249999D01*
G01*
X148700000Y-80850001D01*
G75*
G02*
X148450001Y-81100000I-249999J0D01*
G01*
G37*
G36*
G01*
X130100000Y-102049999D02*
X130100000Y-102950001D01*
G75*
G02*
X129850001Y-103200000I-249999J0D01*
G01*
X129199999Y-103200000D01*
G75*
G02*
X128950000Y-102950001I0J249999D01*
G01*
X128950000Y-102049999D01*
G75*
G02*
X129199999Y-101800000I249999J0D01*
G01*
X129850001Y-101800000D01*
G75*
G02*
X130100000Y-102049999I0J-249999D01*
G01*
G37*
G36*
G01*
X128050000Y-102049999D02*
X128050000Y-102950001D01*
G75*
G02*
X127800001Y-103200000I-249999J0D01*
G01*
X127149999Y-103200000D01*
G75*
G02*
X126900000Y-102950001I0J249999D01*
G01*
X126900000Y-102049999D01*
G75*
G02*
X127149999Y-101800000I249999J0D01*
G01*
X127800001Y-101800000D01*
G75*
G02*
X128050000Y-102049999I0J-249999D01*
G01*
G37*
G36*
G01*
X128950000Y-100950001D02*
X128950000Y-100049999D01*
G75*
G02*
X129199999Y-99800000I249999J0D01*
G01*
X129850001Y-99800000D01*
G75*
G02*
X130100000Y-100049999I0J-249999D01*
G01*
X130100000Y-100950001D01*
G75*
G02*
X129850001Y-101200000I-249999J0D01*
G01*
X129199999Y-101200000D01*
G75*
G02*
X128950000Y-100950001I0J249999D01*
G01*
G37*
G36*
G01*
X126900000Y-100950001D02*
X126900000Y-100049999D01*
G75*
G02*
X127149999Y-99800000I249999J0D01*
G01*
X127800001Y-99800000D01*
G75*
G02*
X128050000Y-100049999I0J-249999D01*
G01*
X128050000Y-100950001D01*
G75*
G02*
X127800001Y-101200000I-249999J0D01*
G01*
X127149999Y-101200000D01*
G75*
G02*
X126900000Y-100950001I0J249999D01*
G01*
G37*
G36*
G01*
X142450001Y-63050000D02*
X141549999Y-63050000D01*
G75*
G02*
X141300000Y-62800001I0J249999D01*
G01*
X141300000Y-62149999D01*
G75*
G02*
X141549999Y-61900000I249999J0D01*
G01*
X142450001Y-61900000D01*
G75*
G02*
X142700000Y-62149999I0J-249999D01*
G01*
X142700000Y-62800001D01*
G75*
G02*
X142450001Y-63050000I-249999J0D01*
G01*
G37*
G36*
G01*
X142450001Y-65100000D02*
X141549999Y-65100000D01*
G75*
G02*
X141300000Y-64850001I0J249999D01*
G01*
X141300000Y-64199999D01*
G75*
G02*
X141549999Y-63950000I249999J0D01*
G01*
X142450001Y-63950000D01*
G75*
G02*
X142700000Y-64199999I0J-249999D01*
G01*
X142700000Y-64850001D01*
G75*
G02*
X142450001Y-65100000I-249999J0D01*
G01*
G37*
G36*
G01*
X142450001Y-81075000D02*
X141549999Y-81075000D01*
G75*
G02*
X141300000Y-80825001I0J249999D01*
G01*
X141300000Y-80174999D01*
G75*
G02*
X141549999Y-79925000I249999J0D01*
G01*
X142450001Y-79925000D01*
G75*
G02*
X142700000Y-80174999I0J-249999D01*
G01*
X142700000Y-80825001D01*
G75*
G02*
X142450001Y-81075000I-249999J0D01*
G01*
G37*
G36*
G01*
X142450001Y-79025000D02*
X141549999Y-79025000D01*
G75*
G02*
X141300000Y-78775001I0J249999D01*
G01*
X141300000Y-78124999D01*
G75*
G02*
X141549999Y-77875000I249999J0D01*
G01*
X142450001Y-77875000D01*
G75*
G02*
X142700000Y-78124999I0J-249999D01*
G01*
X142700000Y-78775001D01*
G75*
G02*
X142450001Y-79025000I-249999J0D01*
G01*
G37*
G36*
G01*
X148450001Y-67025000D02*
X147549999Y-67025000D01*
G75*
G02*
X147300000Y-66775001I0J249999D01*
G01*
X147300000Y-66124999D01*
G75*
G02*
X147549999Y-65875000I249999J0D01*
G01*
X148450001Y-65875000D01*
G75*
G02*
X148700000Y-66124999I0J-249999D01*
G01*
X148700000Y-66775001D01*
G75*
G02*
X148450001Y-67025000I-249999J0D01*
G01*
G37*
G36*
G01*
X148450001Y-69075000D02*
X147549999Y-69075000D01*
G75*
G02*
X147300000Y-68825001I0J249999D01*
G01*
X147300000Y-68174999D01*
G75*
G02*
X147549999Y-67925000I249999J0D01*
G01*
X148450001Y-67925000D01*
G75*
G02*
X148700000Y-68174999I0J-249999D01*
G01*
X148700000Y-68825001D01*
G75*
G02*
X148450001Y-69075000I-249999J0D01*
G01*
G37*
G36*
G01*
X148450001Y-85100000D02*
X147549999Y-85100000D01*
G75*
G02*
X147300000Y-84850001I0J249999D01*
G01*
X147300000Y-84199999D01*
G75*
G02*
X147549999Y-83950000I249999J0D01*
G01*
X148450001Y-83950000D01*
G75*
G02*
X148700000Y-84199999I0J-249999D01*
G01*
X148700000Y-84850001D01*
G75*
G02*
X148450001Y-85100000I-249999J0D01*
G01*
G37*
G36*
G01*
X148450001Y-83050000D02*
X147549999Y-83050000D01*
G75*
G02*
X147300000Y-82800001I0J249999D01*
G01*
X147300000Y-82149999D01*
G75*
G02*
X147549999Y-81900000I249999J0D01*
G01*
X148450001Y-81900000D01*
G75*
G02*
X148700000Y-82149999I0J-249999D01*
G01*
X148700000Y-82800001D01*
G75*
G02*
X148450001Y-83050000I-249999J0D01*
G01*
G37*
G36*
G01*
X145549999Y-114900000D02*
X146450001Y-114900000D01*
G75*
G02*
X146700000Y-115149999I0J-249999D01*
G01*
X146700000Y-115800001D01*
G75*
G02*
X146450001Y-116050000I-249999J0D01*
G01*
X145549999Y-116050000D01*
G75*
G02*
X145300000Y-115800001I0J249999D01*
G01*
X145300000Y-115149999D01*
G75*
G02*
X145549999Y-114900000I249999J0D01*
G01*
G37*
G36*
G01*
X145549999Y-116950000D02*
X146450001Y-116950000D01*
G75*
G02*
X146700000Y-117199999I0J-249999D01*
G01*
X146700000Y-117850001D01*
G75*
G02*
X146450001Y-118100000I-249999J0D01*
G01*
X145549999Y-118100000D01*
G75*
G02*
X145300000Y-117850001I0J249999D01*
G01*
X145300000Y-117199999D01*
G75*
G02*
X145549999Y-116950000I249999J0D01*
G01*
G37*
G36*
G01*
X116549999Y-126900000D02*
X117450001Y-126900000D01*
G75*
G02*
X117700000Y-127149999I0J-249999D01*
G01*
X117700000Y-127800001D01*
G75*
G02*
X117450001Y-128050000I-249999J0D01*
G01*
X116549999Y-128050000D01*
G75*
G02*
X116300000Y-127800001I0J249999D01*
G01*
X116300000Y-127149999D01*
G75*
G02*
X116549999Y-126900000I249999J0D01*
G01*
G37*
G36*
G01*
X116549999Y-128950000D02*
X117450001Y-128950000D01*
G75*
G02*
X117700000Y-129199999I0J-249999D01*
G01*
X117700000Y-129850001D01*
G75*
G02*
X117450001Y-130100000I-249999J0D01*
G01*
X116549999Y-130100000D01*
G75*
G02*
X116300000Y-129850001I0J249999D01*
G01*
X116300000Y-129199999D01*
G75*
G02*
X116549999Y-128950000I249999J0D01*
G01*
G37*
G36*
G01*
X116549999Y-118950000D02*
X117450001Y-118950000D01*
G75*
G02*
X117700000Y-119199999I0J-249999D01*
G01*
X117700000Y-119850001D01*
G75*
G02*
X117450001Y-120100000I-249999J0D01*
G01*
X116549999Y-120100000D01*
G75*
G02*
X116300000Y-119850001I0J249999D01*
G01*
X116300000Y-119199999D01*
G75*
G02*
X116549999Y-118950000I249999J0D01*
G01*
G37*
G36*
G01*
X116549999Y-116900000D02*
X117450001Y-116900000D01*
G75*
G02*
X117700000Y-117149999I0J-249999D01*
G01*
X117700000Y-117800001D01*
G75*
G02*
X117450001Y-118050000I-249999J0D01*
G01*
X116549999Y-118050000D01*
G75*
G02*
X116300000Y-117800001I0J249999D01*
G01*
X116300000Y-117149999D01*
G75*
G02*
X116549999Y-116900000I249999J0D01*
G01*
G37*
G36*
G01*
X142450001Y-104550000D02*
X141549999Y-104550000D01*
G75*
G02*
X141300000Y-104300001I0J249999D01*
G01*
X141300000Y-103649999D01*
G75*
G02*
X141549999Y-103400000I249999J0D01*
G01*
X142450001Y-103400000D01*
G75*
G02*
X142700000Y-103649999I0J-249999D01*
G01*
X142700000Y-104300001D01*
G75*
G02*
X142450001Y-104550000I-249999J0D01*
G01*
G37*
G36*
G01*
X142450001Y-106600000D02*
X141549999Y-106600000D01*
G75*
G02*
X141300000Y-106350001I0J249999D01*
G01*
X141300000Y-105699999D01*
G75*
G02*
X141549999Y-105450000I249999J0D01*
G01*
X142450001Y-105450000D01*
G75*
G02*
X142700000Y-105699999I0J-249999D01*
G01*
X142700000Y-106350001D01*
G75*
G02*
X142450001Y-106600000I-249999J0D01*
G01*
G37*
G36*
G01*
X148450001Y-71050000D02*
X147549999Y-71050000D01*
G75*
G02*
X147300000Y-70800001I0J249999D01*
G01*
X147300000Y-70149999D01*
G75*
G02*
X147549999Y-69900000I249999J0D01*
G01*
X148450001Y-69900000D01*
G75*
G02*
X148700000Y-70149999I0J-249999D01*
G01*
X148700000Y-70800001D01*
G75*
G02*
X148450001Y-71050000I-249999J0D01*
G01*
G37*
G36*
G01*
X148450001Y-73100000D02*
X147549999Y-73100000D01*
G75*
G02*
X147300000Y-72850001I0J249999D01*
G01*
X147300000Y-72199999D01*
G75*
G02*
X147549999Y-71950000I249999J0D01*
G01*
X148450001Y-71950000D01*
G75*
G02*
X148700000Y-72199999I0J-249999D01*
G01*
X148700000Y-72850001D01*
G75*
G02*
X148450001Y-73100000I-249999J0D01*
G01*
G37*
G36*
G01*
X131049999Y-81900000D02*
X131950001Y-81900000D01*
G75*
G02*
X132200000Y-82149999I0J-249999D01*
G01*
X132200000Y-82800001D01*
G75*
G02*
X131950001Y-83050000I-249999J0D01*
G01*
X131049999Y-83050000D01*
G75*
G02*
X130800000Y-82800001I0J249999D01*
G01*
X130800000Y-82149999D01*
G75*
G02*
X131049999Y-81900000I249999J0D01*
G01*
G37*
G36*
G01*
X131049999Y-83950000D02*
X131950001Y-83950000D01*
G75*
G02*
X132200000Y-84199999I0J-249999D01*
G01*
X132200000Y-84850001D01*
G75*
G02*
X131950001Y-85100000I-249999J0D01*
G01*
X131049999Y-85100000D01*
G75*
G02*
X130800000Y-84850001I0J249999D01*
G01*
X130800000Y-84199999D01*
G75*
G02*
X131049999Y-83950000I249999J0D01*
G01*
G37*
G36*
G01*
X142450001Y-73100000D02*
X141549999Y-73100000D01*
G75*
G02*
X141300000Y-72850001I0J249999D01*
G01*
X141300000Y-72199999D01*
G75*
G02*
X141549999Y-71950000I249999J0D01*
G01*
X142450001Y-71950000D01*
G75*
G02*
X142700000Y-72199999I0J-249999D01*
G01*
X142700000Y-72850001D01*
G75*
G02*
X142450001Y-73100000I-249999J0D01*
G01*
G37*
G36*
G01*
X142450001Y-71050000D02*
X141549999Y-71050000D01*
G75*
G02*
X141300000Y-70800001I0J249999D01*
G01*
X141300000Y-70149999D01*
G75*
G02*
X141549999Y-69900000I249999J0D01*
G01*
X142450001Y-69900000D01*
G75*
G02*
X142700000Y-70149999I0J-249999D01*
G01*
X142700000Y-70800001D01*
G75*
G02*
X142450001Y-71050000I-249999J0D01*
G01*
G37*
G36*
G01*
X137049999Y-81900000D02*
X137950001Y-81900000D01*
G75*
G02*
X138200000Y-82149999I0J-249999D01*
G01*
X138200000Y-82800001D01*
G75*
G02*
X137950001Y-83050000I-249999J0D01*
G01*
X137049999Y-83050000D01*
G75*
G02*
X136800000Y-82800001I0J249999D01*
G01*
X136800000Y-82149999D01*
G75*
G02*
X137049999Y-81900000I249999J0D01*
G01*
G37*
G36*
G01*
X137049999Y-83950000D02*
X137950001Y-83950000D01*
G75*
G02*
X138200000Y-84199999I0J-249999D01*
G01*
X138200000Y-84850001D01*
G75*
G02*
X137950001Y-85100000I-249999J0D01*
G01*
X137049999Y-85100000D01*
G75*
G02*
X136800000Y-84850001I0J249999D01*
G01*
X136800000Y-84199999D01*
G75*
G02*
X137049999Y-83950000I249999J0D01*
G01*
G37*
G36*
G01*
X148450001Y-77100000D02*
X147549999Y-77100000D01*
G75*
G02*
X147300000Y-76850001I0J249999D01*
G01*
X147300000Y-76199999D01*
G75*
G02*
X147549999Y-75950000I249999J0D01*
G01*
X148450001Y-75950000D01*
G75*
G02*
X148700000Y-76199999I0J-249999D01*
G01*
X148700000Y-76850001D01*
G75*
G02*
X148450001Y-77100000I-249999J0D01*
G01*
G37*
G36*
G01*
X148450001Y-75050000D02*
X147549999Y-75050000D01*
G75*
G02*
X147300000Y-74800001I0J249999D01*
G01*
X147300000Y-74149999D01*
G75*
G02*
X147549999Y-73900000I249999J0D01*
G01*
X148450001Y-73900000D01*
G75*
G02*
X148700000Y-74149999I0J-249999D01*
G01*
X148700000Y-74800001D01*
G75*
G02*
X148450001Y-75050000I-249999J0D01*
G01*
G37*
G36*
G01*
X131049999Y-79950000D02*
X131950001Y-79950000D01*
G75*
G02*
X132200000Y-80199999I0J-249999D01*
G01*
X132200000Y-80850001D01*
G75*
G02*
X131950001Y-81100000I-249999J0D01*
G01*
X131049999Y-81100000D01*
G75*
G02*
X130800000Y-80850001I0J249999D01*
G01*
X130800000Y-80199999D01*
G75*
G02*
X131049999Y-79950000I249999J0D01*
G01*
G37*
G36*
G01*
X131049999Y-77900000D02*
X131950001Y-77900000D01*
G75*
G02*
X132200000Y-78149999I0J-249999D01*
G01*
X132200000Y-78800001D01*
G75*
G02*
X131950001Y-79050000I-249999J0D01*
G01*
X131049999Y-79050000D01*
G75*
G02*
X130800000Y-78800001I0J249999D01*
G01*
X130800000Y-78149999D01*
G75*
G02*
X131049999Y-77900000I249999J0D01*
G01*
G37*
G36*
G01*
X135450000Y-63950001D02*
X135450000Y-63049999D01*
G75*
G02*
X135699999Y-62800000I249999J0D01*
G01*
X136350001Y-62800000D01*
G75*
G02*
X136600000Y-63049999I0J-249999D01*
G01*
X136600000Y-63950001D01*
G75*
G02*
X136350001Y-64200000I-249999J0D01*
G01*
X135699999Y-64200000D01*
G75*
G02*
X135450000Y-63950001I0J249999D01*
G01*
G37*
G36*
G01*
X133400000Y-63950001D02*
X133400000Y-63049999D01*
G75*
G02*
X133649999Y-62800000I249999J0D01*
G01*
X134300001Y-62800000D01*
G75*
G02*
X134550000Y-63049999I0J-249999D01*
G01*
X134550000Y-63950001D01*
G75*
G02*
X134300001Y-64200000I-249999J0D01*
G01*
X133649999Y-64200000D01*
G75*
G02*
X133400000Y-63950001I0J249999D01*
G01*
G37*
G36*
G01*
X129625000Y-70549999D02*
X129625000Y-71450001D01*
G75*
G02*
X129375001Y-71700000I-249999J0D01*
G01*
X128724999Y-71700000D01*
G75*
G02*
X128475000Y-71450001I0J249999D01*
G01*
X128475000Y-70549999D01*
G75*
G02*
X128724999Y-70300000I249999J0D01*
G01*
X129375001Y-70300000D01*
G75*
G02*
X129625000Y-70549999I0J-249999D01*
G01*
G37*
G36*
G01*
X127575000Y-70549999D02*
X127575000Y-71450001D01*
G75*
G02*
X127325001Y-71700000I-249999J0D01*
G01*
X126674999Y-71700000D01*
G75*
G02*
X126425000Y-71450001I0J249999D01*
G01*
X126425000Y-70549999D01*
G75*
G02*
X126674999Y-70300000I249999J0D01*
G01*
X127325001Y-70300000D01*
G75*
G02*
X127575000Y-70549999I0J-249999D01*
G01*
G37*
G36*
G01*
X126400000Y-67450001D02*
X126400000Y-66549999D01*
G75*
G02*
X126649999Y-66300000I249999J0D01*
G01*
X127300001Y-66300000D01*
G75*
G02*
X127550000Y-66549999I0J-249999D01*
G01*
X127550000Y-67450001D01*
G75*
G02*
X127300001Y-67700000I-249999J0D01*
G01*
X126649999Y-67700000D01*
G75*
G02*
X126400000Y-67450001I0J249999D01*
G01*
G37*
G36*
G01*
X128450000Y-67450001D02*
X128450000Y-66549999D01*
G75*
G02*
X128699999Y-66300000I249999J0D01*
G01*
X129350001Y-66300000D01*
G75*
G02*
X129600000Y-66549999I0J-249999D01*
G01*
X129600000Y-67450001D01*
G75*
G02*
X129350001Y-67700000I-249999J0D01*
G01*
X128699999Y-67700000D01*
G75*
G02*
X128450000Y-67450001I0J249999D01*
G01*
G37*
G36*
G01*
X138900000Y-125450001D02*
X138900000Y-124549999D01*
G75*
G02*
X139149999Y-124300000I249999J0D01*
G01*
X139800001Y-124300000D01*
G75*
G02*
X140050000Y-124549999I0J-249999D01*
G01*
X140050000Y-125450001D01*
G75*
G02*
X139800001Y-125700000I-249999J0D01*
G01*
X139149999Y-125700000D01*
G75*
G02*
X138900000Y-125450001I0J249999D01*
G01*
G37*
G36*
G01*
X140950000Y-125450001D02*
X140950000Y-124549999D01*
G75*
G02*
X141199999Y-124300000I249999J0D01*
G01*
X141850001Y-124300000D01*
G75*
G02*
X142100000Y-124549999I0J-249999D01*
G01*
X142100000Y-125450001D01*
G75*
G02*
X141850001Y-125700000I-249999J0D01*
G01*
X141199999Y-125700000D01*
G75*
G02*
X140950000Y-125450001I0J249999D01*
G01*
G37*
G36*
G01*
X137450001Y-143100000D02*
X136549999Y-143100000D01*
G75*
G02*
X136300000Y-142850001I0J249999D01*
G01*
X136300000Y-142199999D01*
G75*
G02*
X136549999Y-141950000I249999J0D01*
G01*
X137450001Y-141950000D01*
G75*
G02*
X137700000Y-142199999I0J-249999D01*
G01*
X137700000Y-142850001D01*
G75*
G02*
X137450001Y-143100000I-249999J0D01*
G01*
G37*
G36*
G01*
X137450001Y-141050000D02*
X136549999Y-141050000D01*
G75*
G02*
X136300000Y-140800001I0J249999D01*
G01*
X136300000Y-140149999D01*
G75*
G02*
X136549999Y-139900000I249999J0D01*
G01*
X137450001Y-139900000D01*
G75*
G02*
X137700000Y-140149999I0J-249999D01*
G01*
X137700000Y-140800001D01*
G75*
G02*
X137450001Y-141050000I-249999J0D01*
G01*
G37*
G36*
G01*
X137450001Y-133600000D02*
X136549999Y-133600000D01*
G75*
G02*
X136300000Y-133350001I0J249999D01*
G01*
X136300000Y-132699999D01*
G75*
G02*
X136549999Y-132450000I249999J0D01*
G01*
X137450001Y-132450000D01*
G75*
G02*
X137700000Y-132699999I0J-249999D01*
G01*
X137700000Y-133350001D01*
G75*
G02*
X137450001Y-133600000I-249999J0D01*
G01*
G37*
G36*
G01*
X137450001Y-131550000D02*
X136549999Y-131550000D01*
G75*
G02*
X136300000Y-131300001I0J249999D01*
G01*
X136300000Y-130649999D01*
G75*
G02*
X136549999Y-130400000I249999J0D01*
G01*
X137450001Y-130400000D01*
G75*
G02*
X137700000Y-130649999I0J-249999D01*
G01*
X137700000Y-131300001D01*
G75*
G02*
X137450001Y-131550000I-249999J0D01*
G01*
G37*
G36*
G01*
X97450000Y-127450001D02*
X97450000Y-126549999D01*
G75*
G02*
X97699999Y-126300000I249999J0D01*
G01*
X98350001Y-126300000D01*
G75*
G02*
X98600000Y-126549999I0J-249999D01*
G01*
X98600000Y-127450001D01*
G75*
G02*
X98350001Y-127700000I-249999J0D01*
G01*
X97699999Y-127700000D01*
G75*
G02*
X97450000Y-127450001I0J249999D01*
G01*
G37*
G36*
G01*
X95400000Y-127450001D02*
X95400000Y-126549999D01*
G75*
G02*
X95649999Y-126300000I249999J0D01*
G01*
X96300001Y-126300000D01*
G75*
G02*
X96550000Y-126549999I0J-249999D01*
G01*
X96550000Y-127450001D01*
G75*
G02*
X96300001Y-127700000I-249999J0D01*
G01*
X95649999Y-127700000D01*
G75*
G02*
X95400000Y-127450001I0J249999D01*
G01*
G37*
G36*
G01*
X97450000Y-137700001D02*
X97450000Y-136799999D01*
G75*
G02*
X97699999Y-136550000I249999J0D01*
G01*
X98350001Y-136550000D01*
G75*
G02*
X98600000Y-136799999I0J-249999D01*
G01*
X98600000Y-137700001D01*
G75*
G02*
X98350001Y-137950000I-249999J0D01*
G01*
X97699999Y-137950000D01*
G75*
G02*
X97450000Y-137700001I0J249999D01*
G01*
G37*
G36*
G01*
X95400000Y-137700001D02*
X95400000Y-136799999D01*
G75*
G02*
X95649999Y-136550000I249999J0D01*
G01*
X96300001Y-136550000D01*
G75*
G02*
X96550000Y-136799999I0J-249999D01*
G01*
X96550000Y-137700001D01*
G75*
G02*
X96300001Y-137950000I-249999J0D01*
G01*
X95649999Y-137950000D01*
G75*
G02*
X95400000Y-137700001I0J249999D01*
G01*
G37*
D10*
X106000000Y-139250000D03*
X109500000Y-139250000D03*
X105750000Y-116000000D03*
X109250000Y-116000000D03*
D12*
X106095000Y-131060000D03*
X106095000Y-125980000D03*
X109405000Y-128520000D03*
X109405000Y-123440000D03*
G36*
G01*
X98575000Y-133799999D02*
X98575000Y-134700001D01*
G75*
G02*
X98325001Y-134950000I-249999J0D01*
G01*
X97674999Y-134950000D01*
G75*
G02*
X97425000Y-134700001I0J249999D01*
G01*
X97425000Y-133799999D01*
G75*
G02*
X97674999Y-133550000I249999J0D01*
G01*
X98325001Y-133550000D01*
G75*
G02*
X98575000Y-133799999I0J-249999D01*
G01*
G37*
G36*
G01*
X96525000Y-133799999D02*
X96525000Y-134700001D01*
G75*
G02*
X96275001Y-134950000I-249999J0D01*
G01*
X95624999Y-134950000D01*
G75*
G02*
X95375000Y-134700001I0J249999D01*
G01*
X95375000Y-133799999D01*
G75*
G02*
X95624999Y-133550000I249999J0D01*
G01*
X96275001Y-133550000D01*
G75*
G02*
X96525000Y-133799999I0J-249999D01*
G01*
G37*
G36*
G01*
X96575000Y-129299999D02*
X96575000Y-130200001D01*
G75*
G02*
X96325001Y-130450000I-249999J0D01*
G01*
X95674999Y-130450000D01*
G75*
G02*
X95425000Y-130200001I0J249999D01*
G01*
X95425000Y-129299999D01*
G75*
G02*
X95674999Y-129050000I249999J0D01*
G01*
X96325001Y-129050000D01*
G75*
G02*
X96575000Y-129299999I0J-249999D01*
G01*
G37*
G36*
G01*
X98625000Y-129299999D02*
X98625000Y-130200001D01*
G75*
G02*
X98375001Y-130450000I-249999J0D01*
G01*
X97724999Y-130450000D01*
G75*
G02*
X97475000Y-130200001I0J249999D01*
G01*
X97475000Y-129299999D01*
G75*
G02*
X97724999Y-129050000I249999J0D01*
G01*
X98375001Y-129050000D01*
G75*
G02*
X98625000Y-129299999I0J-249999D01*
G01*
G37*
G36*
G01*
X96575000Y-119049999D02*
X96575000Y-119950001D01*
G75*
G02*
X96325001Y-120200000I-249999J0D01*
G01*
X95674999Y-120200000D01*
G75*
G02*
X95425000Y-119950001I0J249999D01*
G01*
X95425000Y-119049999D01*
G75*
G02*
X95674999Y-118800000I249999J0D01*
G01*
X96325001Y-118800000D01*
G75*
G02*
X96575000Y-119049999I0J-249999D01*
G01*
G37*
G36*
G01*
X98625000Y-119049999D02*
X98625000Y-119950001D01*
G75*
G02*
X98375001Y-120200000I-249999J0D01*
G01*
X97724999Y-120200000D01*
G75*
G02*
X97475000Y-119950001I0J249999D01*
G01*
X97475000Y-119049999D01*
G75*
G02*
X97724999Y-118800000I249999J0D01*
G01*
X98375001Y-118800000D01*
G75*
G02*
X98625000Y-119049999I0J-249999D01*
G01*
G37*
G36*
G01*
X109550000Y-65299999D02*
X109550000Y-66200001D01*
G75*
G02*
X109300001Y-66450000I-249999J0D01*
G01*
X108649999Y-66450000D01*
G75*
G02*
X108400000Y-66200001I0J249999D01*
G01*
X108400000Y-65299999D01*
G75*
G02*
X108649999Y-65050000I249999J0D01*
G01*
X109300001Y-65050000D01*
G75*
G02*
X109550000Y-65299999I0J-249999D01*
G01*
G37*
G36*
G01*
X111600000Y-65299999D02*
X111600000Y-66200001D01*
G75*
G02*
X111350001Y-66450000I-249999J0D01*
G01*
X110699999Y-66450000D01*
G75*
G02*
X110450000Y-66200001I0J249999D01*
G01*
X110450000Y-65299999D01*
G75*
G02*
X110699999Y-65050000I249999J0D01*
G01*
X111350001Y-65050000D01*
G75*
G02*
X111600000Y-65299999I0J-249999D01*
G01*
G37*
G36*
G01*
X111625000Y-78299999D02*
X111625000Y-79200001D01*
G75*
G02*
X111375001Y-79450000I-249999J0D01*
G01*
X110724999Y-79450000D01*
G75*
G02*
X110475000Y-79200001I0J249999D01*
G01*
X110475000Y-78299999D01*
G75*
G02*
X110724999Y-78050000I249999J0D01*
G01*
X111375001Y-78050000D01*
G75*
G02*
X111625000Y-78299999I0J-249999D01*
G01*
G37*
G36*
G01*
X109575000Y-78299999D02*
X109575000Y-79200001D01*
G75*
G02*
X109325001Y-79450000I-249999J0D01*
G01*
X108674999Y-79450000D01*
G75*
G02*
X108425000Y-79200001I0J249999D01*
G01*
X108425000Y-78299999D01*
G75*
G02*
X108674999Y-78050000I249999J0D01*
G01*
X109325001Y-78050000D01*
G75*
G02*
X109575000Y-78299999I0J-249999D01*
G01*
G37*
G36*
G01*
X108400000Y-105700001D02*
X108400000Y-104799999D01*
G75*
G02*
X108649999Y-104550000I249999J0D01*
G01*
X109300001Y-104550000D01*
G75*
G02*
X109550000Y-104799999I0J-249999D01*
G01*
X109550000Y-105700001D01*
G75*
G02*
X109300001Y-105950000I-249999J0D01*
G01*
X108649999Y-105950000D01*
G75*
G02*
X108400000Y-105700001I0J249999D01*
G01*
G37*
G36*
G01*
X110450000Y-105700001D02*
X110450000Y-104799999D01*
G75*
G02*
X110699999Y-104550000I249999J0D01*
G01*
X111350001Y-104550000D01*
G75*
G02*
X111600000Y-104799999I0J-249999D01*
G01*
X111600000Y-105700001D01*
G75*
G02*
X111350001Y-105950000I-249999J0D01*
G01*
X110699999Y-105950000D01*
G75*
G02*
X110450000Y-105700001I0J249999D01*
G01*
G37*
G36*
G01*
X105549999Y-133925000D02*
X106450001Y-133925000D01*
G75*
G02*
X106700000Y-134174999I0J-249999D01*
G01*
X106700000Y-134825001D01*
G75*
G02*
X106450001Y-135075000I-249999J0D01*
G01*
X105549999Y-135075000D01*
G75*
G02*
X105300000Y-134825001I0J249999D01*
G01*
X105300000Y-134174999D01*
G75*
G02*
X105549999Y-133925000I249999J0D01*
G01*
G37*
G36*
G01*
X105549999Y-135975000D02*
X106450001Y-135975000D01*
G75*
G02*
X106700000Y-136224999I0J-249999D01*
G01*
X106700000Y-136875001D01*
G75*
G02*
X106450001Y-137125000I-249999J0D01*
G01*
X105549999Y-137125000D01*
G75*
G02*
X105300000Y-136875001I0J249999D01*
G01*
X105300000Y-136224999D01*
G75*
G02*
X105549999Y-135975000I249999J0D01*
G01*
G37*
G36*
G01*
X109049999Y-135975000D02*
X109950001Y-135975000D01*
G75*
G02*
X110200000Y-136224999I0J-249999D01*
G01*
X110200000Y-136875001D01*
G75*
G02*
X109950001Y-137125000I-249999J0D01*
G01*
X109049999Y-137125000D01*
G75*
G02*
X108800000Y-136875001I0J249999D01*
G01*
X108800000Y-136224999D01*
G75*
G02*
X109049999Y-135975000I249999J0D01*
G01*
G37*
G36*
G01*
X109049999Y-133925000D02*
X109950001Y-133925000D01*
G75*
G02*
X110200000Y-134174999I0J-249999D01*
G01*
X110200000Y-134825001D01*
G75*
G02*
X109950001Y-135075000I-249999J0D01*
G01*
X109049999Y-135075000D01*
G75*
G02*
X108800000Y-134825001I0J249999D01*
G01*
X108800000Y-134174999D01*
G75*
G02*
X109049999Y-133925000I249999J0D01*
G01*
G37*
G36*
G01*
X109700001Y-121325000D02*
X108799999Y-121325000D01*
G75*
G02*
X108550000Y-121075001I0J249999D01*
G01*
X108550000Y-120424999D01*
G75*
G02*
X108799999Y-120175000I249999J0D01*
G01*
X109700001Y-120175000D01*
G75*
G02*
X109950000Y-120424999I0J-249999D01*
G01*
X109950000Y-121075001D01*
G75*
G02*
X109700001Y-121325000I-249999J0D01*
G01*
G37*
G36*
G01*
X109700001Y-119275000D02*
X108799999Y-119275000D01*
G75*
G02*
X108550000Y-119025001I0J249999D01*
G01*
X108550000Y-118374999D01*
G75*
G02*
X108799999Y-118125000I249999J0D01*
G01*
X109700001Y-118125000D01*
G75*
G02*
X109950000Y-118374999I0J-249999D01*
G01*
X109950000Y-119025001D01*
G75*
G02*
X109700001Y-119275000I-249999J0D01*
G01*
G37*
M02*
