M48
; DRILL file {KiCad (5.1.9)-1} date 04/28/21 19:37:25
; FORMAT={-:-/ absolute / metric / decimal}
; #@! TF.CreationDate,2021-04-28T19:37:25+02:00
; #@! TF.GenerationSoftware,Kicad,Pcbnew,(5.1.9)-1
; #@! TF.FileFunction,Plated,1,2,PTH
FMAT,2
METRIC
T1C0.400
T2C0.800
T3C1.000
T4C1.100
T5C1.200
T6C1.220
T7C1.420
T8C1.430
T9C3.200
%
G90
G05
T1
X88.2Y-60.4
X89.4Y-78.0
X93.4Y-62.9
X96.0Y-85.0
X99.372Y-137.73
X104.0Y-116.0
X107.5Y-78.0
X107.5Y-79.0
X107.75Y-65.25
X107.75Y-66.25
X107.75Y-106.0
X110.0Y-68.0
X110.7Y-105.481
X111.0Y-77.0
X111.0Y-81.0
X115.5Y-143.0
X116.0Y-51.75
X118.25Y-109.25
X120.995Y-112.255
X121.6Y-102.6
X122.025Y-116.225
X122.718Y-109.468
X123.0Y-90.0
X123.25Y-107.0
X123.75Y-110.325
X124.0Y-72.0
X128.0Y-65.775
X129.725Y-90.425
X129.725Y-91.91
X130.5Y-95.25
X131.5Y-81.5
X131.5Y-85.75
X132.25Y-105.0
X132.5Y-112.0
X132.5Y-121.0
X132.75Y-95.0
X133.175Y-131.25
X133.25Y-112.75
X133.675Y-96.75
X133.968Y-113.282
X134.081Y-138.081
X134.157Y-111.843
X134.39Y-90.635
X134.5Y-131.25
X134.569Y-113.883
X134.782Y-112.468
X134.825Y-96.75
X134.894Y-138.894
X135.045Y-108.897
X135.25Y-94.5
X136.25Y-109.301
X136.269Y-62.175
X136.75Y-78.0
X137.0Y-73.5
X137.381Y-121.131
X138.282Y-122.282
X138.5Y-60.25
X138.75Y-117.5
X140.0Y-94.0
X140.5Y-87.25
X140.75Y-69.75
X141.25Y-97.0
X141.648Y-77.165
X142.07Y-96.675
X142.807Y-76.443
X143.0Y-67.5
X144.25Y-92.75
X144.5Y-118.0
X146.5Y-86.25
X147.649Y-86.351
X148.0Y-73.5
X148.0Y-81.5
X148.25Y-85.75
X149.475Y-123.0
T2
X133.0Y-98.5
X133.0Y-101.04
X133.0Y-103.58
T3
X52.42Y-131.0
X54.96Y-131.0
X57.5Y-131.0
X60.46Y-89.84
X60.46Y-92.38
X60.46Y-94.92
X60.46Y-97.46
X60.46Y-100.0
X63.0Y-89.84
X63.0Y-92.38
X63.0Y-94.92
X63.0Y-97.46
X63.0Y-100.0
X64.5Y-72.5
X64.5Y-75.0
X64.5Y-77.5
X83.96Y-78.0
X83.96Y-80.54
X83.96Y-122.5
X83.96Y-125.04
X86.5Y-78.0
X86.5Y-80.54
X86.5Y-122.5
X86.5Y-125.04
X87.0Y-67.0
X87.0Y-69.54
X87.0Y-72.08
X87.5Y-108.0
X87.5Y-110.54
X87.5Y-131.5
X87.5Y-134.04
X87.5Y-136.58
X87.5Y-142.0
X87.5Y-144.54
X87.5Y-147.08
X100.75Y-119.5
X100.75Y-122.04
X100.75Y-124.58
X100.75Y-127.12
X100.75Y-129.66
X100.75Y-132.2
X100.75Y-134.74
X100.75Y-137.28
X103.29Y-119.5
X103.29Y-122.04
X103.29Y-124.58
X103.29Y-127.12
X103.29Y-129.66
X103.29Y-132.2
X103.29Y-134.74
X103.29Y-137.28
X122.84Y-55.0
X122.84Y-57.54
X125.38Y-55.0
X125.38Y-57.54
X127.92Y-55.0
X127.92Y-57.54
X130.46Y-55.0
X130.46Y-57.54
X133.0Y-55.0
X133.0Y-57.54
X135.54Y-55.0
X135.54Y-57.54
X138.08Y-55.0
X138.08Y-57.54
X139.5Y-112.5
X140.0Y-129.0
X140.62Y-55.0
X140.62Y-57.54
X142.0Y-112.5
X142.54Y-129.0
X144.5Y-112.5
X145.08Y-129.0
T4
X54.0Y-113.0
X54.0Y-117.5
X60.5Y-113.0
X60.5Y-117.5
T5
X52.1Y-143.0
X52.75Y-135.5
X57.25Y-135.5
X57.9Y-143.0
X62.1Y-143.0
X62.75Y-135.5
X67.25Y-135.5
X67.9Y-143.0
X72.1Y-143.0
X72.75Y-135.5
X77.25Y-135.5
X77.9Y-143.0
T6
X128.5Y-75.0
X128.5Y-85.0
X128.5Y-95.0
X128.5Y-105.0
X128.5Y-115.0
X128.5Y-125.0
X128.5Y-135.0
X128.555Y-145.0
X148.5Y-125.0
X148.5Y-135.0
X148.5Y-145.0
T7
X125.4Y-75.0
X125.4Y-85.0
X125.4Y-95.0
X125.4Y-105.0
X125.4Y-115.0
X125.4Y-125.0
X125.4Y-135.0
X125.455Y-145.0
X145.4Y-125.0
X145.4Y-135.0
X145.4Y-145.0
T8
X117.1Y-75.0
X117.1Y-85.0
X117.1Y-95.0
X117.1Y-105.0
X117.1Y-115.0
X117.1Y-125.0
X117.1Y-135.0
X117.155Y-145.0
X137.1Y-125.0
X137.1Y-135.0
X137.1Y-145.0
T9
X95.0Y-53.0G85X98.0Y-53.0
G05
X95.0Y-147.25G85X98.0Y-147.25
G05
X106.0Y-53.0G85X109.0Y-53.0
G05
X106.0Y-147.25G85X109.0Y-147.25
G05
T0
M30
