G04 #@! TF.GenerationSoftware,KiCad,Pcbnew,(5.1.9)-1*
G04 #@! TF.CreationDate,2021-04-28T19:55:50+02:00*
G04 #@! TF.ProjectId,KicadJE_Drum_PE78 - Face,4b696361-644a-4455-9f44-72756d5f5045,rev?*
G04 #@! TF.SameCoordinates,Original*
G04 #@! TF.FileFunction,Soldermask,Top*
G04 #@! TF.FilePolarity,Negative*
%FSLAX46Y46*%
G04 Gerber Fmt 4.6, Leading zero omitted, Abs format (unit mm)*
G04 Created by KiCad (PCBNEW (5.1.9)-1) date 2021-04-28 19:55:50*
%MOMM*%
%LPD*%
G01*
G04 APERTURE LIST*
%ADD10C,0.150000*%
%ADD11C,6.602000*%
%ADD12O,7.102000X4.102000*%
%ADD13C,3.102000*%
G04 APERTURE END LIST*
D10*
X212380952Y-52952380D02*
X212571428Y-52952380D01*
X212666666Y-53000000D01*
X212761904Y-53095238D01*
X212809523Y-53285714D01*
X212809523Y-53619047D01*
X212761904Y-53809523D01*
X212666666Y-53904761D01*
X212571428Y-53952380D01*
X212380952Y-53952380D01*
X212285714Y-53904761D01*
X212190476Y-53809523D01*
X212142857Y-53619047D01*
X212142857Y-53285714D01*
X212190476Y-53095238D01*
X212285714Y-53000000D01*
X212380952Y-52952380D01*
X213238095Y-53952380D02*
X213238095Y-52952380D01*
X213809523Y-53952380D01*
X213809523Y-52952380D01*
X212380952Y-52952380D02*
X212571428Y-52952380D01*
X212666666Y-53000000D01*
X212761904Y-53095238D01*
X212809523Y-53285714D01*
X212809523Y-53619047D01*
X212761904Y-53809523D01*
X212666666Y-53904761D01*
X212571428Y-53952380D01*
X212380952Y-53952380D01*
X212285714Y-53904761D01*
X212190476Y-53809523D01*
X212142857Y-53619047D01*
X212142857Y-53285714D01*
X212190476Y-53095238D01*
X212285714Y-53000000D01*
X212380952Y-52952380D01*
X213238095Y-53952380D02*
X213238095Y-52952380D01*
X213809523Y-53952380D01*
X213809523Y-52952380D01*
X212380952Y-52952380D02*
X212571428Y-52952380D01*
X212666666Y-53000000D01*
X212761904Y-53095238D01*
X212809523Y-53285714D01*
X212809523Y-53619047D01*
X212761904Y-53809523D01*
X212666666Y-53904761D01*
X212571428Y-53952380D01*
X212380952Y-53952380D01*
X212285714Y-53904761D01*
X212190476Y-53809523D01*
X212142857Y-53619047D01*
X212142857Y-53285714D01*
X212190476Y-53095238D01*
X212285714Y-53000000D01*
X212380952Y-52952380D01*
X213238095Y-53952380D02*
X213238095Y-52952380D01*
X213809523Y-53952380D01*
X213809523Y-52952380D01*
X212380952Y-52952380D02*
X212571428Y-52952380D01*
X212666666Y-53000000D01*
X212761904Y-53095238D01*
X212809523Y-53285714D01*
X212809523Y-53619047D01*
X212761904Y-53809523D01*
X212666666Y-53904761D01*
X212571428Y-53952380D01*
X212380952Y-53952380D01*
X212285714Y-53904761D01*
X212190476Y-53809523D01*
X212142857Y-53619047D01*
X212142857Y-53285714D01*
X212190476Y-53095238D01*
X212285714Y-53000000D01*
X212380952Y-52952380D01*
X213238095Y-53952380D02*
X213238095Y-52952380D01*
X213809523Y-53952380D01*
X213809523Y-52952380D01*
D11*
X223000000Y-135000000D03*
X223000000Y-125000000D03*
X203000000Y-75000000D03*
X203000000Y-85000000D03*
X203000000Y-95000000D03*
D12*
X226500000Y-39000000D03*
X199500000Y-39000000D03*
X199500000Y-161000000D03*
D11*
X203000000Y-105000000D03*
D13*
X213000000Y-51000000D03*
D12*
X226500000Y-161000000D03*
D11*
X203000000Y-115000000D03*
X203075001Y-145000000D03*
X203000000Y-125000000D03*
X223000000Y-105000000D03*
X223000000Y-145000000D03*
X203000000Y-135000000D03*
M02*
