G04 #@! TF.GenerationSoftware,KiCad,Pcbnew,(5.1.9)-1*
G04 #@! TF.CreationDate,2021-04-28T19:55:50+02:00*
G04 #@! TF.ProjectId,KicadJE_Drum_PE78 - Face,4b696361-644a-4455-9f44-72756d5f5045,rev?*
G04 #@! TF.SameCoordinates,Original*
G04 #@! TF.FileFunction,Legend,Bot*
G04 #@! TF.FilePolarity,Positive*
%FSLAX46Y46*%
G04 Gerber Fmt 4.6, Leading zero omitted, Abs format (unit mm)*
G04 Created by KiCad (PCBNEW (5.1.9)-1) date 2021-04-28 19:55:50*
%MOMM*%
%LPD*%
G01*
G04 APERTURE LIST*
%ADD10C,0.100000*%
%ADD11C,0.250000*%
%ADD12C,6.602000*%
%ADD13O,7.102000X4.102000*%
%ADD14C,3.102000*%
G04 APERTURE END LIST*
D10*
X194797619Y-163119047D02*
X194083333Y-163119047D01*
X193940476Y-163166666D01*
X193845238Y-163261904D01*
X193797619Y-163404761D01*
X193797619Y-163500000D01*
X193797619Y-162166666D02*
X193797619Y-162642857D01*
X194797619Y-162642857D01*
X193892857Y-161261904D02*
X193845238Y-161309523D01*
X193797619Y-161452380D01*
X193797619Y-161547619D01*
X193845238Y-161690476D01*
X193940476Y-161785714D01*
X194035714Y-161833333D01*
X194226190Y-161880952D01*
X194369047Y-161880952D01*
X194559523Y-161833333D01*
X194654761Y-161785714D01*
X194750000Y-161690476D01*
X194797619Y-161547619D01*
X194797619Y-161452380D01*
X194750000Y-161309523D01*
X194702380Y-161261904D01*
X194797619Y-160547619D02*
X194083333Y-160547619D01*
X193940476Y-160595238D01*
X193845238Y-160690476D01*
X193797619Y-160833333D01*
X193797619Y-160928571D01*
X193797619Y-159595238D02*
X193797619Y-160071428D01*
X194797619Y-160071428D01*
X193892857Y-158690476D02*
X193845238Y-158738095D01*
X193797619Y-158880952D01*
X193797619Y-158976190D01*
X193845238Y-159119047D01*
X193940476Y-159214285D01*
X194035714Y-159261904D01*
X194226190Y-159309523D01*
X194369047Y-159309523D01*
X194559523Y-159261904D01*
X194654761Y-159214285D01*
X194750000Y-159119047D01*
X194797619Y-158976190D01*
X194797619Y-158880952D01*
X194750000Y-158738095D01*
X194702380Y-158690476D01*
X194797619Y-157976190D02*
X194083333Y-157976190D01*
X193940476Y-158023809D01*
X193845238Y-158119047D01*
X193797619Y-158261904D01*
X193797619Y-158357142D01*
X193797619Y-157023809D02*
X193797619Y-157500000D01*
X194797619Y-157500000D01*
X193892857Y-156119047D02*
X193845238Y-156166666D01*
X193797619Y-156309523D01*
X193797619Y-156404761D01*
X193845238Y-156547619D01*
X193940476Y-156642857D01*
X194035714Y-156690476D01*
X194226190Y-156738095D01*
X194369047Y-156738095D01*
X194559523Y-156690476D01*
X194654761Y-156642857D01*
X194750000Y-156547619D01*
X194797619Y-156404761D01*
X194797619Y-156309523D01*
X194750000Y-156166666D01*
X194702380Y-156119047D01*
X194797619Y-155404761D02*
X194083333Y-155404761D01*
X193940476Y-155452380D01*
X193845238Y-155547619D01*
X193797619Y-155690476D01*
X193797619Y-155785714D01*
X193797619Y-154452380D02*
X193797619Y-154928571D01*
X194797619Y-154928571D01*
X193892857Y-153547619D02*
X193845238Y-153595238D01*
X193797619Y-153738095D01*
X193797619Y-153833333D01*
X193845238Y-153976190D01*
X193940476Y-154071428D01*
X194035714Y-154119047D01*
X194226190Y-154166666D01*
X194369047Y-154166666D01*
X194559523Y-154119047D01*
X194654761Y-154071428D01*
X194750000Y-153976190D01*
X194797619Y-153833333D01*
X194797619Y-153738095D01*
X194750000Y-153595238D01*
X194702380Y-153547619D01*
D11*
X219813690Y-151202380D02*
X219813690Y-151916666D01*
X219861309Y-152059523D01*
X219956547Y-152154761D01*
X220099404Y-152202380D01*
X220194642Y-152202380D01*
X219194642Y-152202380D02*
X219289880Y-152154761D01*
X219337500Y-152107142D01*
X219385119Y-152011904D01*
X219385119Y-151726190D01*
X219337500Y-151630952D01*
X219289880Y-151583333D01*
X219194642Y-151535714D01*
X219051785Y-151535714D01*
X218956547Y-151583333D01*
X218908928Y-151630952D01*
X218861309Y-151726190D01*
X218861309Y-152011904D01*
X218908928Y-152107142D01*
X218956547Y-152154761D01*
X219051785Y-152202380D01*
X219194642Y-152202380D01*
X218432738Y-152202380D02*
X218432738Y-151202380D01*
X218004166Y-152202380D02*
X218004166Y-151678571D01*
X218051785Y-151583333D01*
X218147023Y-151535714D01*
X218289880Y-151535714D01*
X218385119Y-151583333D01*
X218432738Y-151630952D01*
X217099404Y-152202380D02*
X217099404Y-151678571D01*
X217147023Y-151583333D01*
X217242261Y-151535714D01*
X217432738Y-151535714D01*
X217527976Y-151583333D01*
X217099404Y-152154761D02*
X217194642Y-152202380D01*
X217432738Y-152202380D01*
X217527976Y-152154761D01*
X217575595Y-152059523D01*
X217575595Y-151964285D01*
X217527976Y-151869047D01*
X217432738Y-151821428D01*
X217194642Y-151821428D01*
X217099404Y-151773809D01*
X216623214Y-151535714D02*
X216623214Y-152202380D01*
X216623214Y-151630952D02*
X216575595Y-151583333D01*
X216480357Y-151535714D01*
X216337500Y-151535714D01*
X216242261Y-151583333D01*
X216194642Y-151678571D01*
X216194642Y-152202380D01*
X215766071Y-152154761D02*
X215670833Y-152202380D01*
X215480357Y-152202380D01*
X215385119Y-152154761D01*
X215337500Y-152059523D01*
X215337500Y-152011904D01*
X215385119Y-151916666D01*
X215480357Y-151869047D01*
X215623214Y-151869047D01*
X215718452Y-151821428D01*
X215766071Y-151726190D01*
X215766071Y-151678571D01*
X215718452Y-151583333D01*
X215623214Y-151535714D01*
X215480357Y-151535714D01*
X215385119Y-151583333D01*
X214527976Y-152154761D02*
X214623214Y-152202380D01*
X214813690Y-152202380D01*
X214908928Y-152154761D01*
X214956547Y-152059523D01*
X214956547Y-151678571D01*
X214908928Y-151583333D01*
X214813690Y-151535714D01*
X214623214Y-151535714D01*
X214527976Y-151583333D01*
X214480357Y-151678571D01*
X214480357Y-151773809D01*
X214956547Y-151869047D01*
X214051785Y-151535714D02*
X214051785Y-152202380D01*
X214051785Y-151630952D02*
X214004166Y-151583333D01*
X213908928Y-151535714D01*
X213766071Y-151535714D01*
X213670833Y-151583333D01*
X213623214Y-151678571D01*
X213623214Y-152202380D01*
X212385119Y-151678571D02*
X212051785Y-151678571D01*
X211908928Y-152202380D02*
X212385119Y-152202380D01*
X212385119Y-151202380D01*
X211908928Y-151202380D01*
X211480357Y-151535714D02*
X211480357Y-152202380D01*
X211480357Y-151630952D02*
X211432738Y-151583333D01*
X211337500Y-151535714D01*
X211194642Y-151535714D01*
X211099404Y-151583333D01*
X211051785Y-151678571D01*
X211051785Y-152202380D01*
X210147023Y-151535714D02*
X210147023Y-152345238D01*
X210194642Y-152440476D01*
X210242261Y-152488095D01*
X210337500Y-152535714D01*
X210480357Y-152535714D01*
X210575595Y-152488095D01*
X210147023Y-152154761D02*
X210242261Y-152202380D01*
X210432738Y-152202380D01*
X210527976Y-152154761D01*
X210575595Y-152107142D01*
X210623214Y-152011904D01*
X210623214Y-151726190D01*
X210575595Y-151630952D01*
X210527976Y-151583333D01*
X210432738Y-151535714D01*
X210242261Y-151535714D01*
X210147023Y-151583333D01*
X209670833Y-152202380D02*
X209670833Y-151535714D01*
X209670833Y-151202380D02*
X209718452Y-151250000D01*
X209670833Y-151297619D01*
X209623214Y-151250000D01*
X209670833Y-151202380D01*
X209670833Y-151297619D01*
X209194642Y-151535714D02*
X209194642Y-152202380D01*
X209194642Y-151630952D02*
X209147023Y-151583333D01*
X209051785Y-151535714D01*
X208908928Y-151535714D01*
X208813690Y-151583333D01*
X208766071Y-151678571D01*
X208766071Y-152202380D01*
X207908928Y-152154761D02*
X208004166Y-152202380D01*
X208194642Y-152202380D01*
X208289880Y-152154761D01*
X208337500Y-152059523D01*
X208337500Y-151678571D01*
X208289880Y-151583333D01*
X208194642Y-151535714D01*
X208004166Y-151535714D01*
X207908928Y-151583333D01*
X207861309Y-151678571D01*
X207861309Y-151773809D01*
X208337500Y-151869047D01*
X207051785Y-152154761D02*
X207147023Y-152202380D01*
X207337500Y-152202380D01*
X207432738Y-152154761D01*
X207480357Y-152059523D01*
X207480357Y-151678571D01*
X207432738Y-151583333D01*
X207337500Y-151535714D01*
X207147023Y-151535714D01*
X207051785Y-151583333D01*
X207004166Y-151678571D01*
X207004166Y-151773809D01*
X207480357Y-151869047D01*
X206575595Y-152202380D02*
X206575595Y-151535714D01*
X206575595Y-151726190D02*
X206527976Y-151630952D01*
X206480357Y-151583333D01*
X206385119Y-151535714D01*
X206289880Y-151535714D01*
X205956547Y-152202380D02*
X205956547Y-151535714D01*
X205956547Y-151202380D02*
X206004166Y-151250000D01*
X205956547Y-151297619D01*
X205908928Y-151250000D01*
X205956547Y-151202380D01*
X205956547Y-151297619D01*
X205480357Y-151535714D02*
X205480357Y-152202380D01*
X205480357Y-151630952D02*
X205432738Y-151583333D01*
X205337500Y-151535714D01*
X205194642Y-151535714D01*
X205099404Y-151583333D01*
X205051785Y-151678571D01*
X205051785Y-152202380D01*
X204147023Y-151535714D02*
X204147023Y-152345238D01*
X204194642Y-152440476D01*
X204242261Y-152488095D01*
X204337500Y-152535714D01*
X204480357Y-152535714D01*
X204575595Y-152488095D01*
X204147023Y-152154761D02*
X204242261Y-152202380D01*
X204432738Y-152202380D01*
X204527976Y-152154761D01*
X204575595Y-152107142D01*
X204623214Y-152011904D01*
X204623214Y-151726190D01*
X204575595Y-151630952D01*
X204527976Y-151583333D01*
X204432738Y-151535714D01*
X204242261Y-151535714D01*
X204147023Y-151583333D01*
X220099404Y-153952380D02*
X220099404Y-152952380D01*
X219861309Y-152952380D01*
X219718452Y-153000000D01*
X219623214Y-153095238D01*
X219575595Y-153190476D01*
X219527976Y-153380952D01*
X219527976Y-153523809D01*
X219575595Y-153714285D01*
X219623214Y-153809523D01*
X219718452Y-153904761D01*
X219861309Y-153952380D01*
X220099404Y-153952380D01*
X219099404Y-153952380D02*
X219099404Y-153285714D01*
X219099404Y-153476190D02*
X219051785Y-153380952D01*
X219004166Y-153333333D01*
X218908928Y-153285714D01*
X218813690Y-153285714D01*
X218051785Y-153285714D02*
X218051785Y-153952380D01*
X218480357Y-153285714D02*
X218480357Y-153809523D01*
X218432738Y-153904761D01*
X218337500Y-153952380D01*
X218194642Y-153952380D01*
X218099404Y-153904761D01*
X218051785Y-153857142D01*
X217575595Y-153952380D02*
X217575595Y-153285714D01*
X217575595Y-153380952D02*
X217527976Y-153333333D01*
X217432738Y-153285714D01*
X217289880Y-153285714D01*
X217194642Y-153333333D01*
X217147023Y-153428571D01*
X217147023Y-153952380D01*
X217147023Y-153428571D02*
X217099404Y-153333333D01*
X217004166Y-153285714D01*
X216861309Y-153285714D01*
X216766071Y-153333333D01*
X216718452Y-153428571D01*
X216718452Y-153952380D01*
X216337500Y-152952380D02*
X215670833Y-152952380D01*
X216099404Y-153952380D01*
X215147023Y-153380952D02*
X215242261Y-153333333D01*
X215289880Y-153285714D01*
X215337500Y-153190476D01*
X215337500Y-153142857D01*
X215289880Y-153047619D01*
X215242261Y-153000000D01*
X215147023Y-152952380D01*
X214956547Y-152952380D01*
X214861309Y-153000000D01*
X214813690Y-153047619D01*
X214766071Y-153142857D01*
X214766071Y-153190476D01*
X214813690Y-153285714D01*
X214861309Y-153333333D01*
X214956547Y-153380952D01*
X215147023Y-153380952D01*
X215242261Y-153428571D01*
X215289880Y-153476190D01*
X215337500Y-153571428D01*
X215337500Y-153761904D01*
X215289880Y-153857142D01*
X215242261Y-153904761D01*
X215147023Y-153952380D01*
X214956547Y-153952380D01*
X214861309Y-153904761D01*
X214813690Y-153857142D01*
X214766071Y-153761904D01*
X214766071Y-153571428D01*
X214813690Y-153476190D01*
X214861309Y-153428571D01*
X214956547Y-153380952D01*
X213004166Y-153952380D02*
X213337500Y-153476190D01*
X213575595Y-153952380D02*
X213575595Y-152952380D01*
X213194642Y-152952380D01*
X213099404Y-153000000D01*
X213051785Y-153047619D01*
X213004166Y-153142857D01*
X213004166Y-153285714D01*
X213051785Y-153380952D01*
X213099404Y-153428571D01*
X213194642Y-153476190D01*
X213575595Y-153476190D01*
X212194642Y-153904761D02*
X212289880Y-153952380D01*
X212480357Y-153952380D01*
X212575595Y-153904761D01*
X212623214Y-153809523D01*
X212623214Y-153428571D01*
X212575595Y-153333333D01*
X212480357Y-153285714D01*
X212289880Y-153285714D01*
X212194642Y-153333333D01*
X212147023Y-153428571D01*
X212147023Y-153523809D01*
X212623214Y-153619047D01*
X211813690Y-153285714D02*
X211575595Y-153952380D01*
X211337500Y-153285714D01*
X210242261Y-153666666D02*
X209766071Y-153666666D01*
X210337500Y-153952380D02*
X210004166Y-152952380D01*
X209670833Y-153952380D01*
X220147023Y-154797619D02*
X220099404Y-154750000D01*
X220004166Y-154702380D01*
X219766071Y-154702380D01*
X219670833Y-154750000D01*
X219623214Y-154797619D01*
X219575595Y-154892857D01*
X219575595Y-154988095D01*
X219623214Y-155130952D01*
X220194642Y-155702380D01*
X219575595Y-155702380D01*
X219194642Y-154797619D02*
X219147023Y-154750000D01*
X219051785Y-154702380D01*
X218813690Y-154702380D01*
X218718452Y-154750000D01*
X218670833Y-154797619D01*
X218623214Y-154892857D01*
X218623214Y-154988095D01*
X218670833Y-155130952D01*
X219242261Y-155702380D01*
X218623214Y-155702380D01*
X217480357Y-154654761D02*
X218337500Y-155940476D01*
X216956547Y-154702380D02*
X216861309Y-154702380D01*
X216766071Y-154750000D01*
X216718452Y-154797619D01*
X216670833Y-154892857D01*
X216623214Y-155083333D01*
X216623214Y-155321428D01*
X216670833Y-155511904D01*
X216718452Y-155607142D01*
X216766071Y-155654761D01*
X216861309Y-155702380D01*
X216956547Y-155702380D01*
X217051785Y-155654761D01*
X217099404Y-155607142D01*
X217147023Y-155511904D01*
X217194642Y-155321428D01*
X217194642Y-155083333D01*
X217147023Y-154892857D01*
X217099404Y-154797619D01*
X217051785Y-154750000D01*
X216956547Y-154702380D01*
X215766071Y-155035714D02*
X215766071Y-155702380D01*
X216004166Y-154654761D02*
X216242261Y-155369047D01*
X215623214Y-155369047D01*
X215242261Y-155321428D02*
X214480357Y-155321428D01*
X214051785Y-154797619D02*
X214004166Y-154750000D01*
X213908928Y-154702380D01*
X213670833Y-154702380D01*
X213575595Y-154750000D01*
X213527976Y-154797619D01*
X213480357Y-154892857D01*
X213480357Y-154988095D01*
X213527976Y-155130952D01*
X214099404Y-155702380D01*
X213480357Y-155702380D01*
X212861309Y-154702380D02*
X212766071Y-154702380D01*
X212670833Y-154750000D01*
X212623214Y-154797619D01*
X212575595Y-154892857D01*
X212527976Y-155083333D01*
X212527976Y-155321428D01*
X212575595Y-155511904D01*
X212623214Y-155607142D01*
X212670833Y-155654761D01*
X212766071Y-155702380D01*
X212861309Y-155702380D01*
X212956547Y-155654761D01*
X213004166Y-155607142D01*
X213051785Y-155511904D01*
X213099404Y-155321428D01*
X213099404Y-155083333D01*
X213051785Y-154892857D01*
X213004166Y-154797619D01*
X212956547Y-154750000D01*
X212861309Y-154702380D01*
X212147023Y-154797619D02*
X212099404Y-154750000D01*
X212004166Y-154702380D01*
X211766071Y-154702380D01*
X211670833Y-154750000D01*
X211623214Y-154797619D01*
X211575595Y-154892857D01*
X211575595Y-154988095D01*
X211623214Y-155130952D01*
X212194642Y-155702380D01*
X211575595Y-155702380D01*
X210623214Y-155702380D02*
X211194642Y-155702380D01*
X210908928Y-155702380D02*
X210908928Y-154702380D01*
X211004166Y-154845238D01*
X211099404Y-154940476D01*
X211194642Y-154988095D01*
%LPC*%
D12*
X223000000Y-135000000D03*
X223000000Y-125000000D03*
X203000000Y-75000000D03*
X203000000Y-85000000D03*
X203000000Y-95000000D03*
D13*
X226500000Y-39000000D03*
X199500000Y-39000000D03*
X199500000Y-161000000D03*
D12*
X203000000Y-105000000D03*
D14*
X213000000Y-51000000D03*
D13*
X226500000Y-161000000D03*
D12*
X203000000Y-115000000D03*
X203075001Y-145000000D03*
X203000000Y-125000000D03*
X223000000Y-105000000D03*
X223000000Y-145000000D03*
X203000000Y-135000000D03*
M02*
