G04 #@! TF.GenerationSoftware,KiCad,Pcbnew,(5.1.9)-1*
G04 #@! TF.CreationDate,2021-04-28T19:28:25+02:00*
G04 #@! TF.ProjectId,KicadJE_Drum_PE78 - Face,4b696361-644a-4455-9f44-72756d5f5045,rev?*
G04 #@! TF.SameCoordinates,Original*
G04 #@! TF.FileFunction,Legend,Top*
G04 #@! TF.FilePolarity,Positive*
%FSLAX46Y46*%
G04 Gerber Fmt 4.6, Leading zero omitted, Abs format (unit mm)*
G04 Created by KiCad (PCBNEW (5.1.9)-1) date 2021-04-28 19:28:25*
%MOMM*%
%LPD*%
G01*
G04 APERTURE LIST*
%ADD10C,0.120000*%
%ADD11C,0.450000*%
%ADD12C,0.500000*%
%ADD13C,0.750000*%
%ADD14C,0.150000*%
%ADD15C,0.010000*%
%ADD16C,6.602000*%
%ADD17O,7.102000X4.102000*%
%ADD18C,3.102000*%
G04 APERTURE END LIST*
D10*
X229500000Y-150500000D02*
X229000000Y-149000000D01*
X229500000Y-150500000D02*
X230000000Y-149000000D01*
X229500000Y-75000000D02*
X229500000Y-72000000D01*
X223000000Y-75000000D02*
X229500000Y-75000000D01*
D11*
X228214285Y-71357142D02*
X227614285Y-69928571D01*
X227185714Y-71357142D02*
X227185714Y-68357142D01*
X227871428Y-68357142D01*
X228042857Y-68500000D01*
X228128571Y-68642857D01*
X228214285Y-68928571D01*
X228214285Y-69357142D01*
X228128571Y-69642857D01*
X228042857Y-69785714D01*
X227871428Y-69928571D01*
X227185714Y-69928571D01*
X228985714Y-71357142D02*
X228985714Y-68357142D01*
X230014285Y-71357142D01*
X230014285Y-68357142D01*
X230871428Y-71357142D02*
X230871428Y-68357142D01*
X231300000Y-68357142D01*
X231557142Y-68500000D01*
X231728571Y-68785714D01*
X231814285Y-69071428D01*
X231900000Y-69642857D01*
X231900000Y-70071428D01*
X231814285Y-70642857D01*
X231728571Y-70928571D01*
X231557142Y-71214285D01*
X231300000Y-71357142D01*
X230871428Y-71357142D01*
D10*
X229500000Y-85000000D02*
X229500000Y-82000000D01*
X223000000Y-85000000D02*
X229500000Y-85000000D01*
D11*
X227014285Y-81357142D02*
X227014285Y-78357142D01*
X228042857Y-81357142D01*
X228042857Y-78357142D01*
X229157142Y-81357142D02*
X228985714Y-81214285D01*
X228900000Y-81071428D01*
X228814285Y-80785714D01*
X228814285Y-79928571D01*
X228900000Y-79642857D01*
X228985714Y-79500000D01*
X229157142Y-79357142D01*
X229414285Y-79357142D01*
X229585714Y-79500000D01*
X229671428Y-79642857D01*
X229757142Y-79928571D01*
X229757142Y-80785714D01*
X229671428Y-81071428D01*
X229585714Y-81214285D01*
X229414285Y-81357142D01*
X229157142Y-81357142D01*
X230528571Y-81357142D02*
X230528571Y-79357142D01*
X230528571Y-78357142D02*
X230442857Y-78500000D01*
X230528571Y-78642857D01*
X230614285Y-78500000D01*
X230528571Y-78357142D01*
X230528571Y-78642857D01*
X231214285Y-79357142D02*
X232157142Y-79357142D01*
X231214285Y-81357142D01*
X232157142Y-81357142D01*
X195085714Y-71071428D02*
X195000000Y-71214285D01*
X194742857Y-71357142D01*
X194571428Y-71357142D01*
X194314285Y-71214285D01*
X194142857Y-70928571D01*
X194057142Y-70642857D01*
X193971428Y-70071428D01*
X193971428Y-69642857D01*
X194057142Y-69071428D01*
X194142857Y-68785714D01*
X194314285Y-68500000D01*
X194571428Y-68357142D01*
X194742857Y-68357142D01*
X195000000Y-68500000D01*
X195085714Y-68642857D01*
X196114285Y-71357142D02*
X195942857Y-71214285D01*
X195857142Y-70928571D01*
X195857142Y-68357142D01*
X197571428Y-71357142D02*
X197571428Y-69785714D01*
X197485714Y-69500000D01*
X197314285Y-69357142D01*
X196971428Y-69357142D01*
X196800000Y-69500000D01*
X197571428Y-71214285D02*
X197400000Y-71357142D01*
X196971428Y-71357142D01*
X196800000Y-71214285D01*
X196714285Y-70928571D01*
X196714285Y-70642857D01*
X196800000Y-70357142D01*
X196971428Y-70214285D01*
X197400000Y-70214285D01*
X197571428Y-70071428D01*
X198257142Y-69357142D02*
X198685714Y-71357142D01*
X199114285Y-69357142D01*
X194528571Y-111357142D02*
X194528571Y-108357142D01*
X195128571Y-110500000D01*
X195728571Y-108357142D01*
X195728571Y-111357142D01*
X197357142Y-111357142D02*
X197357142Y-109785714D01*
X197271428Y-109500000D01*
X197100000Y-109357142D01*
X196757142Y-109357142D01*
X196585714Y-109500000D01*
X197357142Y-111214285D02*
X197185714Y-111357142D01*
X196757142Y-111357142D01*
X196585714Y-111214285D01*
X196500000Y-110928571D01*
X196500000Y-110642857D01*
X196585714Y-110357142D01*
X196757142Y-110214285D01*
X197185714Y-110214285D01*
X197357142Y-110071428D01*
X198214285Y-111357142D02*
X198214285Y-109357142D01*
X198214285Y-109928571D02*
X198300000Y-109642857D01*
X198385714Y-109500000D01*
X198557142Y-109357142D01*
X198728571Y-109357142D01*
X194271428Y-121357142D02*
X194271428Y-118357142D01*
X194271428Y-119785714D02*
X195300000Y-119785714D01*
X195300000Y-121357142D02*
X195300000Y-118357142D01*
X196757142Y-119785714D02*
X197014285Y-119928571D01*
X197100000Y-120071428D01*
X197185714Y-120357142D01*
X197185714Y-120785714D01*
X197100000Y-121071428D01*
X197014285Y-121214285D01*
X196842857Y-121357142D01*
X196157142Y-121357142D01*
X196157142Y-118357142D01*
X196757142Y-118357142D01*
X196928571Y-118500000D01*
X197014285Y-118642857D01*
X197100000Y-118928571D01*
X197100000Y-119214285D01*
X197014285Y-119500000D01*
X196928571Y-119642857D01*
X196757142Y-119785714D01*
X196157142Y-119785714D01*
X198728571Y-119357142D02*
X198728571Y-121785714D01*
X198642857Y-122071428D01*
X198557142Y-122214285D01*
X198385714Y-122357142D01*
X198128571Y-122357142D01*
X197957142Y-122214285D01*
X198728571Y-121214285D02*
X198557142Y-121357142D01*
X198214285Y-121357142D01*
X198042857Y-121214285D01*
X197957142Y-121071428D01*
X197871428Y-120785714D01*
X197871428Y-119928571D01*
X197957142Y-119642857D01*
X198042857Y-119500000D01*
X198214285Y-119357142D01*
X198557142Y-119357142D01*
X198728571Y-119500000D01*
D10*
X196000000Y-75000000D02*
X196000000Y-72000000D01*
X203000000Y-75000000D02*
X196000000Y-75000000D01*
D11*
X193200000Y-81214285D02*
X193457142Y-81357142D01*
X193885714Y-81357142D01*
X194057142Y-81214285D01*
X194142857Y-81071428D01*
X194228571Y-80785714D01*
X194228571Y-80500000D01*
X194142857Y-80214285D01*
X194057142Y-80071428D01*
X193885714Y-79928571D01*
X193542857Y-79785714D01*
X193371428Y-79642857D01*
X193285714Y-79500000D01*
X193200000Y-79214285D01*
X193200000Y-78928571D01*
X193285714Y-78642857D01*
X193371428Y-78500000D01*
X193542857Y-78357142D01*
X193971428Y-78357142D01*
X194228571Y-78500000D01*
X196028571Y-81071428D02*
X195942857Y-81214285D01*
X195685714Y-81357142D01*
X195514285Y-81357142D01*
X195257142Y-81214285D01*
X195085714Y-80928571D01*
X195000000Y-80642857D01*
X194914285Y-80071428D01*
X194914285Y-79642857D01*
X195000000Y-79071428D01*
X195085714Y-78785714D01*
X195257142Y-78500000D01*
X195514285Y-78357142D01*
X195685714Y-78357142D01*
X195942857Y-78500000D01*
X196028571Y-78642857D01*
X196628571Y-79357142D02*
X197057142Y-81357142D01*
X197485714Y-79357142D02*
X197057142Y-81357142D01*
X196885714Y-82071428D01*
X196800000Y-82214285D01*
X196628571Y-82357142D01*
X198171428Y-81357142D02*
X198171428Y-79357142D01*
X198171428Y-79642857D02*
X198257142Y-79500000D01*
X198428571Y-79357142D01*
X198685714Y-79357142D01*
X198857142Y-79500000D01*
X198942857Y-79785714D01*
X198942857Y-81357142D01*
X198942857Y-79785714D02*
X199028571Y-79500000D01*
X199200000Y-79357142D01*
X199457142Y-79357142D01*
X199628571Y-79500000D01*
X199714285Y-79785714D01*
X199714285Y-81357142D01*
D10*
X203000000Y-85000000D02*
X196000000Y-85000000D01*
X196000000Y-85000000D02*
X196000000Y-82000000D01*
D11*
X194271428Y-91357142D02*
X193414285Y-91357142D01*
X193414285Y-88357142D01*
X195900000Y-91071428D02*
X195814285Y-91214285D01*
X195557142Y-91357142D01*
X195385714Y-91357142D01*
X195128571Y-91214285D01*
X194957142Y-90928571D01*
X194871428Y-90642857D01*
X194785714Y-90071428D01*
X194785714Y-89642857D01*
X194871428Y-89071428D01*
X194957142Y-88785714D01*
X195128571Y-88500000D01*
X195385714Y-88357142D01*
X195557142Y-88357142D01*
X195814285Y-88500000D01*
X195900000Y-88642857D01*
X196500000Y-89357142D02*
X196928571Y-91357142D01*
X197357142Y-89357142D02*
X196928571Y-91357142D01*
X196757142Y-92071428D01*
X196671428Y-92214285D01*
X196500000Y-92357142D01*
X198042857Y-91357142D02*
X198042857Y-89357142D01*
X198042857Y-89642857D02*
X198128571Y-89500000D01*
X198300000Y-89357142D01*
X198557142Y-89357142D01*
X198728571Y-89500000D01*
X198814285Y-89785714D01*
X198814285Y-91357142D01*
X198814285Y-89785714D02*
X198900000Y-89500000D01*
X199071428Y-89357142D01*
X199328571Y-89357142D01*
X199500000Y-89500000D01*
X199585714Y-89785714D01*
X199585714Y-91357142D01*
D10*
X203000000Y-95000000D02*
X196000000Y-95000000D01*
X196000000Y-95000000D02*
X196000000Y-92000000D01*
D11*
X193028571Y-101214285D02*
X193285714Y-101357142D01*
X193714285Y-101357142D01*
X193885714Y-101214285D01*
X193971428Y-101071428D01*
X194057142Y-100785714D01*
X194057142Y-100500000D01*
X193971428Y-100214285D01*
X193885714Y-100071428D01*
X193714285Y-99928571D01*
X193371428Y-99785714D01*
X193200000Y-99642857D01*
X193114285Y-99500000D01*
X193028571Y-99214285D01*
X193028571Y-98928571D01*
X193114285Y-98642857D01*
X193200000Y-98500000D01*
X193371428Y-98357142D01*
X193800000Y-98357142D01*
X194057142Y-98500000D01*
X194828571Y-99357142D02*
X194828571Y-101357142D01*
X194828571Y-99642857D02*
X194914285Y-99500000D01*
X195085714Y-99357142D01*
X195342857Y-99357142D01*
X195514285Y-99500000D01*
X195600000Y-99785714D01*
X195600000Y-101357142D01*
X197228571Y-101357142D02*
X197228571Y-99785714D01*
X197142857Y-99500000D01*
X196971428Y-99357142D01*
X196628571Y-99357142D01*
X196457142Y-99500000D01*
X197228571Y-101214285D02*
X197057142Y-101357142D01*
X196628571Y-101357142D01*
X196457142Y-101214285D01*
X196371428Y-100928571D01*
X196371428Y-100642857D01*
X196457142Y-100357142D01*
X196628571Y-100214285D01*
X197057142Y-100214285D01*
X197228571Y-100071428D01*
X198085714Y-101357142D02*
X198085714Y-99357142D01*
X198085714Y-99928571D02*
X198171428Y-99642857D01*
X198257142Y-99500000D01*
X198428571Y-99357142D01*
X198600000Y-99357142D01*
X199885714Y-101214285D02*
X199714285Y-101357142D01*
X199371428Y-101357142D01*
X199200000Y-101214285D01*
X199114285Y-100928571D01*
X199114285Y-99785714D01*
X199200000Y-99500000D01*
X199371428Y-99357142D01*
X199714285Y-99357142D01*
X199885714Y-99500000D01*
X199971428Y-99785714D01*
X199971428Y-100071428D01*
X199114285Y-100357142D01*
D10*
X203000000Y-105000000D02*
X196000000Y-105000000D01*
X196000000Y-105000000D02*
X196000000Y-102000000D01*
X196000000Y-135000000D02*
X196000000Y-132000000D01*
X203000000Y-135000000D02*
X196000000Y-135000000D01*
D11*
X195342857Y-131357142D02*
X194485714Y-131357142D01*
X194485714Y-128357142D01*
X196542857Y-129785714D02*
X196800000Y-129928571D01*
X196885714Y-130071428D01*
X196971428Y-130357142D01*
X196971428Y-130785714D01*
X196885714Y-131071428D01*
X196800000Y-131214285D01*
X196628571Y-131357142D01*
X195942857Y-131357142D01*
X195942857Y-128357142D01*
X196542857Y-128357142D01*
X196714285Y-128500000D01*
X196800000Y-128642857D01*
X196885714Y-128928571D01*
X196885714Y-129214285D01*
X196800000Y-129500000D01*
X196714285Y-129642857D01*
X196542857Y-129785714D01*
X195942857Y-129785714D01*
X198514285Y-129357142D02*
X198514285Y-131785714D01*
X198428571Y-132071428D01*
X198342857Y-132214285D01*
X198171428Y-132357142D01*
X197914285Y-132357142D01*
X197742857Y-132214285D01*
X198514285Y-131214285D02*
X198342857Y-131357142D01*
X198000000Y-131357142D01*
X197828571Y-131214285D01*
X197742857Y-131071428D01*
X197657142Y-130785714D01*
X197657142Y-129928571D01*
X197742857Y-129642857D01*
X197828571Y-129500000D01*
X198000000Y-129357142D01*
X198342857Y-129357142D01*
X198514285Y-129500000D01*
X227500000Y-150857142D02*
X227842857Y-150857142D01*
X228014285Y-151000000D01*
X228185714Y-151285714D01*
X228271428Y-151857142D01*
X228271428Y-152857142D01*
X228185714Y-153428571D01*
X228014285Y-153714285D01*
X227842857Y-153857142D01*
X227500000Y-153857142D01*
X227328571Y-153714285D01*
X227157142Y-153428571D01*
X227071428Y-152857142D01*
X227071428Y-151857142D01*
X227157142Y-151285714D01*
X227328571Y-151000000D01*
X227500000Y-150857142D01*
X229814285Y-151857142D02*
X229814285Y-153857142D01*
X229042857Y-151857142D02*
X229042857Y-153428571D01*
X229128571Y-153714285D01*
X229300000Y-153857142D01*
X229557142Y-153857142D01*
X229728571Y-153714285D01*
X229814285Y-153571428D01*
X230414285Y-151857142D02*
X231100000Y-151857142D01*
X230671428Y-150857142D02*
X230671428Y-153428571D01*
X230757142Y-153714285D01*
X230928571Y-153857142D01*
X231100000Y-153857142D01*
X194357142Y-139785714D02*
X194614285Y-139928571D01*
X194700000Y-140071428D01*
X194785714Y-140357142D01*
X194785714Y-140785714D01*
X194700000Y-141071428D01*
X194614285Y-141214285D01*
X194442857Y-141357142D01*
X193757142Y-141357142D01*
X193757142Y-138357142D01*
X194357142Y-138357142D01*
X194528571Y-138500000D01*
X194614285Y-138642857D01*
X194700000Y-138928571D01*
X194700000Y-139214285D01*
X194614285Y-139500000D01*
X194528571Y-139642857D01*
X194357142Y-139785714D01*
X193757142Y-139785714D01*
X196328571Y-141357142D02*
X196328571Y-139785714D01*
X196242857Y-139500000D01*
X196071428Y-139357142D01*
X195728571Y-139357142D01*
X195557142Y-139500000D01*
X196328571Y-141214285D02*
X196157142Y-141357142D01*
X195728571Y-141357142D01*
X195557142Y-141214285D01*
X195471428Y-140928571D01*
X195471428Y-140642857D01*
X195557142Y-140357142D01*
X195728571Y-140214285D01*
X196157142Y-140214285D01*
X196328571Y-140071428D01*
X197100000Y-141214285D02*
X197271428Y-141357142D01*
X197614285Y-141357142D01*
X197785714Y-141214285D01*
X197871428Y-140928571D01*
X197871428Y-140785714D01*
X197785714Y-140500000D01*
X197614285Y-140357142D01*
X197357142Y-140357142D01*
X197185714Y-140214285D01*
X197100000Y-139928571D01*
X197100000Y-139785714D01*
X197185714Y-139500000D01*
X197357142Y-139357142D01*
X197614285Y-139357142D01*
X197785714Y-139500000D01*
X198557142Y-141214285D02*
X198728571Y-141357142D01*
X199071428Y-141357142D01*
X199242857Y-141214285D01*
X199328571Y-140928571D01*
X199328571Y-140785714D01*
X199242857Y-140500000D01*
X199071428Y-140357142D01*
X198814285Y-140357142D01*
X198642857Y-140214285D01*
X198557142Y-139928571D01*
X198557142Y-139785714D01*
X198642857Y-139500000D01*
X198814285Y-139357142D01*
X199071428Y-139357142D01*
X199242857Y-139500000D01*
D12*
X221238095Y-132000000D02*
X221047619Y-131857142D01*
X220761904Y-131857142D01*
X220476190Y-132000000D01*
X220285714Y-132285714D01*
X220190476Y-132571428D01*
X220095238Y-133142857D01*
X220095238Y-133571428D01*
X220190476Y-134142857D01*
X220285714Y-134428571D01*
X220476190Y-134714285D01*
X220761904Y-134857142D01*
X220952380Y-134857142D01*
X221238095Y-134714285D01*
X221333333Y-134571428D01*
X221333333Y-133571428D01*
X220952380Y-133571428D01*
X223047619Y-134857142D02*
X223047619Y-133285714D01*
X222952380Y-133000000D01*
X222761904Y-132857142D01*
X222380952Y-132857142D01*
X222190476Y-133000000D01*
X223047619Y-134714285D02*
X222857142Y-134857142D01*
X222380952Y-134857142D01*
X222190476Y-134714285D01*
X222095238Y-134428571D01*
X222095238Y-134142857D01*
X222190476Y-133857142D01*
X222380952Y-133714285D01*
X222857142Y-133714285D01*
X223047619Y-133571428D01*
X224000000Y-134857142D02*
X224000000Y-132857142D01*
X224000000Y-131857142D02*
X223904761Y-132000000D01*
X224000000Y-132142857D01*
X224095238Y-132000000D01*
X224000000Y-131857142D01*
X224000000Y-132142857D01*
X224952380Y-132857142D02*
X224952380Y-134857142D01*
X224952380Y-133142857D02*
X225047619Y-133000000D01*
X225238095Y-132857142D01*
X225523809Y-132857142D01*
X225714285Y-133000000D01*
X225809523Y-133285714D01*
X225809523Y-134857142D01*
X221047619Y-114857142D02*
X221047619Y-111857142D01*
X221714285Y-114000000D01*
X222380952Y-111857142D01*
X222380952Y-114857142D01*
X223333333Y-114857142D02*
X223333333Y-112857142D01*
X223333333Y-111857142D02*
X223238095Y-112000000D01*
X223333333Y-112142857D01*
X223428571Y-112000000D01*
X223333333Y-111857142D01*
X223333333Y-112142857D01*
X224095238Y-114857142D02*
X225142857Y-112857142D01*
X224095238Y-112857142D02*
X225142857Y-114857142D01*
D13*
X204571428Y-43214285D02*
X204571428Y-37214285D01*
X205285714Y-37214285D01*
X205714285Y-37500000D01*
X206000000Y-38071428D01*
X206142857Y-38642857D01*
X206285714Y-39785714D01*
X206285714Y-40642857D01*
X206142857Y-41785714D01*
X206000000Y-42357142D01*
X205714285Y-42928571D01*
X205285714Y-43214285D01*
X204571428Y-43214285D01*
X209285714Y-43214285D02*
X208285714Y-40357142D01*
X207571428Y-43214285D02*
X207571428Y-37214285D01*
X208714285Y-37214285D01*
X209000000Y-37500000D01*
X209142857Y-37785714D01*
X209285714Y-38357142D01*
X209285714Y-39214285D01*
X209142857Y-39785714D01*
X209000000Y-40071428D01*
X208714285Y-40357142D01*
X207571428Y-40357142D01*
X210571428Y-37214285D02*
X210571428Y-42071428D01*
X210714285Y-42642857D01*
X210857142Y-42928571D01*
X211142857Y-43214285D01*
X211714285Y-43214285D01*
X212000000Y-42928571D01*
X212142857Y-42642857D01*
X212285714Y-42071428D01*
X212285714Y-37214285D01*
X213714285Y-43214285D02*
X213714285Y-37214285D01*
X214714285Y-41500000D01*
X215714285Y-37214285D01*
X215714285Y-43214285D01*
X216857142Y-37214285D02*
X218857142Y-37214285D01*
X217571428Y-43214285D01*
X220428571Y-39785714D02*
X220142857Y-39500000D01*
X220000000Y-39214285D01*
X219857142Y-38642857D01*
X219857142Y-38357142D01*
X220000000Y-37785714D01*
X220142857Y-37500000D01*
X220428571Y-37214285D01*
X221000000Y-37214285D01*
X221285714Y-37500000D01*
X221428571Y-37785714D01*
X221571428Y-38357142D01*
X221571428Y-38642857D01*
X221428571Y-39214285D01*
X221285714Y-39500000D01*
X221000000Y-39785714D01*
X220428571Y-39785714D01*
X220142857Y-40071428D01*
X220000000Y-40357142D01*
X219857142Y-40928571D01*
X219857142Y-42071428D01*
X220000000Y-42642857D01*
X220142857Y-42928571D01*
X220428571Y-43214285D01*
X221000000Y-43214285D01*
X221285714Y-42928571D01*
X221428571Y-42642857D01*
X221571428Y-42071428D01*
X221571428Y-40928571D01*
X221428571Y-40357142D01*
X221285714Y-40071428D01*
X221000000Y-39785714D01*
D10*
X203000000Y-145000000D02*
X196000000Y-145000000D01*
X223000000Y-145000000D02*
X229500000Y-145000000D01*
X203000000Y-125000000D02*
X196000000Y-125000000D01*
X196000000Y-145000000D02*
X196000000Y-142000000D01*
X203000000Y-115000000D02*
X196000000Y-115000000D01*
X196000000Y-115000000D02*
X196000000Y-112000000D01*
X196000000Y-125000000D02*
X196000000Y-122000000D01*
X229500000Y-150500000D02*
X229500000Y-145000000D01*
X203000000Y-145000000D02*
X203000000Y-65000000D01*
X223000000Y-65000000D02*
X223000000Y-145000000D01*
D14*
X228500000Y-131000000D02*
X227500000Y-130000000D01*
X218500000Y-130000000D02*
X217500000Y-131000000D01*
X223000000Y-117000000D02*
X223000000Y-118000000D01*
X218000000Y-130500000D02*
G75*
G02*
X228000000Y-130500000I5000000J5500000D01*
G01*
X223000000Y-97000000D02*
X223000000Y-98000000D01*
X218500000Y-110000000D02*
X217500000Y-111000000D01*
X228500000Y-111000000D02*
X227500000Y-110000000D01*
X218000000Y-110500000D02*
G75*
G02*
X228000000Y-110500000I5000000J5500000D01*
G01*
D15*
G36*
X219291200Y-159399800D02*
G01*
X219176900Y-159399800D01*
X219176900Y-159272800D01*
X219291200Y-159272800D01*
X219291200Y-159399800D01*
G37*
X219291200Y-159399800D02*
X219176900Y-159399800D01*
X219176900Y-159272800D01*
X219291200Y-159272800D01*
X219291200Y-159399800D01*
G36*
X216243200Y-159399800D02*
G01*
X216128900Y-159399800D01*
X216128900Y-159272800D01*
X216243200Y-159272800D01*
X216243200Y-159399800D01*
G37*
X216243200Y-159399800D02*
X216128900Y-159399800D01*
X216128900Y-159272800D01*
X216243200Y-159272800D01*
X216243200Y-159399800D01*
G36*
X219938114Y-159442318D02*
G01*
X219973195Y-159459123D01*
X219992674Y-159474926D01*
X220034150Y-159511953D01*
X220038239Y-159703526D01*
X220042329Y-159895100D01*
X219938900Y-159895100D01*
X219938900Y-159730907D01*
X219938314Y-159659817D01*
X219936253Y-159609877D01*
X219932258Y-159576854D01*
X219925870Y-159556520D01*
X219918942Y-159546757D01*
X219885287Y-159528974D01*
X219845560Y-159530874D01*
X219806502Y-159550204D01*
X219774851Y-159584714D01*
X219768062Y-159597154D01*
X219756927Y-159633806D01*
X219750505Y-159688629D01*
X219748400Y-159765050D01*
X219748400Y-159895100D01*
X219646800Y-159895100D01*
X219646800Y-159450600D01*
X219697600Y-159450600D01*
X219730192Y-159452142D01*
X219744681Y-159460281D01*
X219748330Y-159480282D01*
X219748400Y-159487430D01*
X219748400Y-159524260D01*
X219791580Y-159481080D01*
X219823768Y-159453238D01*
X219854315Y-159440684D01*
X219892979Y-159437900D01*
X219938114Y-159442318D01*
G37*
X219938114Y-159442318D02*
X219973195Y-159459123D01*
X219992674Y-159474926D01*
X220034150Y-159511953D01*
X220038239Y-159703526D01*
X220042329Y-159895100D01*
X219938900Y-159895100D01*
X219938900Y-159730907D01*
X219938314Y-159659817D01*
X219936253Y-159609877D01*
X219932258Y-159576854D01*
X219925870Y-159556520D01*
X219918942Y-159546757D01*
X219885287Y-159528974D01*
X219845560Y-159530874D01*
X219806502Y-159550204D01*
X219774851Y-159584714D01*
X219768062Y-159597154D01*
X219756927Y-159633806D01*
X219750505Y-159688629D01*
X219748400Y-159765050D01*
X219748400Y-159895100D01*
X219646800Y-159895100D01*
X219646800Y-159450600D01*
X219697600Y-159450600D01*
X219730192Y-159452142D01*
X219744681Y-159460281D01*
X219748330Y-159480282D01*
X219748400Y-159487430D01*
X219748400Y-159524260D01*
X219791580Y-159481080D01*
X219823768Y-159453238D01*
X219854315Y-159440684D01*
X219892979Y-159437900D01*
X219938114Y-159442318D01*
G36*
X219291200Y-159806200D02*
G01*
X219342000Y-159806200D01*
X219374525Y-159807545D01*
X219388979Y-159815854D01*
X219392686Y-159837533D01*
X219392800Y-159850650D01*
X219392800Y-159895100D01*
X219088000Y-159895100D01*
X219088000Y-159850650D01*
X219089965Y-159820858D01*
X219101057Y-159808640D01*
X219129066Y-159806205D01*
X219132450Y-159806200D01*
X219176900Y-159806200D01*
X219176900Y-159539500D01*
X219132450Y-159539500D01*
X219102658Y-159537534D01*
X219090440Y-159526442D01*
X219088005Y-159498433D01*
X219088000Y-159495050D01*
X219088000Y-159450600D01*
X219291200Y-159450600D01*
X219291200Y-159806200D01*
G37*
X219291200Y-159806200D02*
X219342000Y-159806200D01*
X219374525Y-159807545D01*
X219388979Y-159815854D01*
X219392686Y-159837533D01*
X219392800Y-159850650D01*
X219392800Y-159895100D01*
X219088000Y-159895100D01*
X219088000Y-159850650D01*
X219089965Y-159820858D01*
X219101057Y-159808640D01*
X219129066Y-159806205D01*
X219132450Y-159806200D01*
X219176900Y-159806200D01*
X219176900Y-159539500D01*
X219132450Y-159539500D01*
X219102658Y-159537534D01*
X219090440Y-159526442D01*
X219088005Y-159498433D01*
X219088000Y-159495050D01*
X219088000Y-159450600D01*
X219291200Y-159450600D01*
X219291200Y-159806200D01*
G36*
X218833699Y-159440912D02*
G01*
X218858516Y-159450885D01*
X218865016Y-159470931D01*
X218858113Y-159499630D01*
X218847462Y-159525131D01*
X218833608Y-159535481D01*
X218807593Y-159535040D01*
X218790351Y-159532606D01*
X218729116Y-159533141D01*
X218675228Y-159551791D01*
X218635106Y-159585879D01*
X218625293Y-159601368D01*
X218612681Y-159641577D01*
X218606047Y-159697735D01*
X218605400Y-159723019D01*
X218605400Y-159806200D01*
X218656200Y-159806200D01*
X218688725Y-159807545D01*
X218703179Y-159815854D01*
X218706886Y-159837533D01*
X218707000Y-159850650D01*
X218707000Y-159895100D01*
X218402200Y-159895100D01*
X218402200Y-159850650D01*
X218403737Y-159822190D01*
X218413233Y-159809542D01*
X218438010Y-159806299D01*
X218453000Y-159806200D01*
X218503800Y-159806200D01*
X218503800Y-159526800D01*
X218453000Y-159526800D01*
X218420426Y-159525295D01*
X218405946Y-159517142D01*
X218402280Y-159496881D01*
X218402200Y-159488700D01*
X218402200Y-159450600D01*
X218605400Y-159450600D01*
X218605400Y-159532890D01*
X218638393Y-159497307D01*
X218682463Y-159460769D01*
X218733745Y-159442216D01*
X218787201Y-159438094D01*
X218833699Y-159440912D01*
G37*
X218833699Y-159440912D02*
X218858516Y-159450885D01*
X218865016Y-159470931D01*
X218858113Y-159499630D01*
X218847462Y-159525131D01*
X218833608Y-159535481D01*
X218807593Y-159535040D01*
X218790351Y-159532606D01*
X218729116Y-159533141D01*
X218675228Y-159551791D01*
X218635106Y-159585879D01*
X218625293Y-159601368D01*
X218612681Y-159641577D01*
X218606047Y-159697735D01*
X218605400Y-159723019D01*
X218605400Y-159806200D01*
X218656200Y-159806200D01*
X218688725Y-159807545D01*
X218703179Y-159815854D01*
X218706886Y-159837533D01*
X218707000Y-159850650D01*
X218707000Y-159895100D01*
X218402200Y-159895100D01*
X218402200Y-159850650D01*
X218403737Y-159822190D01*
X218413233Y-159809542D01*
X218438010Y-159806299D01*
X218453000Y-159806200D01*
X218503800Y-159806200D01*
X218503800Y-159526800D01*
X218453000Y-159526800D01*
X218420426Y-159525295D01*
X218405946Y-159517142D01*
X218402280Y-159496881D01*
X218402200Y-159488700D01*
X218402200Y-159450600D01*
X218605400Y-159450600D01*
X218605400Y-159532890D01*
X218638393Y-159497307D01*
X218682463Y-159460769D01*
X218733745Y-159442216D01*
X218787201Y-159438094D01*
X218833699Y-159440912D01*
G36*
X216890114Y-159442318D02*
G01*
X216925195Y-159459123D01*
X216944674Y-159474926D01*
X216986150Y-159511953D01*
X216990239Y-159703526D01*
X216994329Y-159895100D01*
X216890900Y-159895100D01*
X216890900Y-159730907D01*
X216890314Y-159659817D01*
X216888253Y-159609877D01*
X216884258Y-159576854D01*
X216877870Y-159556520D01*
X216870942Y-159546757D01*
X216837287Y-159528974D01*
X216797560Y-159530874D01*
X216758502Y-159550204D01*
X216726851Y-159584714D01*
X216720062Y-159597154D01*
X216708927Y-159633806D01*
X216702505Y-159688629D01*
X216700400Y-159765050D01*
X216700400Y-159895100D01*
X216598800Y-159895100D01*
X216598800Y-159450600D01*
X216649600Y-159450600D01*
X216682192Y-159452142D01*
X216696681Y-159460281D01*
X216700330Y-159480282D01*
X216700400Y-159487430D01*
X216700400Y-159524260D01*
X216743580Y-159481080D01*
X216775768Y-159453238D01*
X216806315Y-159440684D01*
X216844979Y-159437900D01*
X216890114Y-159442318D01*
G37*
X216890114Y-159442318D02*
X216925195Y-159459123D01*
X216944674Y-159474926D01*
X216986150Y-159511953D01*
X216990239Y-159703526D01*
X216994329Y-159895100D01*
X216890900Y-159895100D01*
X216890900Y-159730907D01*
X216890314Y-159659817D01*
X216888253Y-159609877D01*
X216884258Y-159576854D01*
X216877870Y-159556520D01*
X216870942Y-159546757D01*
X216837287Y-159528974D01*
X216797560Y-159530874D01*
X216758502Y-159550204D01*
X216726851Y-159584714D01*
X216720062Y-159597154D01*
X216708927Y-159633806D01*
X216702505Y-159688629D01*
X216700400Y-159765050D01*
X216700400Y-159895100D01*
X216598800Y-159895100D01*
X216598800Y-159450600D01*
X216649600Y-159450600D01*
X216682192Y-159452142D01*
X216696681Y-159460281D01*
X216700330Y-159480282D01*
X216700400Y-159487430D01*
X216700400Y-159524260D01*
X216743580Y-159481080D01*
X216775768Y-159453238D01*
X216806315Y-159440684D01*
X216844979Y-159437900D01*
X216890114Y-159442318D01*
G36*
X216243200Y-159806200D02*
G01*
X216294000Y-159806200D01*
X216326525Y-159807545D01*
X216340979Y-159815854D01*
X216344686Y-159837533D01*
X216344800Y-159850650D01*
X216344800Y-159895100D01*
X216040000Y-159895100D01*
X216040000Y-159850650D01*
X216041965Y-159820858D01*
X216053057Y-159808640D01*
X216081066Y-159806205D01*
X216084450Y-159806200D01*
X216128900Y-159806200D01*
X216128900Y-159539500D01*
X216084450Y-159539500D01*
X216054658Y-159537534D01*
X216042440Y-159526442D01*
X216040005Y-159498433D01*
X216040000Y-159495050D01*
X216040000Y-159450600D01*
X216243200Y-159450600D01*
X216243200Y-159806200D01*
G37*
X216243200Y-159806200D02*
X216294000Y-159806200D01*
X216326525Y-159807545D01*
X216340979Y-159815854D01*
X216344686Y-159837533D01*
X216344800Y-159850650D01*
X216344800Y-159895100D01*
X216040000Y-159895100D01*
X216040000Y-159850650D01*
X216041965Y-159820858D01*
X216053057Y-159808640D01*
X216081066Y-159806205D01*
X216084450Y-159806200D01*
X216128900Y-159806200D01*
X216128900Y-159539500D01*
X216084450Y-159539500D01*
X216054658Y-159537534D01*
X216042440Y-159526442D01*
X216040005Y-159498433D01*
X216040000Y-159495050D01*
X216040000Y-159450600D01*
X216243200Y-159450600D01*
X216243200Y-159806200D01*
G36*
X215061314Y-159442318D02*
G01*
X215096395Y-159459123D01*
X215115874Y-159474926D01*
X215157350Y-159511953D01*
X215161439Y-159703526D01*
X215165529Y-159895100D01*
X215062100Y-159895100D01*
X215062100Y-159730907D01*
X215061514Y-159659817D01*
X215059453Y-159609877D01*
X215055458Y-159576854D01*
X215049070Y-159556520D01*
X215042142Y-159546757D01*
X215008487Y-159528974D01*
X214968760Y-159530874D01*
X214929702Y-159550204D01*
X214898051Y-159584714D01*
X214891262Y-159597154D01*
X214880127Y-159633806D01*
X214873705Y-159688629D01*
X214871600Y-159765050D01*
X214871600Y-159895100D01*
X214770000Y-159895100D01*
X214770000Y-159450600D01*
X214820800Y-159450600D01*
X214853392Y-159452142D01*
X214867881Y-159460281D01*
X214871530Y-159480282D01*
X214871600Y-159487430D01*
X214871600Y-159524260D01*
X214914780Y-159481080D01*
X214946968Y-159453238D01*
X214977515Y-159440684D01*
X215016179Y-159437900D01*
X215061314Y-159442318D01*
G37*
X215061314Y-159442318D02*
X215096395Y-159459123D01*
X215115874Y-159474926D01*
X215157350Y-159511953D01*
X215161439Y-159703526D01*
X215165529Y-159895100D01*
X215062100Y-159895100D01*
X215062100Y-159730907D01*
X215061514Y-159659817D01*
X215059453Y-159609877D01*
X215055458Y-159576854D01*
X215049070Y-159556520D01*
X215042142Y-159546757D01*
X215008487Y-159528974D01*
X214968760Y-159530874D01*
X214929702Y-159550204D01*
X214898051Y-159584714D01*
X214891262Y-159597154D01*
X214880127Y-159633806D01*
X214873705Y-159688629D01*
X214871600Y-159765050D01*
X214871600Y-159895100D01*
X214770000Y-159895100D01*
X214770000Y-159450600D01*
X214820800Y-159450600D01*
X214853392Y-159452142D01*
X214867881Y-159460281D01*
X214871530Y-159480282D01*
X214871600Y-159487430D01*
X214871600Y-159524260D01*
X214914780Y-159481080D01*
X214946968Y-159453238D01*
X214977515Y-159440684D01*
X215016179Y-159437900D01*
X215061314Y-159442318D01*
G36*
X214554100Y-159361700D02*
G01*
X214262000Y-159361700D01*
X214262000Y-159539500D01*
X214490600Y-159539500D01*
X214490600Y-159628400D01*
X214262000Y-159628400D01*
X214262000Y-159806200D01*
X214554100Y-159806200D01*
X214554100Y-159895100D01*
X214160400Y-159895100D01*
X214160400Y-159272800D01*
X214554100Y-159272800D01*
X214554100Y-159361700D01*
G37*
X214554100Y-159361700D02*
X214262000Y-159361700D01*
X214262000Y-159539500D01*
X214490600Y-159539500D01*
X214490600Y-159628400D01*
X214262000Y-159628400D01*
X214262000Y-159806200D01*
X214554100Y-159806200D01*
X214554100Y-159895100D01*
X214160400Y-159895100D01*
X214160400Y-159272800D01*
X214554100Y-159272800D01*
X214554100Y-159361700D01*
G36*
X213245214Y-159442318D02*
G01*
X213280295Y-159459123D01*
X213299774Y-159474926D01*
X213341250Y-159511953D01*
X213345339Y-159703526D01*
X213349429Y-159895100D01*
X213246000Y-159895100D01*
X213246000Y-159730907D01*
X213245414Y-159659817D01*
X213243353Y-159609877D01*
X213239358Y-159576854D01*
X213232970Y-159556520D01*
X213226042Y-159546757D01*
X213192387Y-159528974D01*
X213152660Y-159530874D01*
X213113602Y-159550204D01*
X213081951Y-159584714D01*
X213075162Y-159597154D01*
X213064027Y-159633806D01*
X213057605Y-159688629D01*
X213055500Y-159765050D01*
X213055500Y-159895100D01*
X212953900Y-159895100D01*
X212953900Y-159450600D01*
X213004700Y-159450600D01*
X213037292Y-159452142D01*
X213051781Y-159460281D01*
X213055430Y-159480282D01*
X213055500Y-159487430D01*
X213055500Y-159524260D01*
X213098680Y-159481080D01*
X213130868Y-159453238D01*
X213161415Y-159440684D01*
X213200079Y-159437900D01*
X213245214Y-159442318D01*
G37*
X213245214Y-159442318D02*
X213280295Y-159459123D01*
X213299774Y-159474926D01*
X213341250Y-159511953D01*
X213345339Y-159703526D01*
X213349429Y-159895100D01*
X213246000Y-159895100D01*
X213246000Y-159730907D01*
X213245414Y-159659817D01*
X213243353Y-159609877D01*
X213239358Y-159576854D01*
X213232970Y-159556520D01*
X213226042Y-159546757D01*
X213192387Y-159528974D01*
X213152660Y-159530874D01*
X213113602Y-159550204D01*
X213081951Y-159584714D01*
X213075162Y-159597154D01*
X213064027Y-159633806D01*
X213057605Y-159688629D01*
X213055500Y-159765050D01*
X213055500Y-159895100D01*
X212953900Y-159895100D01*
X212953900Y-159450600D01*
X213004700Y-159450600D01*
X213037292Y-159452142D01*
X213051781Y-159460281D01*
X213055430Y-159480282D01*
X213055500Y-159487430D01*
X213055500Y-159524260D01*
X213098680Y-159481080D01*
X213130868Y-159453238D01*
X213161415Y-159440684D01*
X213200079Y-159437900D01*
X213245214Y-159442318D01*
G36*
X211416414Y-159442318D02*
G01*
X211451495Y-159459123D01*
X211470974Y-159474926D01*
X211512450Y-159511953D01*
X211516539Y-159703526D01*
X211520629Y-159895100D01*
X211417200Y-159895100D01*
X211417200Y-159730907D01*
X211416614Y-159659817D01*
X211414553Y-159609877D01*
X211410558Y-159576854D01*
X211404170Y-159556520D01*
X211397242Y-159546757D01*
X211363587Y-159528974D01*
X211323860Y-159530874D01*
X211284802Y-159550204D01*
X211253151Y-159584714D01*
X211246362Y-159597154D01*
X211235227Y-159633806D01*
X211228805Y-159688629D01*
X211226700Y-159765050D01*
X211226700Y-159895100D01*
X211125100Y-159895100D01*
X211125100Y-159450600D01*
X211175900Y-159450600D01*
X211208492Y-159452142D01*
X211222981Y-159460281D01*
X211226630Y-159480282D01*
X211226700Y-159487430D01*
X211226700Y-159524260D01*
X211269880Y-159481080D01*
X211302068Y-159453238D01*
X211332615Y-159440684D01*
X211371279Y-159437900D01*
X211416414Y-159442318D01*
G37*
X211416414Y-159442318D02*
X211451495Y-159459123D01*
X211470974Y-159474926D01*
X211512450Y-159511953D01*
X211516539Y-159703526D01*
X211520629Y-159895100D01*
X211417200Y-159895100D01*
X211417200Y-159730907D01*
X211416614Y-159659817D01*
X211414553Y-159609877D01*
X211410558Y-159576854D01*
X211404170Y-159556520D01*
X211397242Y-159546757D01*
X211363587Y-159528974D01*
X211323860Y-159530874D01*
X211284802Y-159550204D01*
X211253151Y-159584714D01*
X211246362Y-159597154D01*
X211235227Y-159633806D01*
X211228805Y-159688629D01*
X211226700Y-159765050D01*
X211226700Y-159895100D01*
X211125100Y-159895100D01*
X211125100Y-159450600D01*
X211175900Y-159450600D01*
X211208492Y-159452142D01*
X211222981Y-159460281D01*
X211226630Y-159480282D01*
X211226700Y-159487430D01*
X211226700Y-159524260D01*
X211269880Y-159481080D01*
X211302068Y-159453238D01*
X211332615Y-159440684D01*
X211371279Y-159437900D01*
X211416414Y-159442318D01*
G36*
X210007500Y-159527200D02*
G01*
X210043179Y-159487268D01*
X210072611Y-159460600D01*
X210106477Y-159446655D01*
X210142965Y-159441176D01*
X210183943Y-159439143D01*
X210211809Y-159445321D01*
X210238423Y-159463284D01*
X210250161Y-159473485D01*
X210293250Y-159511953D01*
X210297339Y-159703526D01*
X210301429Y-159895100D01*
X210198000Y-159895100D01*
X210198000Y-159730907D01*
X210197414Y-159659817D01*
X210195353Y-159609877D01*
X210191358Y-159576854D01*
X210184970Y-159556520D01*
X210178042Y-159546757D01*
X210144387Y-159528974D01*
X210104660Y-159530874D01*
X210065602Y-159550204D01*
X210033951Y-159584714D01*
X210027162Y-159597154D01*
X210016027Y-159633806D01*
X210009605Y-159688629D01*
X210007500Y-159765050D01*
X210007500Y-159895100D01*
X209905900Y-159895100D01*
X209905900Y-159272800D01*
X210007500Y-159272800D01*
X210007500Y-159527200D01*
G37*
X210007500Y-159527200D02*
X210043179Y-159487268D01*
X210072611Y-159460600D01*
X210106477Y-159446655D01*
X210142965Y-159441176D01*
X210183943Y-159439143D01*
X210211809Y-159445321D01*
X210238423Y-159463284D01*
X210250161Y-159473485D01*
X210293250Y-159511953D01*
X210297339Y-159703526D01*
X210301429Y-159895100D01*
X210198000Y-159895100D01*
X210198000Y-159730907D01*
X210197414Y-159659817D01*
X210195353Y-159609877D01*
X210191358Y-159576854D01*
X210184970Y-159556520D01*
X210178042Y-159546757D01*
X210144387Y-159528974D01*
X210104660Y-159530874D01*
X210065602Y-159550204D01*
X210033951Y-159584714D01*
X210027162Y-159597154D01*
X210016027Y-159633806D01*
X210009605Y-159688629D01*
X210007500Y-159765050D01*
X210007500Y-159895100D01*
X209905900Y-159895100D01*
X209905900Y-159272800D01*
X210007500Y-159272800D01*
X210007500Y-159527200D01*
G36*
X218080413Y-159445787D02*
G01*
X218142081Y-159470491D01*
X218182518Y-159503111D01*
X218217361Y-159555044D01*
X218244231Y-159623481D01*
X218255115Y-159669675D01*
X218263650Y-159717300D01*
X217882044Y-159717300D01*
X217896231Y-159748437D01*
X217922015Y-159779278D01*
X217963617Y-159803967D01*
X218011480Y-159817471D01*
X218029469Y-159818621D01*
X218063706Y-159813124D01*
X218105711Y-159799704D01*
X218119304Y-159793985D01*
X218172959Y-159769628D01*
X218198501Y-159802101D01*
X218224044Y-159834573D01*
X218192542Y-159859353D01*
X218134692Y-159890285D01*
X218064466Y-159905651D01*
X217990081Y-159904756D01*
X217919751Y-159886909D01*
X217910914Y-159883118D01*
X217854086Y-159844411D01*
X217813056Y-159790243D01*
X217788965Y-159725896D01*
X217782956Y-159656654D01*
X217792211Y-159608435D01*
X217893971Y-159608435D01*
X217904865Y-159619892D01*
X217936586Y-159626036D01*
X217991057Y-159628276D01*
X218014850Y-159628400D01*
X218074137Y-159627503D01*
X218111624Y-159624482D01*
X218130856Y-159618842D01*
X218135500Y-159611563D01*
X218126899Y-159592145D01*
X218105878Y-159566977D01*
X218102726Y-159563938D01*
X218068051Y-159541118D01*
X218023684Y-159533285D01*
X218014850Y-159533150D01*
X217967831Y-159538951D01*
X217932384Y-159559083D01*
X217926973Y-159563938D01*
X217901981Y-159590254D01*
X217893971Y-159608435D01*
X217792211Y-159608435D01*
X217796172Y-159587800D01*
X217829753Y-159524617D01*
X217832623Y-159520889D01*
X217882212Y-159476662D01*
X217944216Y-159449191D01*
X218012370Y-159438794D01*
X218080413Y-159445787D01*
G37*
X218080413Y-159445787D02*
X218142081Y-159470491D01*
X218182518Y-159503111D01*
X218217361Y-159555044D01*
X218244231Y-159623481D01*
X218255115Y-159669675D01*
X218263650Y-159717300D01*
X217882044Y-159717300D01*
X217896231Y-159748437D01*
X217922015Y-159779278D01*
X217963617Y-159803967D01*
X218011480Y-159817471D01*
X218029469Y-159818621D01*
X218063706Y-159813124D01*
X218105711Y-159799704D01*
X218119304Y-159793985D01*
X218172959Y-159769628D01*
X218198501Y-159802101D01*
X218224044Y-159834573D01*
X218192542Y-159859353D01*
X218134692Y-159890285D01*
X218064466Y-159905651D01*
X217990081Y-159904756D01*
X217919751Y-159886909D01*
X217910914Y-159883118D01*
X217854086Y-159844411D01*
X217813056Y-159790243D01*
X217788965Y-159725896D01*
X217782956Y-159656654D01*
X217792211Y-159608435D01*
X217893971Y-159608435D01*
X217904865Y-159619892D01*
X217936586Y-159626036D01*
X217991057Y-159628276D01*
X218014850Y-159628400D01*
X218074137Y-159627503D01*
X218111624Y-159624482D01*
X218130856Y-159618842D01*
X218135500Y-159611563D01*
X218126899Y-159592145D01*
X218105878Y-159566977D01*
X218102726Y-159563938D01*
X218068051Y-159541118D01*
X218023684Y-159533285D01*
X218014850Y-159533150D01*
X217967831Y-159538951D01*
X217932384Y-159559083D01*
X217926973Y-159563938D01*
X217901981Y-159590254D01*
X217893971Y-159608435D01*
X217792211Y-159608435D01*
X217796172Y-159587800D01*
X217829753Y-159524617D01*
X217832623Y-159520889D01*
X217882212Y-159476662D01*
X217944216Y-159449191D01*
X218012370Y-159438794D01*
X218080413Y-159445787D01*
G36*
X217470813Y-159445787D02*
G01*
X217532481Y-159470491D01*
X217572918Y-159503111D01*
X217607761Y-159555044D01*
X217634631Y-159623481D01*
X217645515Y-159669675D01*
X217654050Y-159717300D01*
X217272444Y-159717300D01*
X217286631Y-159748437D01*
X217312415Y-159779278D01*
X217354017Y-159803967D01*
X217401880Y-159817471D01*
X217419869Y-159818621D01*
X217454106Y-159813124D01*
X217496111Y-159799704D01*
X217509704Y-159793985D01*
X217563359Y-159769628D01*
X217588901Y-159802101D01*
X217614444Y-159834573D01*
X217582942Y-159859353D01*
X217525092Y-159890285D01*
X217454866Y-159905651D01*
X217380481Y-159904756D01*
X217310151Y-159886909D01*
X217301314Y-159883118D01*
X217244486Y-159844411D01*
X217203456Y-159790243D01*
X217179365Y-159725896D01*
X217173356Y-159656654D01*
X217182611Y-159608435D01*
X217284371Y-159608435D01*
X217295265Y-159619892D01*
X217326986Y-159626036D01*
X217381457Y-159628276D01*
X217405250Y-159628400D01*
X217464537Y-159627503D01*
X217502024Y-159624482D01*
X217521256Y-159618842D01*
X217525900Y-159611563D01*
X217517299Y-159592145D01*
X217496278Y-159566977D01*
X217493126Y-159563938D01*
X217458451Y-159541118D01*
X217414084Y-159533285D01*
X217405250Y-159533150D01*
X217358231Y-159538951D01*
X217322784Y-159559083D01*
X217317373Y-159563938D01*
X217292381Y-159590254D01*
X217284371Y-159608435D01*
X217182611Y-159608435D01*
X217186572Y-159587800D01*
X217220153Y-159524617D01*
X217223023Y-159520889D01*
X217272612Y-159476662D01*
X217334616Y-159449191D01*
X217402770Y-159438794D01*
X217470813Y-159445787D01*
G37*
X217470813Y-159445787D02*
X217532481Y-159470491D01*
X217572918Y-159503111D01*
X217607761Y-159555044D01*
X217634631Y-159623481D01*
X217645515Y-159669675D01*
X217654050Y-159717300D01*
X217272444Y-159717300D01*
X217286631Y-159748437D01*
X217312415Y-159779278D01*
X217354017Y-159803967D01*
X217401880Y-159817471D01*
X217419869Y-159818621D01*
X217454106Y-159813124D01*
X217496111Y-159799704D01*
X217509704Y-159793985D01*
X217563359Y-159769628D01*
X217588901Y-159802101D01*
X217614444Y-159834573D01*
X217582942Y-159859353D01*
X217525092Y-159890285D01*
X217454866Y-159905651D01*
X217380481Y-159904756D01*
X217310151Y-159886909D01*
X217301314Y-159883118D01*
X217244486Y-159844411D01*
X217203456Y-159790243D01*
X217179365Y-159725896D01*
X217173356Y-159656654D01*
X217182611Y-159608435D01*
X217284371Y-159608435D01*
X217295265Y-159619892D01*
X217326986Y-159626036D01*
X217381457Y-159628276D01*
X217405250Y-159628400D01*
X217464537Y-159627503D01*
X217502024Y-159624482D01*
X217521256Y-159618842D01*
X217525900Y-159611563D01*
X217517299Y-159592145D01*
X217496278Y-159566977D01*
X217493126Y-159563938D01*
X217458451Y-159541118D01*
X217414084Y-159533285D01*
X217405250Y-159533150D01*
X217358231Y-159538951D01*
X217322784Y-159559083D01*
X217317373Y-159563938D01*
X217292381Y-159590254D01*
X217284371Y-159608435D01*
X217182611Y-159608435D01*
X217186572Y-159587800D01*
X217220153Y-159524617D01*
X217223023Y-159520889D01*
X217272612Y-159476662D01*
X217334616Y-159449191D01*
X217402770Y-159438794D01*
X217470813Y-159445787D01*
G36*
X212606713Y-159445787D02*
G01*
X212668381Y-159470491D01*
X212708818Y-159503111D01*
X212743661Y-159555044D01*
X212770531Y-159623481D01*
X212781415Y-159669675D01*
X212789950Y-159717300D01*
X212408344Y-159717300D01*
X212422531Y-159748437D01*
X212448315Y-159779278D01*
X212489917Y-159803967D01*
X212537780Y-159817471D01*
X212555769Y-159818621D01*
X212590006Y-159813124D01*
X212632011Y-159799704D01*
X212645604Y-159793985D01*
X212699259Y-159769628D01*
X212724801Y-159802101D01*
X212750344Y-159834573D01*
X212718842Y-159859353D01*
X212660992Y-159890285D01*
X212590766Y-159905651D01*
X212516381Y-159904756D01*
X212446051Y-159886909D01*
X212437214Y-159883118D01*
X212380386Y-159844411D01*
X212339356Y-159790243D01*
X212315265Y-159725896D01*
X212309256Y-159656654D01*
X212318511Y-159608435D01*
X212420271Y-159608435D01*
X212431165Y-159619892D01*
X212462886Y-159626036D01*
X212517357Y-159628276D01*
X212541150Y-159628400D01*
X212600437Y-159627503D01*
X212637924Y-159624482D01*
X212657156Y-159618842D01*
X212661800Y-159611563D01*
X212653199Y-159592145D01*
X212632178Y-159566977D01*
X212629026Y-159563938D01*
X212594351Y-159541118D01*
X212549984Y-159533285D01*
X212541150Y-159533150D01*
X212494131Y-159538951D01*
X212458684Y-159559083D01*
X212453273Y-159563938D01*
X212428281Y-159590254D01*
X212420271Y-159608435D01*
X212318511Y-159608435D01*
X212322472Y-159587800D01*
X212356053Y-159524617D01*
X212358923Y-159520889D01*
X212408512Y-159476662D01*
X212470516Y-159449191D01*
X212538670Y-159438794D01*
X212606713Y-159445787D01*
G37*
X212606713Y-159445787D02*
X212668381Y-159470491D01*
X212708818Y-159503111D01*
X212743661Y-159555044D01*
X212770531Y-159623481D01*
X212781415Y-159669675D01*
X212789950Y-159717300D01*
X212408344Y-159717300D01*
X212422531Y-159748437D01*
X212448315Y-159779278D01*
X212489917Y-159803967D01*
X212537780Y-159817471D01*
X212555769Y-159818621D01*
X212590006Y-159813124D01*
X212632011Y-159799704D01*
X212645604Y-159793985D01*
X212699259Y-159769628D01*
X212724801Y-159802101D01*
X212750344Y-159834573D01*
X212718842Y-159859353D01*
X212660992Y-159890285D01*
X212590766Y-159905651D01*
X212516381Y-159904756D01*
X212446051Y-159886909D01*
X212437214Y-159883118D01*
X212380386Y-159844411D01*
X212339356Y-159790243D01*
X212315265Y-159725896D01*
X212309256Y-159656654D01*
X212318511Y-159608435D01*
X212420271Y-159608435D01*
X212431165Y-159619892D01*
X212462886Y-159626036D01*
X212517357Y-159628276D01*
X212541150Y-159628400D01*
X212600437Y-159627503D01*
X212637924Y-159624482D01*
X212657156Y-159618842D01*
X212661800Y-159611563D01*
X212653199Y-159592145D01*
X212632178Y-159566977D01*
X212629026Y-159563938D01*
X212594351Y-159541118D01*
X212549984Y-159533285D01*
X212541150Y-159533150D01*
X212494131Y-159538951D01*
X212458684Y-159559083D01*
X212453273Y-159563938D01*
X212428281Y-159590254D01*
X212420271Y-159608435D01*
X212318511Y-159608435D01*
X212322472Y-159587800D01*
X212356053Y-159524617D01*
X212358923Y-159520889D01*
X212408512Y-159476662D01*
X212470516Y-159449191D01*
X212538670Y-159438794D01*
X212606713Y-159445787D01*
G36*
X212000632Y-159444386D02*
G01*
X212055840Y-159458028D01*
X212095922Y-159478107D01*
X212100489Y-159481961D01*
X212109083Y-159503001D01*
X212104268Y-159528982D01*
X212090296Y-159550658D01*
X212071419Y-159558784D01*
X212065812Y-159557362D01*
X212015036Y-159541203D01*
X211960246Y-159532510D01*
X211907734Y-159531212D01*
X211863790Y-159537235D01*
X211834704Y-159550507D01*
X211827596Y-159560104D01*
X211825073Y-159576955D01*
X211834520Y-159590282D01*
X211859387Y-159601783D01*
X211903120Y-159613152D01*
X211957231Y-159623894D01*
X212033536Y-159641949D01*
X212087294Y-159664676D01*
X212121223Y-159694158D01*
X212138045Y-159732478D01*
X212141100Y-159764728D01*
X212129745Y-159815487D01*
X212098029Y-159856412D01*
X212049475Y-159886315D01*
X211987607Y-159904004D01*
X211915947Y-159908289D01*
X211838019Y-159897982D01*
X211788425Y-159883852D01*
X211750170Y-159869782D01*
X211722498Y-159858020D01*
X211713690Y-159852924D01*
X211712751Y-159837125D01*
X211720877Y-159809004D01*
X211722234Y-159805634D01*
X211731168Y-159785529D01*
X211741020Y-159775070D01*
X211757453Y-159773986D01*
X211786129Y-159782007D01*
X211832712Y-159798863D01*
X211836300Y-159800186D01*
X211910662Y-159815855D01*
X211954522Y-159815520D01*
X212006786Y-159805698D01*
X212035099Y-159790062D01*
X212039457Y-159771258D01*
X212019859Y-159751932D01*
X211976303Y-159734730D01*
X211954593Y-159729532D01*
X211884467Y-159714410D01*
X211834551Y-159701934D01*
X211800033Y-159690387D01*
X211776098Y-159678053D01*
X211757936Y-159663218D01*
X211752337Y-159657425D01*
X211726407Y-159613509D01*
X211722862Y-159566210D01*
X211739996Y-159520198D01*
X211776104Y-159480141D01*
X211827601Y-159451407D01*
X211878179Y-159440142D01*
X211938634Y-159438113D01*
X212000632Y-159444386D01*
G37*
X212000632Y-159444386D02*
X212055840Y-159458028D01*
X212095922Y-159478107D01*
X212100489Y-159481961D01*
X212109083Y-159503001D01*
X212104268Y-159528982D01*
X212090296Y-159550658D01*
X212071419Y-159558784D01*
X212065812Y-159557362D01*
X212015036Y-159541203D01*
X211960246Y-159532510D01*
X211907734Y-159531212D01*
X211863790Y-159537235D01*
X211834704Y-159550507D01*
X211827596Y-159560104D01*
X211825073Y-159576955D01*
X211834520Y-159590282D01*
X211859387Y-159601783D01*
X211903120Y-159613152D01*
X211957231Y-159623894D01*
X212033536Y-159641949D01*
X212087294Y-159664676D01*
X212121223Y-159694158D01*
X212138045Y-159732478D01*
X212141100Y-159764728D01*
X212129745Y-159815487D01*
X212098029Y-159856412D01*
X212049475Y-159886315D01*
X211987607Y-159904004D01*
X211915947Y-159908289D01*
X211838019Y-159897982D01*
X211788425Y-159883852D01*
X211750170Y-159869782D01*
X211722498Y-159858020D01*
X211713690Y-159852924D01*
X211712751Y-159837125D01*
X211720877Y-159809004D01*
X211722234Y-159805634D01*
X211731168Y-159785529D01*
X211741020Y-159775070D01*
X211757453Y-159773986D01*
X211786129Y-159782007D01*
X211832712Y-159798863D01*
X211836300Y-159800186D01*
X211910662Y-159815855D01*
X211954522Y-159815520D01*
X212006786Y-159805698D01*
X212035099Y-159790062D01*
X212039457Y-159771258D01*
X212019859Y-159751932D01*
X211976303Y-159734730D01*
X211954593Y-159729532D01*
X211884467Y-159714410D01*
X211834551Y-159701934D01*
X211800033Y-159690387D01*
X211776098Y-159678053D01*
X211757936Y-159663218D01*
X211752337Y-159657425D01*
X211726407Y-159613509D01*
X211722862Y-159566210D01*
X211739996Y-159520198D01*
X211776104Y-159480141D01*
X211827601Y-159451407D01*
X211878179Y-159440142D01*
X211938634Y-159438113D01*
X212000632Y-159444386D01*
G36*
X210810260Y-159456458D02*
G01*
X210863969Y-159489144D01*
X210881667Y-159507923D01*
X210892735Y-159523957D01*
X210900377Y-159542230D01*
X210905218Y-159567537D01*
X210907884Y-159604675D01*
X210909001Y-159658440D01*
X210909200Y-159719012D01*
X210909200Y-159895100D01*
X210858400Y-159895100D01*
X210825216Y-159893002D01*
X210810537Y-159884441D01*
X210807600Y-159869319D01*
X210806428Y-159853311D01*
X210798873Y-159851680D01*
X210778879Y-159864802D01*
X210769535Y-159871681D01*
X210723244Y-159894024D01*
X210658225Y-159905114D01*
X210655474Y-159905321D01*
X210612093Y-159907472D01*
X210584204Y-159903939D01*
X210562026Y-159891546D01*
X210535775Y-159867115D01*
X210534789Y-159866129D01*
X210505543Y-159832043D01*
X210492460Y-159800556D01*
X210490100Y-159771764D01*
X210493730Y-159754688D01*
X210593668Y-159754688D01*
X210599133Y-159788354D01*
X210624725Y-159809379D01*
X210667574Y-159815900D01*
X210685850Y-159814447D01*
X210727983Y-159803725D01*
X210765066Y-159785989D01*
X210768400Y-159783649D01*
X210793180Y-159755884D01*
X210805268Y-159725569D01*
X210806058Y-159705397D01*
X210797957Y-159695600D01*
X210774768Y-159692604D01*
X210748118Y-159692616D01*
X210680418Y-159698505D01*
X210630383Y-159713688D01*
X210600657Y-159737104D01*
X210593668Y-159754688D01*
X210493730Y-159754688D01*
X210501569Y-159717825D01*
X210535378Y-159674750D01*
X210590630Y-159643148D01*
X210666427Y-159623630D01*
X210716183Y-159618289D01*
X210763879Y-159614585D01*
X210791287Y-159609955D01*
X210803505Y-159602538D01*
X210805629Y-159590475D01*
X210805083Y-159585836D01*
X210791827Y-159560933D01*
X210767128Y-159540309D01*
X210737136Y-159530639D01*
X210695911Y-159530668D01*
X210639406Y-159540783D01*
X210571899Y-159558898D01*
X210549367Y-159558480D01*
X210532747Y-159537849D01*
X210530463Y-159533045D01*
X210521032Y-159506525D01*
X210524816Y-159488529D01*
X210545593Y-159474106D01*
X210587143Y-159458303D01*
X210587627Y-159458138D01*
X210667157Y-159440120D01*
X210743012Y-159439838D01*
X210810260Y-159456458D01*
G37*
X210810260Y-159456458D02*
X210863969Y-159489144D01*
X210881667Y-159507923D01*
X210892735Y-159523957D01*
X210900377Y-159542230D01*
X210905218Y-159567537D01*
X210907884Y-159604675D01*
X210909001Y-159658440D01*
X210909200Y-159719012D01*
X210909200Y-159895100D01*
X210858400Y-159895100D01*
X210825216Y-159893002D01*
X210810537Y-159884441D01*
X210807600Y-159869319D01*
X210806428Y-159853311D01*
X210798873Y-159851680D01*
X210778879Y-159864802D01*
X210769535Y-159871681D01*
X210723244Y-159894024D01*
X210658225Y-159905114D01*
X210655474Y-159905321D01*
X210612093Y-159907472D01*
X210584204Y-159903939D01*
X210562026Y-159891546D01*
X210535775Y-159867115D01*
X210534789Y-159866129D01*
X210505543Y-159832043D01*
X210492460Y-159800556D01*
X210490100Y-159771764D01*
X210493730Y-159754688D01*
X210593668Y-159754688D01*
X210599133Y-159788354D01*
X210624725Y-159809379D01*
X210667574Y-159815900D01*
X210685850Y-159814447D01*
X210727983Y-159803725D01*
X210765066Y-159785989D01*
X210768400Y-159783649D01*
X210793180Y-159755884D01*
X210805268Y-159725569D01*
X210806058Y-159705397D01*
X210797957Y-159695600D01*
X210774768Y-159692604D01*
X210748118Y-159692616D01*
X210680418Y-159698505D01*
X210630383Y-159713688D01*
X210600657Y-159737104D01*
X210593668Y-159754688D01*
X210493730Y-159754688D01*
X210501569Y-159717825D01*
X210535378Y-159674750D01*
X210590630Y-159643148D01*
X210666427Y-159623630D01*
X210716183Y-159618289D01*
X210763879Y-159614585D01*
X210791287Y-159609955D01*
X210803505Y-159602538D01*
X210805629Y-159590475D01*
X210805083Y-159585836D01*
X210791827Y-159560933D01*
X210767128Y-159540309D01*
X210737136Y-159530639D01*
X210695911Y-159530668D01*
X210639406Y-159540783D01*
X210571899Y-159558898D01*
X210549367Y-159558480D01*
X210532747Y-159537849D01*
X210530463Y-159533045D01*
X210521032Y-159506525D01*
X210524816Y-159488529D01*
X210545593Y-159474106D01*
X210587143Y-159458303D01*
X210587627Y-159458138D01*
X210667157Y-159440120D01*
X210743012Y-159439838D01*
X210810260Y-159456458D01*
G36*
X209571766Y-159449125D02*
G01*
X209636474Y-159481026D01*
X209685862Y-159530946D01*
X209717285Y-159596222D01*
X209728100Y-159672850D01*
X209716996Y-159750946D01*
X209685342Y-159815890D01*
X209635619Y-159865231D01*
X209570311Y-159896521D01*
X209491901Y-159907311D01*
X209490382Y-159907302D01*
X209444577Y-159903339D01*
X209402640Y-159894004D01*
X209391550Y-159889872D01*
X209334427Y-159851464D01*
X209292316Y-159796767D01*
X209267086Y-159731225D01*
X209261549Y-159670613D01*
X209363689Y-159670613D01*
X209370887Y-159721333D01*
X209393418Y-159765316D01*
X209429178Y-159797772D01*
X209476060Y-159813913D01*
X209511517Y-159813383D01*
X209551518Y-159799561D01*
X209587147Y-159775119D01*
X209587717Y-159774555D01*
X209607668Y-159749695D01*
X209617404Y-159720658D01*
X209620137Y-159677372D01*
X209620150Y-159672850D01*
X209617996Y-159628557D01*
X209609183Y-159599009D01*
X209590186Y-159573742D01*
X209584936Y-159568363D01*
X209554595Y-159544450D01*
X209520047Y-159534461D01*
X209491761Y-159533150D01*
X209450653Y-159536400D01*
X209422923Y-159549203D01*
X209403716Y-159568125D01*
X209373930Y-159617947D01*
X209363689Y-159670613D01*
X209261549Y-159670613D01*
X209260605Y-159660283D01*
X209274742Y-159589388D01*
X209282203Y-159571250D01*
X209322955Y-159506733D01*
X209376394Y-159463869D01*
X209444061Y-159441689D01*
X209494384Y-159437900D01*
X209571766Y-159449125D01*
G37*
X209571766Y-159449125D02*
X209636474Y-159481026D01*
X209685862Y-159530946D01*
X209717285Y-159596222D01*
X209728100Y-159672850D01*
X209716996Y-159750946D01*
X209685342Y-159815890D01*
X209635619Y-159865231D01*
X209570311Y-159896521D01*
X209491901Y-159907311D01*
X209490382Y-159907302D01*
X209444577Y-159903339D01*
X209402640Y-159894004D01*
X209391550Y-159889872D01*
X209334427Y-159851464D01*
X209292316Y-159796767D01*
X209267086Y-159731225D01*
X209261549Y-159670613D01*
X209363689Y-159670613D01*
X209370887Y-159721333D01*
X209393418Y-159765316D01*
X209429178Y-159797772D01*
X209476060Y-159813913D01*
X209511517Y-159813383D01*
X209551518Y-159799561D01*
X209587147Y-159775119D01*
X209587717Y-159774555D01*
X209607668Y-159749695D01*
X209617404Y-159720658D01*
X209620137Y-159677372D01*
X209620150Y-159672850D01*
X209617996Y-159628557D01*
X209609183Y-159599009D01*
X209590186Y-159573742D01*
X209584936Y-159568363D01*
X209554595Y-159544450D01*
X209520047Y-159534461D01*
X209491761Y-159533150D01*
X209450653Y-159536400D01*
X209422923Y-159549203D01*
X209403716Y-159568125D01*
X209373930Y-159617947D01*
X209363689Y-159670613D01*
X209261549Y-159670613D01*
X209260605Y-159660283D01*
X209274742Y-159589388D01*
X209282203Y-159571250D01*
X209322955Y-159506733D01*
X209376394Y-159463869D01*
X209444061Y-159441689D01*
X209494384Y-159437900D01*
X209571766Y-159449125D01*
G36*
X209080400Y-159511409D02*
G01*
X209080207Y-159595945D01*
X209079354Y-159659353D01*
X209077427Y-159705900D01*
X209074013Y-159739855D01*
X209068700Y-159765488D01*
X209061073Y-159787068D01*
X209051825Y-159806684D01*
X209014747Y-159859147D01*
X208978800Y-159885555D01*
X208926340Y-159901642D01*
X208864265Y-159906377D01*
X208805952Y-159899199D01*
X208788306Y-159893532D01*
X208739112Y-159863215D01*
X208695891Y-159817614D01*
X208679143Y-159790955D01*
X208664437Y-159757641D01*
X208665977Y-159737654D01*
X208685821Y-159723253D01*
X208698633Y-159717617D01*
X208735503Y-159708790D01*
X208757582Y-159717789D01*
X208762900Y-159735970D01*
X208773231Y-159757685D01*
X208798688Y-159782819D01*
X208830963Y-159804987D01*
X208861750Y-159817804D01*
X208870785Y-159818900D01*
X208904376Y-159816521D01*
X208930288Y-159807494D01*
X208949489Y-159788978D01*
X208962946Y-159758134D01*
X208971628Y-159712122D01*
X208976503Y-159648104D01*
X208978539Y-159563238D01*
X208978800Y-159502030D01*
X208978800Y-159272800D01*
X209080400Y-159272800D01*
X209080400Y-159511409D01*
G37*
X209080400Y-159511409D02*
X209080207Y-159595945D01*
X209079354Y-159659353D01*
X209077427Y-159705900D01*
X209074013Y-159739855D01*
X209068700Y-159765488D01*
X209061073Y-159787068D01*
X209051825Y-159806684D01*
X209014747Y-159859147D01*
X208978800Y-159885555D01*
X208926340Y-159901642D01*
X208864265Y-159906377D01*
X208805952Y-159899199D01*
X208788306Y-159893532D01*
X208739112Y-159863215D01*
X208695891Y-159817614D01*
X208679143Y-159790955D01*
X208664437Y-159757641D01*
X208665977Y-159737654D01*
X208685821Y-159723253D01*
X208698633Y-159717617D01*
X208735503Y-159708790D01*
X208757582Y-159717789D01*
X208762900Y-159735970D01*
X208773231Y-159757685D01*
X208798688Y-159782819D01*
X208830963Y-159804987D01*
X208861750Y-159817804D01*
X208870785Y-159818900D01*
X208904376Y-159816521D01*
X208930288Y-159807494D01*
X208949489Y-159788978D01*
X208962946Y-159758134D01*
X208971628Y-159712122D01*
X208976503Y-159648104D01*
X208978539Y-159563238D01*
X208978800Y-159502030D01*
X208978800Y-159272800D01*
X209080400Y-159272800D01*
X209080400Y-159511409D01*
G36*
X220482474Y-159445453D02*
G01*
X220511030Y-159457276D01*
X220536696Y-159467208D01*
X220548357Y-159464762D01*
X220548500Y-159463626D01*
X220559765Y-159455469D01*
X220587910Y-159450932D01*
X220599300Y-159450600D01*
X220650100Y-159450600D01*
X220650100Y-159702721D01*
X220649965Y-159789193D01*
X220649309Y-159854155D01*
X220647751Y-159901497D01*
X220644912Y-159935109D01*
X220640412Y-159958879D01*
X220633872Y-159976699D01*
X220624910Y-159992457D01*
X220621271Y-159997996D01*
X220575865Y-160044194D01*
X220515238Y-160073830D01*
X220444389Y-160085713D01*
X220368316Y-160078656D01*
X220329304Y-160067447D01*
X220283678Y-160047420D01*
X220253552Y-160026476D01*
X220243700Y-160009251D01*
X220250936Y-159993145D01*
X220265955Y-159972029D01*
X220288210Y-159944546D01*
X220350270Y-159971998D01*
X220411509Y-159990625D01*
X220465737Y-159991271D01*
X220509169Y-159975328D01*
X220538018Y-159944187D01*
X220548499Y-159899238D01*
X220548500Y-159899155D01*
X220548500Y-159856347D01*
X220511030Y-159875723D01*
X220450461Y-159894532D01*
X220390993Y-159890756D01*
X220336141Y-159867099D01*
X220289420Y-159826262D01*
X220254344Y-159770946D01*
X220234428Y-159703853D01*
X220231306Y-159661944D01*
X220333295Y-159661944D01*
X220339837Y-159713003D01*
X220362551Y-159758341D01*
X220397497Y-159789108D01*
X220435645Y-159800009D01*
X220481196Y-159798768D01*
X220520959Y-159786299D01*
X220530583Y-159779859D01*
X220540135Y-159759334D01*
X220546310Y-159721682D01*
X220549036Y-159674854D01*
X220548245Y-159626803D01*
X220543867Y-159585480D01*
X220535831Y-159558838D01*
X220532553Y-159554776D01*
X220491884Y-159535364D01*
X220442672Y-159531601D01*
X220407954Y-159539850D01*
X220367628Y-159568826D01*
X220342650Y-159611704D01*
X220333295Y-159661944D01*
X220231306Y-159661944D01*
X220231208Y-159660634D01*
X220241573Y-159590522D01*
X220269635Y-159530408D01*
X220311576Y-159483069D01*
X220363576Y-159451279D01*
X220421815Y-159437816D01*
X220482474Y-159445453D01*
G37*
X220482474Y-159445453D02*
X220511030Y-159457276D01*
X220536696Y-159467208D01*
X220548357Y-159464762D01*
X220548500Y-159463626D01*
X220559765Y-159455469D01*
X220587910Y-159450932D01*
X220599300Y-159450600D01*
X220650100Y-159450600D01*
X220650100Y-159702721D01*
X220649965Y-159789193D01*
X220649309Y-159854155D01*
X220647751Y-159901497D01*
X220644912Y-159935109D01*
X220640412Y-159958879D01*
X220633872Y-159976699D01*
X220624910Y-159992457D01*
X220621271Y-159997996D01*
X220575865Y-160044194D01*
X220515238Y-160073830D01*
X220444389Y-160085713D01*
X220368316Y-160078656D01*
X220329304Y-160067447D01*
X220283678Y-160047420D01*
X220253552Y-160026476D01*
X220243700Y-160009251D01*
X220250936Y-159993145D01*
X220265955Y-159972029D01*
X220288210Y-159944546D01*
X220350270Y-159971998D01*
X220411509Y-159990625D01*
X220465737Y-159991271D01*
X220509169Y-159975328D01*
X220538018Y-159944187D01*
X220548499Y-159899238D01*
X220548500Y-159899155D01*
X220548500Y-159856347D01*
X220511030Y-159875723D01*
X220450461Y-159894532D01*
X220390993Y-159890756D01*
X220336141Y-159867099D01*
X220289420Y-159826262D01*
X220254344Y-159770946D01*
X220234428Y-159703853D01*
X220231306Y-159661944D01*
X220333295Y-159661944D01*
X220339837Y-159713003D01*
X220362551Y-159758341D01*
X220397497Y-159789108D01*
X220435645Y-159800009D01*
X220481196Y-159798768D01*
X220520959Y-159786299D01*
X220530583Y-159779859D01*
X220540135Y-159759334D01*
X220546310Y-159721682D01*
X220549036Y-159674854D01*
X220548245Y-159626803D01*
X220543867Y-159585480D01*
X220535831Y-159558838D01*
X220532553Y-159554776D01*
X220491884Y-159535364D01*
X220442672Y-159531601D01*
X220407954Y-159539850D01*
X220367628Y-159568826D01*
X220342650Y-159611704D01*
X220333295Y-159661944D01*
X220231306Y-159661944D01*
X220231208Y-159660634D01*
X220241573Y-159590522D01*
X220269635Y-159530408D01*
X220311576Y-159483069D01*
X220363576Y-159451279D01*
X220421815Y-159437816D01*
X220482474Y-159445453D01*
G36*
X215605674Y-159445453D02*
G01*
X215634230Y-159457276D01*
X215659896Y-159467208D01*
X215671557Y-159464762D01*
X215671700Y-159463626D01*
X215682965Y-159455469D01*
X215711110Y-159450932D01*
X215722500Y-159450600D01*
X215773300Y-159450600D01*
X215773300Y-159702721D01*
X215773165Y-159789193D01*
X215772509Y-159854155D01*
X215770951Y-159901497D01*
X215768112Y-159935109D01*
X215763612Y-159958879D01*
X215757072Y-159976699D01*
X215748110Y-159992457D01*
X215744471Y-159997996D01*
X215699065Y-160044194D01*
X215638438Y-160073830D01*
X215567589Y-160085713D01*
X215491516Y-160078656D01*
X215452504Y-160067447D01*
X215406878Y-160047420D01*
X215376752Y-160026476D01*
X215366900Y-160009251D01*
X215374136Y-159993145D01*
X215389155Y-159972029D01*
X215411410Y-159944546D01*
X215473470Y-159971998D01*
X215534709Y-159990625D01*
X215588937Y-159991271D01*
X215632369Y-159975328D01*
X215661218Y-159944187D01*
X215671699Y-159899238D01*
X215671700Y-159899155D01*
X215671700Y-159856347D01*
X215634230Y-159875723D01*
X215573661Y-159894532D01*
X215514193Y-159890756D01*
X215459341Y-159867099D01*
X215412620Y-159826262D01*
X215377544Y-159770946D01*
X215357628Y-159703853D01*
X215354506Y-159661944D01*
X215456495Y-159661944D01*
X215463037Y-159713003D01*
X215485751Y-159758341D01*
X215520697Y-159789108D01*
X215558845Y-159800009D01*
X215604396Y-159798768D01*
X215644159Y-159786299D01*
X215653783Y-159779859D01*
X215663335Y-159759334D01*
X215669510Y-159721682D01*
X215672236Y-159674854D01*
X215671445Y-159626803D01*
X215667067Y-159585480D01*
X215659031Y-159558838D01*
X215655753Y-159554776D01*
X215615084Y-159535364D01*
X215565872Y-159531601D01*
X215531154Y-159539850D01*
X215490828Y-159568826D01*
X215465850Y-159611704D01*
X215456495Y-159661944D01*
X215354506Y-159661944D01*
X215354408Y-159660634D01*
X215364773Y-159590522D01*
X215392835Y-159530408D01*
X215434776Y-159483069D01*
X215486776Y-159451279D01*
X215545015Y-159437816D01*
X215605674Y-159445453D01*
G37*
X215605674Y-159445453D02*
X215634230Y-159457276D01*
X215659896Y-159467208D01*
X215671557Y-159464762D01*
X215671700Y-159463626D01*
X215682965Y-159455469D01*
X215711110Y-159450932D01*
X215722500Y-159450600D01*
X215773300Y-159450600D01*
X215773300Y-159702721D01*
X215773165Y-159789193D01*
X215772509Y-159854155D01*
X215770951Y-159901497D01*
X215768112Y-159935109D01*
X215763612Y-159958879D01*
X215757072Y-159976699D01*
X215748110Y-159992457D01*
X215744471Y-159997996D01*
X215699065Y-160044194D01*
X215638438Y-160073830D01*
X215567589Y-160085713D01*
X215491516Y-160078656D01*
X215452504Y-160067447D01*
X215406878Y-160047420D01*
X215376752Y-160026476D01*
X215366900Y-160009251D01*
X215374136Y-159993145D01*
X215389155Y-159972029D01*
X215411410Y-159944546D01*
X215473470Y-159971998D01*
X215534709Y-159990625D01*
X215588937Y-159991271D01*
X215632369Y-159975328D01*
X215661218Y-159944187D01*
X215671699Y-159899238D01*
X215671700Y-159899155D01*
X215671700Y-159856347D01*
X215634230Y-159875723D01*
X215573661Y-159894532D01*
X215514193Y-159890756D01*
X215459341Y-159867099D01*
X215412620Y-159826262D01*
X215377544Y-159770946D01*
X215357628Y-159703853D01*
X215354506Y-159661944D01*
X215456495Y-159661944D01*
X215463037Y-159713003D01*
X215485751Y-159758341D01*
X215520697Y-159789108D01*
X215558845Y-159800009D01*
X215604396Y-159798768D01*
X215644159Y-159786299D01*
X215653783Y-159779859D01*
X215663335Y-159759334D01*
X215669510Y-159721682D01*
X215672236Y-159674854D01*
X215671445Y-159626803D01*
X215667067Y-159585480D01*
X215659031Y-159558838D01*
X215655753Y-159554776D01*
X215615084Y-159535364D01*
X215565872Y-159531601D01*
X215531154Y-159539850D01*
X215490828Y-159568826D01*
X215465850Y-159611704D01*
X215456495Y-159661944D01*
X215354506Y-159661944D01*
X215354408Y-159660634D01*
X215364773Y-159590522D01*
X215392835Y-159530408D01*
X215434776Y-159483069D01*
X215486776Y-159451279D01*
X215545015Y-159437816D01*
X215605674Y-159445453D01*
G36*
X221435286Y-160991293D02*
G01*
X221458647Y-161032187D01*
X221460396Y-161076811D01*
X221440639Y-161117299D01*
X221433506Y-161124786D01*
X221404112Y-161152400D01*
X208218643Y-161152400D01*
X208192321Y-161118937D01*
X208173769Y-161087072D01*
X208166000Y-161057272D01*
X208166000Y-161057150D01*
X208173694Y-161027404D01*
X208192207Y-160995507D01*
X208192321Y-160995362D01*
X208218643Y-160961900D01*
X214813157Y-160961899D01*
X221407672Y-160961899D01*
X221435286Y-160991293D01*
G37*
X221435286Y-160991293D02*
X221458647Y-161032187D01*
X221460396Y-161076811D01*
X221440639Y-161117299D01*
X221433506Y-161124786D01*
X221404112Y-161152400D01*
X208218643Y-161152400D01*
X208192321Y-161118937D01*
X208173769Y-161087072D01*
X208166000Y-161057272D01*
X208166000Y-161057150D01*
X208173694Y-161027404D01*
X208192207Y-160995507D01*
X208192321Y-160995362D01*
X208218643Y-160961900D01*
X214813157Y-160961899D01*
X221407672Y-160961899D01*
X221435286Y-160991293D01*
G36*
X205744043Y-160964392D02*
G01*
X205792101Y-160973191D01*
X205822105Y-160990281D01*
X205837542Y-161017645D01*
X205841900Y-161057150D01*
X205837607Y-161096532D01*
X205822399Y-161123780D01*
X205792781Y-161140862D01*
X205745257Y-161149745D01*
X205676332Y-161152395D01*
X205672663Y-161152400D01*
X205615908Y-161151825D01*
X205578492Y-161149290D01*
X205554365Y-161143576D01*
X205537476Y-161133466D01*
X205526613Y-161123006D01*
X205503252Y-161082112D01*
X205501503Y-161037488D01*
X205521260Y-160997000D01*
X205528393Y-160989513D01*
X205545574Y-160976180D01*
X205566619Y-160967937D01*
X205597738Y-160963612D01*
X205645141Y-160962030D01*
X205674443Y-160961900D01*
X205744043Y-160964392D01*
G37*
X205744043Y-160964392D02*
X205792101Y-160973191D01*
X205822105Y-160990281D01*
X205837542Y-161017645D01*
X205841900Y-161057150D01*
X205837607Y-161096532D01*
X205822399Y-161123780D01*
X205792781Y-161140862D01*
X205745257Y-161149745D01*
X205676332Y-161152395D01*
X205672663Y-161152400D01*
X205615908Y-161151825D01*
X205578492Y-161149290D01*
X205554365Y-161143576D01*
X205537476Y-161133466D01*
X205526613Y-161123006D01*
X205503252Y-161082112D01*
X205501503Y-161037488D01*
X205521260Y-160997000D01*
X205528393Y-160989513D01*
X205545574Y-160976180D01*
X205566619Y-160967937D01*
X205597738Y-160963612D01*
X205645141Y-160962030D01*
X205674443Y-160961900D01*
X205744043Y-160964392D01*
G36*
X206204557Y-160713054D02*
G01*
X206237368Y-160732157D01*
X206246941Y-160740516D01*
X206254270Y-160750303D01*
X206259707Y-160764826D01*
X206263605Y-160787391D01*
X206266317Y-160821307D01*
X206268194Y-160869882D01*
X206269589Y-160936423D01*
X206270854Y-161024238D01*
X206271188Y-161049571D01*
X206275026Y-161342728D01*
X206243190Y-161374564D01*
X206203435Y-161401023D01*
X206163527Y-161402725D01*
X206126040Y-161379617D01*
X206123513Y-161377006D01*
X206114675Y-161366635D01*
X206107956Y-161354549D01*
X206103065Y-161337371D01*
X206099714Y-161311724D01*
X206097611Y-161274232D01*
X206096468Y-161221520D01*
X206095994Y-161150210D01*
X206095900Y-161056927D01*
X206095900Y-161055370D01*
X206095965Y-160961929D01*
X206096367Y-160890539D01*
X206097413Y-160837846D01*
X206099412Y-160800503D01*
X206102670Y-160775156D01*
X206107497Y-160758457D01*
X206114200Y-160747055D01*
X206123086Y-160737598D01*
X206125293Y-160735513D01*
X206164470Y-160711609D01*
X206204557Y-160713054D01*
G37*
X206204557Y-160713054D02*
X206237368Y-160732157D01*
X206246941Y-160740516D01*
X206254270Y-160750303D01*
X206259707Y-160764826D01*
X206263605Y-160787391D01*
X206266317Y-160821307D01*
X206268194Y-160869882D01*
X206269589Y-160936423D01*
X206270854Y-161024238D01*
X206271188Y-161049571D01*
X206275026Y-161342728D01*
X206243190Y-161374564D01*
X206203435Y-161401023D01*
X206163527Y-161402725D01*
X206126040Y-161379617D01*
X206123513Y-161377006D01*
X206114675Y-161366635D01*
X206107956Y-161354549D01*
X206103065Y-161337371D01*
X206099714Y-161311724D01*
X206097611Y-161274232D01*
X206096468Y-161221520D01*
X206095994Y-161150210D01*
X206095900Y-161056927D01*
X206095900Y-161055370D01*
X206095965Y-160961929D01*
X206096367Y-160890539D01*
X206097413Y-160837846D01*
X206099412Y-160800503D01*
X206102670Y-160775156D01*
X206107497Y-160758457D01*
X206114200Y-160747055D01*
X206123086Y-160737598D01*
X206125293Y-160735513D01*
X206164470Y-160711609D01*
X206204557Y-160713054D01*
G36*
X207930360Y-160384148D02*
G01*
X207937400Y-160390400D01*
X207943118Y-160396819D01*
X207947907Y-160405090D01*
X207951849Y-160417365D01*
X207955026Y-160435795D01*
X207957522Y-160462532D01*
X207959417Y-160499728D01*
X207960795Y-160549533D01*
X207961737Y-160614100D01*
X207962326Y-160695579D01*
X207962645Y-160796124D01*
X207962775Y-160917884D01*
X207962800Y-161054324D01*
X207962722Y-161200224D01*
X207962446Y-161322823D01*
X207961912Y-161424218D01*
X207961055Y-161506508D01*
X207959815Y-161571791D01*
X207958129Y-161622165D01*
X207955934Y-161659728D01*
X207953169Y-161686578D01*
X207949771Y-161704814D01*
X207945678Y-161716533D01*
X207943029Y-161721074D01*
X207913262Y-161743781D01*
X207873733Y-161749686D01*
X207833757Y-161738757D01*
X207810894Y-161721505D01*
X207805058Y-161714613D01*
X207800171Y-161706105D01*
X207796150Y-161693817D01*
X207792910Y-161675586D01*
X207790367Y-161649248D01*
X207788437Y-161612641D01*
X207787035Y-161563601D01*
X207786077Y-161499964D01*
X207785479Y-161419567D01*
X207785156Y-161320246D01*
X207785025Y-161199839D01*
X207785000Y-161057150D01*
X207785025Y-160913643D01*
X207785158Y-160793374D01*
X207785482Y-160694178D01*
X207786082Y-160613891D01*
X207787043Y-160550352D01*
X207788447Y-160501395D01*
X207790381Y-160464858D01*
X207792928Y-160438577D01*
X207796172Y-160420390D01*
X207800199Y-160408132D01*
X207805091Y-160399641D01*
X207810894Y-160392794D01*
X207847738Y-160369943D01*
X207890793Y-160367000D01*
X207930360Y-160384148D01*
G37*
X207930360Y-160384148D02*
X207937400Y-160390400D01*
X207943118Y-160396819D01*
X207947907Y-160405090D01*
X207951849Y-160417365D01*
X207955026Y-160435795D01*
X207957522Y-160462532D01*
X207959417Y-160499728D01*
X207960795Y-160549533D01*
X207961737Y-160614100D01*
X207962326Y-160695579D01*
X207962645Y-160796124D01*
X207962775Y-160917884D01*
X207962800Y-161054324D01*
X207962722Y-161200224D01*
X207962446Y-161322823D01*
X207961912Y-161424218D01*
X207961055Y-161506508D01*
X207959815Y-161571791D01*
X207958129Y-161622165D01*
X207955934Y-161659728D01*
X207953169Y-161686578D01*
X207949771Y-161704814D01*
X207945678Y-161716533D01*
X207943029Y-161721074D01*
X207913262Y-161743781D01*
X207873733Y-161749686D01*
X207833757Y-161738757D01*
X207810894Y-161721505D01*
X207805058Y-161714613D01*
X207800171Y-161706105D01*
X207796150Y-161693817D01*
X207792910Y-161675586D01*
X207790367Y-161649248D01*
X207788437Y-161612641D01*
X207787035Y-161563601D01*
X207786077Y-161499964D01*
X207785479Y-161419567D01*
X207785156Y-161320246D01*
X207785025Y-161199839D01*
X207785000Y-161057150D01*
X207785025Y-160913643D01*
X207785158Y-160793374D01*
X207785482Y-160694178D01*
X207786082Y-160613891D01*
X207787043Y-160550352D01*
X207788447Y-160501395D01*
X207790381Y-160464858D01*
X207792928Y-160438577D01*
X207796172Y-160420390D01*
X207800199Y-160408132D01*
X207805091Y-160399641D01*
X207810894Y-160392794D01*
X207847738Y-160369943D01*
X207890793Y-160367000D01*
X207930360Y-160384148D01*
G36*
X206914153Y-160373366D02*
G01*
X206916323Y-160374719D01*
X206925899Y-160382268D01*
X206933948Y-160392460D01*
X206940603Y-160407408D01*
X206945994Y-160429227D01*
X206950255Y-160460029D01*
X206953517Y-160501931D01*
X206955911Y-160557044D01*
X206957571Y-160627484D01*
X206958628Y-160715364D01*
X206959213Y-160822799D01*
X206959458Y-160951902D01*
X206959500Y-161066620D01*
X206959473Y-161208969D01*
X206959337Y-161328100D01*
X206959005Y-161426193D01*
X206958390Y-161505429D01*
X206957406Y-161567989D01*
X206955968Y-161616055D01*
X206953988Y-161651807D01*
X206951381Y-161677427D01*
X206948060Y-161695095D01*
X206943939Y-161706993D01*
X206938933Y-161715301D01*
X206933605Y-161721505D01*
X206898709Y-161744001D01*
X206857871Y-161749644D01*
X206820403Y-161738462D01*
X206801470Y-161721074D01*
X206796956Y-161712113D01*
X206793172Y-161697824D01*
X206790056Y-161676107D01*
X206787546Y-161644866D01*
X206785580Y-161602001D01*
X206784094Y-161545415D01*
X206783028Y-161473009D01*
X206782319Y-161382686D01*
X206781905Y-161272347D01*
X206781723Y-161139893D01*
X206781700Y-161054324D01*
X206781727Y-160910547D01*
X206781866Y-160790018D01*
X206782197Y-160690586D01*
X206782804Y-160610100D01*
X206783768Y-160546407D01*
X206785173Y-160497357D01*
X206787099Y-160460797D01*
X206789630Y-160434577D01*
X206792848Y-160416544D01*
X206796835Y-160404547D01*
X206801673Y-160396434D01*
X206807100Y-160390400D01*
X206839677Y-160371493D01*
X206879644Y-160365200D01*
X206914153Y-160373366D01*
G37*
X206914153Y-160373366D02*
X206916323Y-160374719D01*
X206925899Y-160382268D01*
X206933948Y-160392460D01*
X206940603Y-160407408D01*
X206945994Y-160429227D01*
X206950255Y-160460029D01*
X206953517Y-160501931D01*
X206955911Y-160557044D01*
X206957571Y-160627484D01*
X206958628Y-160715364D01*
X206959213Y-160822799D01*
X206959458Y-160951902D01*
X206959500Y-161066620D01*
X206959473Y-161208969D01*
X206959337Y-161328100D01*
X206959005Y-161426193D01*
X206958390Y-161505429D01*
X206957406Y-161567989D01*
X206955968Y-161616055D01*
X206953988Y-161651807D01*
X206951381Y-161677427D01*
X206948060Y-161695095D01*
X206943939Y-161706993D01*
X206938933Y-161715301D01*
X206933605Y-161721505D01*
X206898709Y-161744001D01*
X206857871Y-161749644D01*
X206820403Y-161738462D01*
X206801470Y-161721074D01*
X206796956Y-161712113D01*
X206793172Y-161697824D01*
X206790056Y-161676107D01*
X206787546Y-161644866D01*
X206785580Y-161602001D01*
X206784094Y-161545415D01*
X206783028Y-161473009D01*
X206782319Y-161382686D01*
X206781905Y-161272347D01*
X206781723Y-161139893D01*
X206781700Y-161054324D01*
X206781727Y-160910547D01*
X206781866Y-160790018D01*
X206782197Y-160690586D01*
X206782804Y-160610100D01*
X206783768Y-160546407D01*
X206785173Y-160497357D01*
X206787099Y-160460797D01*
X206789630Y-160434577D01*
X206792848Y-160416544D01*
X206796835Y-160404547D01*
X206801673Y-160396434D01*
X206807100Y-160390400D01*
X206839677Y-160371493D01*
X206879644Y-160365200D01*
X206914153Y-160373366D01*
G36*
X207600053Y-160028088D02*
G01*
X207621879Y-160046790D01*
X207626201Y-160053072D01*
X207629958Y-160061651D01*
X207633188Y-160074239D01*
X207635931Y-160092549D01*
X207638227Y-160118294D01*
X207640115Y-160153187D01*
X207641635Y-160198939D01*
X207642826Y-160257264D01*
X207643729Y-160329875D01*
X207644382Y-160418483D01*
X207644826Y-160524802D01*
X207645099Y-160650544D01*
X207645242Y-160797422D01*
X207645295Y-160967149D01*
X207645300Y-161059134D01*
X207645300Y-162042554D01*
X207614127Y-162073727D01*
X207576174Y-162099826D01*
X207538933Y-162100608D01*
X207501063Y-162076073D01*
X207498672Y-162073727D01*
X207467500Y-162042554D01*
X207467500Y-161059134D01*
X207467522Y-160877591D01*
X207467616Y-160719736D01*
X207467821Y-160583856D01*
X207468176Y-160468238D01*
X207468722Y-160371169D01*
X207469497Y-160290937D01*
X207470542Y-160225829D01*
X207471896Y-160174133D01*
X207473599Y-160134135D01*
X207475690Y-160104124D01*
X207478209Y-160082386D01*
X207481195Y-160067209D01*
X207484689Y-160056880D01*
X207488730Y-160049687D01*
X207490920Y-160046790D01*
X207525484Y-160022461D01*
X207556400Y-160017866D01*
X207600053Y-160028088D01*
G37*
X207600053Y-160028088D02*
X207621879Y-160046790D01*
X207626201Y-160053072D01*
X207629958Y-160061651D01*
X207633188Y-160074239D01*
X207635931Y-160092549D01*
X207638227Y-160118294D01*
X207640115Y-160153187D01*
X207641635Y-160198939D01*
X207642826Y-160257264D01*
X207643729Y-160329875D01*
X207644382Y-160418483D01*
X207644826Y-160524802D01*
X207645099Y-160650544D01*
X207645242Y-160797422D01*
X207645295Y-160967149D01*
X207645300Y-161059134D01*
X207645300Y-162042554D01*
X207614127Y-162073727D01*
X207576174Y-162099826D01*
X207538933Y-162100608D01*
X207501063Y-162076073D01*
X207498672Y-162073727D01*
X207467500Y-162042554D01*
X207467500Y-161059134D01*
X207467522Y-160877591D01*
X207467616Y-160719736D01*
X207467821Y-160583856D01*
X207468176Y-160468238D01*
X207468722Y-160371169D01*
X207469497Y-160290937D01*
X207470542Y-160225829D01*
X207471896Y-160174133D01*
X207473599Y-160134135D01*
X207475690Y-160104124D01*
X207478209Y-160082386D01*
X207481195Y-160067209D01*
X207484689Y-160056880D01*
X207488730Y-160049687D01*
X207490920Y-160046790D01*
X207525484Y-160022461D01*
X207556400Y-160017866D01*
X207600053Y-160028088D01*
G36*
X206556284Y-160023835D02*
G01*
X206589603Y-160043551D01*
X206608462Y-160075566D01*
X206609709Y-160092673D01*
X206610900Y-160133154D01*
X206612017Y-160194985D01*
X206613044Y-160276140D01*
X206613966Y-160374594D01*
X206614765Y-160488322D01*
X206615427Y-160615299D01*
X206615934Y-160753499D01*
X206616271Y-160900897D01*
X206616421Y-161055468D01*
X206616426Y-161073602D01*
X206616600Y-162042554D01*
X206585427Y-162073727D01*
X206548935Y-162099588D01*
X206512686Y-162101150D01*
X206472291Y-162078601D01*
X206472262Y-162078578D01*
X206438800Y-162052256D01*
X206438800Y-161068093D01*
X206438958Y-160858810D01*
X206439437Y-160674594D01*
X206440240Y-160515112D01*
X206441372Y-160380033D01*
X206442838Y-160269025D01*
X206444641Y-160181755D01*
X206446787Y-160117893D01*
X206449279Y-160077107D01*
X206452122Y-160059064D01*
X206452272Y-160058757D01*
X206479644Y-160030579D01*
X206516973Y-160019224D01*
X206556284Y-160023835D01*
G37*
X206556284Y-160023835D02*
X206589603Y-160043551D01*
X206608462Y-160075566D01*
X206609709Y-160092673D01*
X206610900Y-160133154D01*
X206612017Y-160194985D01*
X206613044Y-160276140D01*
X206613966Y-160374594D01*
X206614765Y-160488322D01*
X206615427Y-160615299D01*
X206615934Y-160753499D01*
X206616271Y-160900897D01*
X206616421Y-161055468D01*
X206616426Y-161073602D01*
X206616600Y-162042554D01*
X206585427Y-162073727D01*
X206548935Y-162099588D01*
X206512686Y-162101150D01*
X206472291Y-162078601D01*
X206472262Y-162078578D01*
X206438800Y-162052256D01*
X206438800Y-161068093D01*
X206438958Y-160858810D01*
X206439437Y-160674594D01*
X206440240Y-160515112D01*
X206441372Y-160380033D01*
X206442838Y-160269025D01*
X206444641Y-160181755D01*
X206446787Y-160117893D01*
X206449279Y-160077107D01*
X206452122Y-160059064D01*
X206452272Y-160058757D01*
X206479644Y-160030579D01*
X206516973Y-160019224D01*
X206556284Y-160023835D01*
G36*
X207270832Y-159693784D02*
G01*
X207276078Y-159699962D01*
X207280287Y-159705588D01*
X207284022Y-159712115D01*
X207287310Y-159721013D01*
X207290181Y-159733751D01*
X207292663Y-159751799D01*
X207294783Y-159776627D01*
X207296571Y-159809703D01*
X207298054Y-159852497D01*
X207299262Y-159906478D01*
X207300222Y-159973117D01*
X207300963Y-160053882D01*
X207301514Y-160150243D01*
X207301902Y-160263669D01*
X207302156Y-160395630D01*
X207302304Y-160547596D01*
X207302375Y-160721035D01*
X207302398Y-160917417D01*
X207302400Y-161062998D01*
X207302400Y-162392572D01*
X207273006Y-162420186D01*
X207232942Y-162443429D01*
X207190671Y-162444227D01*
X207152999Y-162422590D01*
X207150494Y-162420005D01*
X207146361Y-162415243D01*
X207142693Y-162409375D01*
X207139463Y-162400941D01*
X207136641Y-162388481D01*
X207134202Y-162370535D01*
X207132116Y-162345641D01*
X207130357Y-162312341D01*
X207128896Y-162269174D01*
X207127705Y-162214680D01*
X207126758Y-162147399D01*
X207126026Y-162065870D01*
X207125482Y-161968633D01*
X207125097Y-161854228D01*
X207124844Y-161721196D01*
X207124696Y-161568075D01*
X207124624Y-161393405D01*
X207124601Y-161195727D01*
X207124600Y-161056969D01*
X207124599Y-159721727D01*
X207153993Y-159694113D01*
X207194057Y-159670230D01*
X207234619Y-159670198D01*
X207270832Y-159693784D01*
G37*
X207270832Y-159693784D02*
X207276078Y-159699962D01*
X207280287Y-159705588D01*
X207284022Y-159712115D01*
X207287310Y-159721013D01*
X207290181Y-159733751D01*
X207292663Y-159751799D01*
X207294783Y-159776627D01*
X207296571Y-159809703D01*
X207298054Y-159852497D01*
X207299262Y-159906478D01*
X207300222Y-159973117D01*
X207300963Y-160053882D01*
X207301514Y-160150243D01*
X207301902Y-160263669D01*
X207302156Y-160395630D01*
X207302304Y-160547596D01*
X207302375Y-160721035D01*
X207302398Y-160917417D01*
X207302400Y-161062998D01*
X207302400Y-162392572D01*
X207273006Y-162420186D01*
X207232942Y-162443429D01*
X207190671Y-162444227D01*
X207152999Y-162422590D01*
X207150494Y-162420005D01*
X207146361Y-162415243D01*
X207142693Y-162409375D01*
X207139463Y-162400941D01*
X207136641Y-162388481D01*
X207134202Y-162370535D01*
X207132116Y-162345641D01*
X207130357Y-162312341D01*
X207128896Y-162269174D01*
X207127705Y-162214680D01*
X207126758Y-162147399D01*
X207126026Y-162065870D01*
X207125482Y-161968633D01*
X207125097Y-161854228D01*
X207124844Y-161721196D01*
X207124696Y-161568075D01*
X207124624Y-161393405D01*
X207124601Y-161195727D01*
X207124600Y-161056969D01*
X207124599Y-159721727D01*
X207153993Y-159694113D01*
X207194057Y-159670230D01*
X207234619Y-159670198D01*
X207270832Y-159693784D01*
%LPC*%
D14*
X212380952Y-52952380D02*
X212571428Y-52952380D01*
X212666666Y-53000000D01*
X212761904Y-53095238D01*
X212809523Y-53285714D01*
X212809523Y-53619047D01*
X212761904Y-53809523D01*
X212666666Y-53904761D01*
X212571428Y-53952380D01*
X212380952Y-53952380D01*
X212285714Y-53904761D01*
X212190476Y-53809523D01*
X212142857Y-53619047D01*
X212142857Y-53285714D01*
X212190476Y-53095238D01*
X212285714Y-53000000D01*
X212380952Y-52952380D01*
X213238095Y-53952380D02*
X213238095Y-52952380D01*
X213809523Y-53952380D01*
X213809523Y-52952380D01*
D16*
X223000000Y-75000000D03*
X223000000Y-85000000D03*
X203000000Y-75000000D03*
X203000000Y-85000000D03*
X203000000Y-95000000D03*
D17*
X226500000Y-39000000D03*
D16*
X223000000Y-125000000D03*
D17*
X199500000Y-39000000D03*
X199500000Y-161000000D03*
D16*
X203000000Y-105000000D03*
D18*
X213000000Y-51000000D03*
D17*
X226500000Y-161000000D03*
D16*
X203000000Y-115000000D03*
X203075001Y-145000000D03*
X203000000Y-125000000D03*
X223000000Y-105000000D03*
X223000000Y-145000000D03*
X203000000Y-135000000D03*
M02*
